G04 Layer_Physical_Order=1*
G04 Layer_Color=10079232*
%FSLAX25Y25*%
%MOIN*%
G70*
G01*
G75*
%ADD10C,0.00700*%
%ADD11R,0.03150X0.03543*%
%ADD12R,0.03543X0.03150*%
%ADD13R,0.08661X0.04134*%
%ADD14R,0.04134X0.03937*%
%ADD15R,0.03543X0.02756*%
%ADD16R,0.05905X0.05000*%
%ADD17R,0.03937X0.03543*%
%ADD18R,0.05905X0.11811*%
%ADD19R,0.00787X0.01378*%
%ADD20R,0.03701X0.01024*%
%ADD21R,0.02756X0.03543*%
%ADD22R,0.07480X0.07087*%
%ADD23R,0.05315X0.01575*%
%ADD24R,0.02362X0.03937*%
%ADD25R,0.04724X0.01181*%
%ADD26R,0.01181X0.04724*%
%ADD27R,0.04724X0.07087*%
%ADD28R,0.07480X0.04331*%
%ADD29R,0.04724X0.03937*%
%ADD30R,0.01181X0.03347*%
%ADD31R,0.03347X0.01181*%
%ADD32R,0.13583X0.13583*%
%ADD33C,0.01181*%
%ADD34C,0.05000*%
G04:AMPARAMS|DCode=35|XSize=74.8mil|YSize=95.47mil|CornerRadius=22.44mil|HoleSize=0mil|Usage=FLASHONLY|Rotation=0.000|XOffset=0mil|YOffset=0mil|HoleType=Round|Shape=RoundedRectangle|*
%AMROUNDEDRECTD35*
21,1,0.07480,0.05059,0,0,0.0*
21,1,0.02992,0.09547,0,0,0.0*
1,1,0.04488,0.01496,-0.02530*
1,1,0.04488,-0.01496,-0.02530*
1,1,0.04488,-0.01496,0.02530*
1,1,0.04488,0.01496,0.02530*
%
%ADD35ROUNDEDRECTD35*%
G04:AMPARAMS|DCode=36|XSize=49.21mil|YSize=43.31mil|CornerRadius=18.19mil|HoleSize=0mil|Usage=FLASHONLY|Rotation=0.000|XOffset=0mil|YOffset=0mil|HoleType=Round|Shape=RoundedRectangle|*
%AMROUNDEDRECTD36*
21,1,0.04921,0.00693,0,0,0.0*
21,1,0.01284,0.04331,0,0,0.0*
1,1,0.03638,0.00642,-0.00346*
1,1,0.03638,-0.00642,-0.00346*
1,1,0.03638,-0.00642,0.00346*
1,1,0.03638,0.00642,0.00346*
%
%ADD36ROUNDEDRECTD36*%
%ADD37C,0.02400*%
G36*
X18337Y-137822D02*
Y-140900D01*
X18388Y-141154D01*
X18531Y-141369D01*
X18943Y-141780D01*
X18736Y-142280D01*
X17753D01*
X17380Y-141881D01*
X17394Y-141740D01*
X17537Y-141525D01*
X17588Y-141272D01*
Y-137728D01*
X17885Y-137438D01*
X18337Y-137822D01*
D02*
G37*
G36*
X91128Y-138570D02*
Y-140100D01*
X90628Y-140307D01*
X89600Y-139279D01*
X89269Y-139058D01*
X89069Y-139018D01*
X88834Y-138666D01*
X88222Y-138257D01*
X88032Y-138220D01*
X88081Y-137720D01*
X90278D01*
X91128Y-138570D01*
D02*
G37*
G36*
X29655Y-142426D02*
X29807Y-142543D01*
Y-144280D01*
X28069D01*
X27861Y-143780D01*
X29330Y-142312D01*
X29655Y-142426D01*
D02*
G37*
G36*
X79778Y-144043D02*
X80500Y-144186D01*
X80658Y-144155D01*
X80814Y-144326D01*
X80632Y-144867D01*
X80178Y-144957D01*
X79566Y-145366D01*
X79320Y-145735D01*
X78820Y-145584D01*
Y-143947D01*
X79320Y-143736D01*
X79778Y-144043D01*
D02*
G37*
G36*
X86035Y-144277D02*
X86366Y-144498D01*
X86756Y-144576D01*
X86957D01*
Y-145157D01*
X86092D01*
X86077Y-145135D01*
X85632Y-144690D01*
X85786Y-144137D01*
X85873Y-144115D01*
X86035Y-144277D01*
D02*
G37*
G36*
X94178Y-133243D02*
X94900Y-133386D01*
X95065Y-133521D01*
Y-134616D01*
X94565Y-134823D01*
X93490Y-133748D01*
X93535Y-133373D01*
X94031Y-133145D01*
X94178Y-133243D01*
D02*
G37*
G36*
X83878Y-112543D02*
X84465Y-112660D01*
X84693Y-113139D01*
X84252Y-113580D01*
X68652D01*
X68586Y-113500D01*
X68451Y-112820D01*
X68464Y-112699D01*
X68667Y-112320D01*
X83544D01*
X83878Y-112543D01*
D02*
G37*
G36*
X116880Y-75784D02*
Y-76978D01*
X103495Y-90363D01*
X103274Y-90694D01*
X103196Y-91084D01*
Y-105378D01*
X102838Y-105813D01*
X101657D01*
X101403Y-105863D01*
X101263Y-105957D01*
X101123Y-105863D01*
X100869Y-105813D01*
X99688D01*
X99330Y-105378D01*
Y-92712D01*
X116321Y-75721D01*
X116380Y-75632D01*
X116880Y-75784D01*
D02*
G37*
G36*
X89377Y-111669D02*
X89592Y-111812D01*
X89846Y-111863D01*
X91027D01*
X91385Y-112298D01*
Y-116073D01*
X89578Y-117880D01*
X85700D01*
X85310Y-117958D01*
X84979Y-118179D01*
X81279Y-121879D01*
X81058Y-122210D01*
X80980Y-122600D01*
Y-122907D01*
X80228D01*
X79975Y-122957D01*
X79760Y-123101D01*
X79616Y-123316D01*
X79566Y-123569D01*
Y-126325D01*
X79616Y-126579D01*
X79760Y-126794D01*
X79975Y-126937D01*
X80228Y-126988D01*
X83772D01*
X84025Y-126937D01*
X84240Y-126794D01*
X84384Y-126579D01*
X84434Y-126325D01*
Y-123569D01*
X84384Y-123316D01*
X84240Y-123101D01*
X84025Y-122957D01*
X83831Y-122918D01*
X83656Y-122628D01*
X83585Y-122457D01*
X86122Y-119920D01*
X90000D01*
X90390Y-119842D01*
X90721Y-119621D01*
X92854Y-117488D01*
X93354Y-117695D01*
Y-117973D01*
X93431Y-118363D01*
X93652Y-118694D01*
X98980Y-124022D01*
Y-127500D01*
X98539Y-127736D01*
X98422Y-127657D01*
X97700Y-127514D01*
X96978Y-127657D01*
X96366Y-128066D01*
X95957Y-128678D01*
X95828Y-129327D01*
X95783Y-129421D01*
X95365Y-129706D01*
X94900Y-129614D01*
X94178Y-129757D01*
X93566Y-130166D01*
X93157Y-130778D01*
X93034Y-131399D01*
X92730Y-131600D01*
X92537Y-131668D01*
X92222Y-131457D01*
X91500Y-131314D01*
X90778Y-131457D01*
X90675Y-131526D01*
X90234Y-131290D01*
Y-129575D01*
X90184Y-129321D01*
X90040Y-129106D01*
X89825Y-128963D01*
X89572Y-128912D01*
X86028D01*
X85775Y-128963D01*
X85560Y-129106D01*
X85416Y-129321D01*
X85366Y-129575D01*
Y-129833D01*
X84434D01*
Y-129475D01*
X84384Y-129221D01*
X84240Y-129006D01*
X84025Y-128863D01*
X83772Y-128812D01*
X80228D01*
X79975Y-128863D01*
X79760Y-129006D01*
X79616Y-129221D01*
X79566Y-129475D01*
Y-129849D01*
X79257Y-129911D01*
X78926Y-130132D01*
X77079Y-131979D01*
X76858Y-132310D01*
X76780Y-132700D01*
Y-145338D01*
X76573Y-145498D01*
X76280Y-145644D01*
X76109Y-145610D01*
X74766D01*
Y-142688D01*
X74784Y-142684D01*
X74999Y-142540D01*
X75143Y-142325D01*
X75193Y-142072D01*
Y-138528D01*
X75143Y-138275D01*
X74999Y-138060D01*
X74784Y-137916D01*
X74531Y-137866D01*
X71381D01*
X71127Y-137916D01*
X70912Y-138060D01*
X70769Y-138275D01*
X70718Y-138528D01*
Y-142072D01*
X70769Y-142325D01*
X70912Y-142540D01*
X71127Y-142684D01*
X71381Y-142734D01*
X72727D01*
Y-145610D01*
X71384D01*
X71131Y-145660D01*
X70916Y-145804D01*
X70772Y-146019D01*
X70722Y-146272D01*
Y-150209D01*
X70772Y-150463D01*
X70916Y-150678D01*
X71131Y-150822D01*
X71384Y-150872D01*
X76109D01*
X76362Y-150822D01*
X76493Y-150735D01*
X77380Y-151622D01*
Y-153400D01*
X77458Y-153790D01*
X77679Y-154121D01*
X80260Y-156702D01*
X80053Y-157202D01*
X72338D01*
X70078Y-154942D01*
Y-151391D01*
X70028Y-151137D01*
X69884Y-150922D01*
X69669Y-150778D01*
X69416Y-150728D01*
X64691D01*
X64438Y-150778D01*
X64223Y-150922D01*
X64079Y-151137D01*
X64029Y-151391D01*
Y-152636D01*
X61334D01*
Y-152081D01*
X61284Y-151828D01*
X61140Y-151612D01*
X60925Y-151469D01*
X60672Y-151418D01*
X57128D01*
X56875Y-151469D01*
X56660Y-151612D01*
X56516Y-151828D01*
X56466Y-152081D01*
Y-155231D01*
X56516Y-155484D01*
X56660Y-155699D01*
X56875Y-155843D01*
X57128Y-155893D01*
X60672D01*
X60925Y-155843D01*
X61140Y-155699D01*
X61284Y-155484D01*
X61334Y-155231D01*
Y-154675D01*
X64029D01*
Y-155328D01*
X64079Y-155581D01*
X64223Y-155796D01*
X64438Y-155940D01*
X64691Y-155990D01*
X68243D01*
X70728Y-158475D01*
X70537Y-158937D01*
X60800D01*
X60546Y-158988D01*
X60331Y-159131D01*
X59731Y-159731D01*
X59588Y-159946D01*
X59537Y-160200D01*
Y-165700D01*
X59588Y-165954D01*
X59731Y-166169D01*
X60031Y-166469D01*
X60246Y-166612D01*
X60500Y-166663D01*
X69400D01*
X69654Y-166612D01*
X69869Y-166469D01*
X71855Y-164482D01*
X71891Y-164428D01*
X71937Y-164382D01*
X71962Y-164322D01*
X71998Y-164268D01*
X72011Y-164204D01*
X72036Y-164143D01*
X72126Y-163693D01*
X72388Y-163300D01*
X72781Y-163038D01*
X73231Y-162948D01*
X73292Y-162923D01*
X73356Y-162910D01*
X73410Y-162874D01*
X73470Y-162849D01*
X73516Y-162803D01*
X73571Y-162767D01*
X74875Y-161463D01*
X79547D01*
X79738Y-161925D01*
X76531Y-165131D01*
X76388Y-165346D01*
X76337Y-165600D01*
Y-173700D01*
X76345Y-173737D01*
X76339Y-173800D01*
X76063Y-174272D01*
X76046Y-174288D01*
X75831Y-174431D01*
X75331Y-174931D01*
X75188Y-175146D01*
X75137Y-175400D01*
Y-175426D01*
X73625Y-176937D01*
X71874D01*
X70869Y-175931D01*
X70654Y-175788D01*
X70400Y-175737D01*
X54575D01*
X42769Y-163931D01*
X42554Y-163788D01*
X42300Y-163737D01*
X23737D01*
X23665Y-163523D01*
X23654Y-163237D01*
X23799Y-163140D01*
X23943Y-162925D01*
X23993Y-162672D01*
Y-161920D01*
X36400D01*
X36790Y-161842D01*
X37121Y-161621D01*
X47921Y-150821D01*
X48142Y-150490D01*
X48220Y-150100D01*
Y-129222D01*
X64394Y-113048D01*
X64855Y-113294D01*
X64814Y-113500D01*
X64957Y-114222D01*
X65366Y-114834D01*
X65978Y-115243D01*
X66700Y-115386D01*
X67071Y-115313D01*
X67079Y-115321D01*
X67410Y-115542D01*
X67800Y-115620D01*
X84674D01*
X85064Y-115542D01*
X85395Y-115321D01*
X89077Y-111639D01*
X89377Y-111669D01*
D02*
G37*
G36*
X85366Y-132331D02*
X85416Y-132584D01*
X85560Y-132799D01*
X85775Y-132943D01*
X86028Y-132993D01*
X89145D01*
X89613Y-133200D01*
X89670Y-133484D01*
X89757Y-133922D01*
X90166Y-134534D01*
X90778Y-134943D01*
X91500Y-135086D01*
X91871Y-135012D01*
X93096Y-136238D01*
Y-136947D01*
X92596Y-137154D01*
X91421Y-135979D01*
X91090Y-135758D01*
X90700Y-135680D01*
X83044D01*
X82834Y-135366D01*
X82222Y-134957D01*
X81500Y-134814D01*
X80778Y-134957D01*
X80166Y-135366D01*
X79757Y-135978D01*
X79614Y-136700D01*
X79757Y-137422D01*
X80166Y-138034D01*
X80778Y-138443D01*
X81500Y-138586D01*
X82222Y-138443D01*
X82834Y-138034D01*
X83044Y-137720D01*
X86919D01*
X86968Y-138220D01*
X86778Y-138257D01*
X86166Y-138666D01*
X85757Y-139278D01*
X85666Y-139736D01*
X85172Y-140148D01*
X85000Y-140114D01*
X84278Y-140257D01*
X83666Y-140666D01*
X83257Y-141278D01*
X83114Y-142000D01*
X82699Y-142277D01*
X82509Y-142291D01*
X82370Y-142219D01*
X82243Y-141578D01*
X81834Y-140966D01*
X81222Y-140557D01*
X80500Y-140414D01*
X79778Y-140557D01*
X79320Y-140864D01*
X78820Y-140654D01*
Y-133122D01*
X79197Y-132745D01*
X79760Y-132699D01*
X79975Y-132843D01*
X80228Y-132893D01*
X83772D01*
X84025Y-132843D01*
X84240Y-132699D01*
X84384Y-132484D01*
X84434Y-132231D01*
Y-131872D01*
X85366D01*
Y-132331D01*
D02*
G37*
G36*
X29786Y-108921D02*
X30117Y-109142D01*
X30507Y-109220D01*
X35436D01*
X35643Y-109720D01*
X34831Y-110531D01*
X34688Y-110746D01*
X34637Y-111000D01*
Y-115426D01*
X32026Y-118037D01*
X22475D01*
X20263Y-115825D01*
Y-111155D01*
X20474Y-110982D01*
X25789D01*
X26043Y-110931D01*
X26258Y-110787D01*
X26401Y-110573D01*
X26452Y-110319D01*
Y-108744D01*
X26401Y-108491D01*
X26340Y-108379D01*
X26514Y-107951D01*
X26559Y-107895D01*
X26860Y-107693D01*
X27141Y-107413D01*
X28278D01*
X29786Y-108921D01*
D02*
G37*
G36*
X83232Y-145174D02*
X83214Y-145351D01*
X83070Y-145566D01*
X83047Y-145683D01*
X82667Y-145809D01*
X82526Y-145804D01*
X82234Y-145366D01*
X81865Y-145120D01*
X82016Y-144620D01*
X82678D01*
X83232Y-145174D01*
D02*
G37*
G36*
X88800Y-164696D02*
X88792Y-164708D01*
X88734Y-164746D01*
X88688Y-164793D01*
X88634Y-164829D01*
X87331Y-166131D01*
X80631Y-172831D01*
X80556Y-172944D01*
X80400Y-173100D01*
Y-173900D01*
X77200D01*
X77000Y-173700D01*
Y-165600D01*
X81200Y-161400D01*
X83466D01*
X83683Y-161443D01*
X87029D01*
X87246Y-161400D01*
X88800D01*
Y-164696D01*
D02*
G37*
G36*
X87000Y-160773D02*
X86964Y-160780D01*
X83748D01*
X83596Y-160750D01*
X83530D01*
X83466Y-160737D01*
X81200D01*
X80946Y-160788D01*
X80928Y-160800D01*
X74600D01*
X73102Y-162298D01*
X72522Y-162413D01*
X71910Y-162822D01*
X71501Y-163434D01*
X71386Y-164014D01*
X69400Y-166000D01*
X60500D01*
X60200Y-165700D01*
Y-160200D01*
X60800Y-159600D01*
X87000D01*
Y-160773D01*
D02*
G37*
G36*
X19781Y-159080D02*
X19912Y-159184D01*
Y-162672D01*
X19963Y-162925D01*
X20106Y-163140D01*
X20251Y-163237D01*
X20241Y-163523D01*
X20168Y-163737D01*
X17832D01*
X17760Y-163523D01*
X17749Y-163237D01*
X17894Y-163140D01*
X18037Y-162925D01*
X18088Y-162672D01*
Y-160301D01*
X19437Y-158952D01*
X19781Y-159080D01*
D02*
G37*
G36*
X94700Y-174400D02*
X96000Y-175700D01*
Y-178800D01*
X86900D01*
Y-172800D01*
X91600Y-168100D01*
Y-161400D01*
X94700D01*
Y-174400D01*
D02*
G37*
G36*
X116529Y-161671D02*
X108000Y-170200D01*
X103800D01*
X103471Y-170529D01*
X103009Y-170337D01*
Y-165212D01*
X103049Y-165186D01*
X103193Y-164971D01*
X103243Y-164717D01*
Y-161443D01*
X106517D01*
X106771Y-161393D01*
X106986Y-161249D01*
X107012Y-161209D01*
X116337D01*
X116529Y-161671D01*
D02*
G37*
G36*
X118275Y-157143D02*
X118528Y-157193D01*
X120353D01*
X120545Y-157655D01*
X119030Y-159170D01*
X114081D01*
X114032Y-158670D01*
X114040Y-158669D01*
X114450Y-158394D01*
X114551Y-158293D01*
X116772D01*
X117025Y-158243D01*
X117240Y-158099D01*
X117384Y-157884D01*
X117434Y-157631D01*
Y-157321D01*
X117500D01*
X117984Y-157225D01*
X118190Y-157087D01*
X118275Y-157143D01*
D02*
G37*
G36*
X29598Y-149522D02*
X29828Y-149920D01*
X29807Y-150028D01*
Y-150780D01*
X25147D01*
X24757Y-150858D01*
X24426Y-151079D01*
X23773Y-151733D01*
X23595Y-151647D01*
X23360Y-151438D01*
X23393Y-151272D01*
Y-149420D01*
X29493D01*
X29598Y-149522D01*
D02*
G37*
G36*
X14169Y-141934D02*
X14585D01*
X14605Y-142037D01*
X14826Y-142368D01*
X16479Y-144021D01*
X16810Y-144242D01*
X17200Y-144320D01*
X18131D01*
X18338Y-144820D01*
X16092Y-147066D01*
X14069D01*
X13963Y-147087D01*
X13563Y-146855D01*
X13463Y-146751D01*
Y-142183D01*
X13881Y-141906D01*
X13963Y-141893D01*
X14169Y-141934D01*
D02*
G37*
G36*
X80326Y-151068D02*
X80657Y-151289D01*
X80741Y-151816D01*
X80366Y-152066D01*
X79957Y-152678D01*
X79922Y-152856D01*
X79892Y-152865D01*
X79420Y-152819D01*
Y-151200D01*
X79342Y-150810D01*
X79304Y-150753D01*
X79693Y-150434D01*
X80326Y-151068D01*
D02*
G37*
G36*
X112566Y-154556D02*
Y-156235D01*
X110606D01*
X110557Y-155735D01*
X111022Y-155643D01*
X111634Y-155234D01*
X112043Y-154622D01*
X112066Y-154506D01*
X112566Y-154556D01*
D02*
G37*
G36*
X46180Y-145746D02*
Y-149678D01*
X35978Y-159880D01*
X23993D01*
Y-159128D01*
X23943Y-158875D01*
X23799Y-158660D01*
X23584Y-158516D01*
X23331Y-158466D01*
X20631D01*
X20526Y-158335D01*
X20398Y-157991D01*
X25570Y-152820D01*
X29807D01*
Y-153572D01*
X29857Y-153825D01*
X30001Y-154040D01*
X30216Y-154184D01*
X30469Y-154234D01*
X33225D01*
X33479Y-154184D01*
X33694Y-154040D01*
X33838Y-153825D01*
X33888Y-153572D01*
Y-150028D01*
X33866Y-149920D01*
X34096Y-149522D01*
X34201Y-149420D01*
X41800D01*
X42190Y-149342D01*
X42521Y-149121D01*
X45421Y-146221D01*
X45642Y-145890D01*
X45680Y-145697D01*
X46180Y-145746D01*
D02*
G37*
G36*
X78400Y-91842D02*
X78557Y-91947D01*
X78663Y-92521D01*
X78448Y-92791D01*
X73012D01*
X72244Y-92022D01*
X72451Y-91522D01*
X78080D01*
X78400Y-91842D01*
D02*
G37*
G36*
X71137Y-95779D02*
X71137Y-95779D01*
X71289Y-95931D01*
X71620Y-96152D01*
X72010Y-96230D01*
X77021D01*
X77228Y-96730D01*
X74578Y-99380D01*
X64043D01*
X63943Y-98878D01*
X63534Y-98266D01*
X62922Y-97857D01*
X62200Y-97714D01*
X61478Y-97857D01*
X61121Y-98096D01*
X60560Y-97894D01*
X60519Y-97723D01*
X63322Y-94920D01*
X70278D01*
X71137Y-95779D01*
D02*
G37*
G36*
X10833Y-358D02*
X10917Y-449D01*
X10981Y-545D01*
X11171Y-829D01*
X11551Y-1083D01*
X12000Y-1173D01*
X171900D01*
Y-156200D01*
X168200Y-159900D01*
X146900D01*
X145400Y-158400D01*
Y-153000D01*
X143900Y-151500D01*
X126700D01*
X123196Y-155004D01*
X122734Y-154812D01*
Y-153381D01*
X122684Y-153128D01*
X122540Y-152912D01*
X122325Y-152769D01*
X122072Y-152718D01*
X118528D01*
X118275Y-152769D01*
X118060Y-152912D01*
X117916Y-153128D01*
X117866Y-153381D01*
Y-153630D01*
X117396Y-154029D01*
X117240Y-154013D01*
X117025Y-153869D01*
X116772Y-153818D01*
X113228D01*
X112975Y-153869D01*
X112760Y-154013D01*
X112616Y-154227D01*
X112147Y-154098D01*
X112186Y-153900D01*
X112043Y-153178D01*
X111634Y-152566D01*
X111022Y-152157D01*
X110844Y-152122D01*
X110698Y-151643D01*
X112621Y-149721D01*
X112842Y-149390D01*
X112920Y-149000D01*
Y-128920D01*
X114123D01*
X114466Y-129434D01*
X115078Y-129843D01*
X115800Y-129986D01*
X116522Y-129843D01*
X117134Y-129434D01*
X117543Y-128822D01*
X117686Y-128100D01*
X117543Y-127378D01*
X117134Y-126766D01*
X116522Y-126357D01*
X115800Y-126214D01*
X115078Y-126357D01*
X114466Y-126766D01*
X114390Y-126880D01*
X112322D01*
X105365Y-119923D01*
X105530Y-119381D01*
X105722Y-119343D01*
X106334Y-118934D01*
X106538Y-118628D01*
X106974Y-118786D01*
X107016Y-118812D01*
X107157Y-119522D01*
X107566Y-120134D01*
X108178Y-120543D01*
X108900Y-120686D01*
X109622Y-120543D01*
X110234Y-120134D01*
X110643Y-119522D01*
X110786Y-118800D01*
X110643Y-118078D01*
X110234Y-117466D01*
X109622Y-117057D01*
X108900Y-116914D01*
X108602Y-116973D01*
X108211Y-116645D01*
X108142Y-116299D01*
X107921Y-115968D01*
X107920Y-115966D01*
Y-113800D01*
X107842Y-113410D01*
X107621Y-113079D01*
X107204Y-112662D01*
Y-112298D01*
X107562Y-111863D01*
X108743D01*
X108997Y-111812D01*
X109137Y-111719D01*
X109277Y-111812D01*
X109531Y-111863D01*
X110712D01*
X110965Y-111812D01*
X111106Y-111719D01*
X111246Y-111812D01*
X111499Y-111863D01*
X112680D01*
X113039Y-112298D01*
Y-114458D01*
X113116Y-114848D01*
X113337Y-115179D01*
X113688Y-115529D01*
X113614Y-115900D01*
X113757Y-116622D01*
X114166Y-117234D01*
X114778Y-117643D01*
X115500Y-117786D01*
X116222Y-117643D01*
X116834Y-117234D01*
X117243Y-116622D01*
X117386Y-115900D01*
X117243Y-115178D01*
X116834Y-114566D01*
X116222Y-114157D01*
X115500Y-114014D01*
X115078Y-113588D01*
Y-112298D01*
X115436Y-111863D01*
X116617D01*
X116871Y-111812D01*
X117086Y-111669D01*
X117230Y-111454D01*
X117280Y-111200D01*
Y-106476D01*
X117230Y-106222D01*
X117086Y-106007D01*
X116871Y-105863D01*
X116617Y-105813D01*
X115436D01*
X115183Y-105863D01*
X115042Y-105957D01*
X114902Y-105863D01*
X114649Y-105813D01*
X113468D01*
X113214Y-105863D01*
X113074Y-105957D01*
X112934Y-105863D01*
X112680Y-105813D01*
X111499D01*
X111141Y-105378D01*
Y-100121D01*
X111063Y-99731D01*
X110842Y-99400D01*
X108898Y-97456D01*
X108843Y-97178D01*
X108434Y-96566D01*
X107822Y-96157D01*
X107100Y-96014D01*
X106378Y-96157D01*
X105766Y-96566D01*
X105735Y-96613D01*
X105235Y-96461D01*
Y-91507D01*
X118621Y-78121D01*
X118842Y-77790D01*
X118920Y-77400D01*
Y-71500D01*
X118842Y-71110D01*
X118621Y-70779D01*
X118613Y-70771D01*
X118686Y-70400D01*
X118543Y-69678D01*
X118134Y-69066D01*
X117522Y-68657D01*
X116800Y-68514D01*
X116078Y-68657D01*
X115466Y-69066D01*
X115057Y-69678D01*
X114914Y-70400D01*
X115057Y-71122D01*
X115228Y-71378D01*
X114998Y-71934D01*
X114878Y-71957D01*
X114266Y-72366D01*
X113857Y-72978D01*
X113714Y-73700D01*
X113857Y-74422D01*
X114209Y-74949D01*
X97589Y-91569D01*
X97368Y-91900D01*
X97291Y-92290D01*
Y-105378D01*
X96932Y-105813D01*
X95751D01*
X95498Y-105863D01*
X95358Y-105957D01*
X95217Y-105863D01*
X94964Y-105813D01*
X93783D01*
X93529Y-105863D01*
X93389Y-105957D01*
X93249Y-105863D01*
X92995Y-105813D01*
X91814D01*
X91561Y-105863D01*
X91421Y-105957D01*
X91280Y-105863D01*
X91027Y-105813D01*
X89846D01*
X89592Y-105863D01*
X89377Y-106007D01*
X89233Y-106222D01*
X89183Y-106476D01*
Y-108649D01*
X86939Y-110893D01*
X86459Y-110666D01*
X86343Y-110078D01*
X85934Y-109466D01*
X85322Y-109057D01*
X85305Y-109054D01*
X85200Y-108523D01*
X85334Y-108434D01*
X85743Y-107822D01*
X85886Y-107100D01*
X85743Y-106378D01*
X85334Y-105766D01*
X84722Y-105357D01*
X84000Y-105214D01*
X83278Y-105357D01*
X82666Y-105766D01*
X82257Y-106378D01*
X82114Y-107100D01*
X82187Y-107471D01*
X81478Y-108180D01*
X63500D01*
X63110Y-108258D01*
X62779Y-108479D01*
X43979Y-127279D01*
X43758Y-127610D01*
X43680Y-128000D01*
Y-145078D01*
X41378Y-147380D01*
X23280D01*
X23199Y-147260D01*
X22984Y-147116D01*
X22731Y-147066D01*
X19975D01*
X19721Y-147116D01*
X19506Y-147260D01*
X19363Y-147475D01*
X19312Y-147728D01*
Y-151272D01*
X19363Y-151525D01*
X19506Y-151740D01*
X19721Y-151884D01*
X19975Y-151934D01*
X22731D01*
X22897Y-151901D01*
X23106Y-152136D01*
X23192Y-152314D01*
X17040Y-158466D01*
X14669D01*
X14416Y-158516D01*
X14201Y-158660D01*
X14057Y-158875D01*
X14007Y-159128D01*
Y-161362D01*
X13507Y-161629D01*
X13463Y-161600D01*
Y-152250D01*
X13563Y-152145D01*
X13963Y-151913D01*
X14069Y-151934D01*
X16825D01*
X17079Y-151884D01*
X17294Y-151740D01*
X17437Y-151525D01*
X17488Y-151272D01*
Y-148554D01*
X19722Y-146320D01*
X29887D01*
X30001Y-146490D01*
X30216Y-146634D01*
X30469Y-146684D01*
X33225D01*
X33479Y-146634D01*
X33694Y-146490D01*
X33838Y-146275D01*
X33888Y-146022D01*
Y-142478D01*
X33838Y-142225D01*
X33694Y-142010D01*
X33479Y-141866D01*
X33225Y-141816D01*
X30533D01*
X30417Y-141664D01*
X30303Y-141339D01*
X32508Y-139134D01*
X33225D01*
X33479Y-139084D01*
X33694Y-138940D01*
X33838Y-138725D01*
X33888Y-138472D01*
Y-134928D01*
X33838Y-134675D01*
X33694Y-134460D01*
X33479Y-134316D01*
X33225Y-134266D01*
X30469D01*
X30216Y-134316D01*
X30001Y-134460D01*
X29857Y-134675D01*
X29807Y-134928D01*
Y-138472D01*
X29857Y-138725D01*
X29927Y-138831D01*
X26478Y-142280D01*
X24264D01*
X24057Y-141780D01*
X24618Y-141219D01*
X24654Y-141212D01*
X24869Y-141069D01*
X25012Y-140854D01*
X25063Y-140600D01*
Y-134175D01*
X27275Y-131963D01*
X32600D01*
X32854Y-131912D01*
X33069Y-131769D01*
X42969Y-121869D01*
X43112Y-121654D01*
X43163Y-121400D01*
Y-114795D01*
X43229Y-114708D01*
X43663Y-114435D01*
X43719Y-114446D01*
X46081D01*
X46335Y-114396D01*
X46550Y-114252D01*
X46990D01*
X47205Y-114396D01*
X47459Y-114446D01*
X49821D01*
X50075Y-114396D01*
X50290Y-114252D01*
X50433Y-114037D01*
X50484Y-113784D01*
Y-109846D01*
X50433Y-109593D01*
X50290Y-109378D01*
X50075Y-109234D01*
X49821Y-109184D01*
X48569D01*
X48515Y-109120D01*
X48678Y-108726D01*
X48808Y-108620D01*
X54880D01*
X55270Y-108542D01*
X55601Y-108321D01*
X60021Y-103901D01*
X60242Y-103570D01*
X60320Y-103180D01*
Y-101016D01*
X60820Y-100864D01*
X60866Y-100934D01*
X61478Y-101343D01*
X62200Y-101486D01*
X62767Y-101373D01*
X62844Y-101389D01*
X62973Y-101837D01*
X62968Y-101907D01*
X62945Y-101922D01*
X62536Y-102534D01*
X62392Y-103256D01*
X62536Y-103978D01*
X62945Y-104590D01*
X63557Y-104999D01*
X64279Y-105142D01*
X64848Y-105029D01*
X65001Y-104999D01*
X65457Y-105295D01*
X65460Y-105299D01*
X65675Y-105443D01*
X65928Y-105493D01*
X69472D01*
X69725Y-105443D01*
X69940Y-105299D01*
X70084Y-105084D01*
X70134Y-104831D01*
Y-104521D01*
X77644D01*
X78128Y-104425D01*
X78539Y-104150D01*
X80460Y-102229D01*
X82562D01*
X82620Y-102217D01*
X84924D01*
X85178Y-102167D01*
X85393Y-102023D01*
X85537Y-101808D01*
X85587Y-101554D01*
Y-100373D01*
X85537Y-100120D01*
X85393Y-99905D01*
X85178Y-99761D01*
X84924Y-99711D01*
X82620D01*
X82562Y-99699D01*
X79936D01*
X79452Y-99795D01*
X79042Y-100069D01*
X77120Y-101991D01*
X70600D01*
X70579Y-101914D01*
X70965Y-101420D01*
X75000D01*
X75390Y-101342D01*
X75721Y-101121D01*
X78796Y-98046D01*
X79705D01*
X79731Y-98086D01*
X79946Y-98230D01*
X80200Y-98280D01*
X84924D01*
X85178Y-98230D01*
X85393Y-98086D01*
X85537Y-97871D01*
X85587Y-97617D01*
Y-96436D01*
X85537Y-96183D01*
X85443Y-96043D01*
X85537Y-95902D01*
X85587Y-95649D01*
Y-94468D01*
X85537Y-94214D01*
X85443Y-94074D01*
X85537Y-93934D01*
X85587Y-93680D01*
Y-92499D01*
X85537Y-92246D01*
X85443Y-92106D01*
X85537Y-91965D01*
X85587Y-91712D01*
Y-90531D01*
X85537Y-90277D01*
X85932Y-89968D01*
X86054Y-89959D01*
X86478Y-90243D01*
X87200Y-90386D01*
X87922Y-90243D01*
X88534Y-89834D01*
X88943Y-89222D01*
X89086Y-88500D01*
X88943Y-87778D01*
X88534Y-87166D01*
X87922Y-86757D01*
X87200Y-86614D01*
X86829Y-86687D01*
X86621Y-86479D01*
X86290Y-86258D01*
X85999Y-86200D01*
X85652Y-85883D01*
X85587Y-85806D01*
Y-84625D01*
X85537Y-84372D01*
X85443Y-84232D01*
X85537Y-84091D01*
X85587Y-83838D01*
Y-82657D01*
X85537Y-82403D01*
X85443Y-82263D01*
X85537Y-82123D01*
X85587Y-81869D01*
Y-80688D01*
X85537Y-80435D01*
X85443Y-80295D01*
X85537Y-80154D01*
X85587Y-79901D01*
Y-78720D01*
X85537Y-78466D01*
X85443Y-78326D01*
X85537Y-78186D01*
X85587Y-77932D01*
Y-76751D01*
X85537Y-76498D01*
X85443Y-76358D01*
X85537Y-76217D01*
X85587Y-75964D01*
Y-74783D01*
X85537Y-74529D01*
X85443Y-74389D01*
X85537Y-74249D01*
X85587Y-73995D01*
Y-72814D01*
X85537Y-72561D01*
X85443Y-72421D01*
X85537Y-72280D01*
X85587Y-72027D01*
Y-70846D01*
X85537Y-70592D01*
X85393Y-70377D01*
X85178Y-70233D01*
X84924Y-70183D01*
X84657D01*
X84370Y-69683D01*
X84486Y-69100D01*
X84343Y-68378D01*
X83934Y-67766D01*
X83322Y-67357D01*
X82600Y-67214D01*
X81878Y-67357D01*
X81266Y-67766D01*
X80857Y-68378D01*
X80714Y-69100D01*
X80830Y-69683D01*
X80543Y-70183D01*
X80200D01*
X79946Y-70233D01*
X79731Y-70377D01*
X79588Y-70592D01*
X79537Y-70846D01*
Y-71142D01*
X79075Y-71333D01*
X76121Y-68379D01*
X75790Y-68158D01*
X75493Y-68099D01*
Y-67328D01*
X75443Y-67075D01*
X75299Y-66860D01*
X75084Y-66716D01*
X74831Y-66666D01*
X74472D01*
Y-65953D01*
X74395Y-65563D01*
X74394Y-65562D01*
X74486Y-65100D01*
X74343Y-64378D01*
X73934Y-63766D01*
X73322Y-63357D01*
X72600Y-63214D01*
X71878Y-63357D01*
X71266Y-63766D01*
X70857Y-64378D01*
X70714Y-65100D01*
X70857Y-65822D01*
X71266Y-66434D01*
X71606Y-66661D01*
Y-66860D01*
X71463Y-67075D01*
X71412Y-67328D01*
Y-70872D01*
X71463Y-71125D01*
X71606Y-71340D01*
X71821Y-71484D01*
X72075Y-71534D01*
X74831D01*
X75084Y-71484D01*
X75299Y-71340D01*
X75376Y-71225D01*
X75783Y-71109D01*
X75958Y-71100D01*
X78712Y-73854D01*
X78505Y-74354D01*
X75393D01*
Y-73228D01*
X75343Y-72975D01*
X75199Y-72760D01*
X74984Y-72616D01*
X74731Y-72566D01*
X71975D01*
X71721Y-72616D01*
X71506Y-72760D01*
X71363Y-72975D01*
X71328Y-73148D01*
X70778Y-73257D01*
X70166Y-73666D01*
X69757Y-74278D01*
X69614Y-75000D01*
X69757Y-75722D01*
X70166Y-76334D01*
X70778Y-76743D01*
X71328Y-76852D01*
X71363Y-77025D01*
X71506Y-77240D01*
X71721Y-77384D01*
X71975Y-77434D01*
X74717D01*
X74746Y-77465D01*
X74959Y-77899D01*
X72678Y-80180D01*
X68700D01*
X68310Y-80258D01*
X68106Y-80394D01*
X67700Y-80314D01*
X66978Y-80457D01*
X66366Y-80866D01*
X65957Y-81478D01*
X65814Y-82200D01*
X65957Y-82922D01*
X66366Y-83534D01*
X66978Y-83943D01*
X67700Y-84086D01*
X68422Y-83943D01*
X69034Y-83534D01*
X69443Y-82922D01*
X69582Y-82220D01*
X73100D01*
X73490Y-82142D01*
X73821Y-81921D01*
X77381Y-78361D01*
X79102D01*
X79537Y-78720D01*
Y-79901D01*
X79588Y-80154D01*
X79681Y-80295D01*
X79588Y-80435D01*
X79537Y-80688D01*
Y-81869D01*
X79588Y-82123D01*
X79681Y-82263D01*
X79588Y-82403D01*
X79537Y-82657D01*
Y-82851D01*
X79037Y-83261D01*
X78800Y-83214D01*
X78078Y-83357D01*
X77466Y-83766D01*
X77057Y-84378D01*
X76914Y-85100D01*
X77057Y-85822D01*
X77466Y-86434D01*
X78078Y-86843D01*
X78800Y-86986D01*
X79037Y-86939D01*
X79486Y-87307D01*
X79486Y-87817D01*
X79102Y-88133D01*
X51775D01*
X45772Y-82130D01*
Y-48634D01*
X46131D01*
X46384Y-48584D01*
X46599Y-48440D01*
X46743Y-48225D01*
X46793Y-47972D01*
Y-44428D01*
X46743Y-44175D01*
X46599Y-43960D01*
X46384Y-43816D01*
X46131Y-43766D01*
X45772D01*
Y-37326D01*
X49353D01*
X49606Y-37276D01*
X49821Y-37132D01*
X49965Y-36917D01*
X50015Y-36664D01*
Y-24853D01*
X49965Y-24599D01*
X49821Y-24384D01*
X49606Y-24240D01*
X49353Y-24190D01*
X43559D01*
X43389Y-23921D01*
X43340Y-23701D01*
X47658Y-19384D01*
X47979Y-19416D01*
X48194Y-19559D01*
X48447Y-19610D01*
X54353D01*
X54606Y-19559D01*
X54821Y-19416D01*
X54965Y-19201D01*
X55015Y-18947D01*
Y-7136D01*
X54965Y-6883D01*
X54821Y-6668D01*
X54606Y-6524D01*
X54353Y-6474D01*
X48447D01*
X48194Y-6524D01*
X47979Y-6668D01*
X47835Y-6883D01*
X47785Y-7136D01*
Y-16374D01*
X41526Y-22632D01*
X28121Y-9226D01*
X27790Y-9005D01*
X27400Y-8928D01*
X22175D01*
Y-8569D01*
X22125Y-8316D01*
X21981Y-8101D01*
X21766Y-7957D01*
X21513Y-7907D01*
X17969D01*
X17716Y-7957D01*
X17501Y-8101D01*
X17357Y-8316D01*
X17307Y-8569D01*
Y-11325D01*
X17357Y-11579D01*
X17501Y-11794D01*
X17716Y-11937D01*
X17969Y-11988D01*
X21513D01*
X21766Y-11937D01*
X21981Y-11794D01*
X22125Y-11579D01*
X22175Y-11325D01*
Y-10967D01*
X26978D01*
X29486Y-13475D01*
X29295Y-13937D01*
X21878D01*
X21766Y-13862D01*
X21513Y-13812D01*
X17969D01*
X17716Y-13862D01*
X17604Y-13937D01*
X7200D01*
X6946Y-13988D01*
X6731Y-14131D01*
X6588Y-14346D01*
X6537Y-14600D01*
Y-47900D01*
X6588Y-48154D01*
X6731Y-48369D01*
X6946Y-48512D01*
X7200Y-48563D01*
X19769D01*
X20022Y-48512D01*
X20237Y-48369D01*
X20381Y-48154D01*
X20432Y-47900D01*
Y-46596D01*
X20442Y-46542D01*
X20497Y-46531D01*
X21154D01*
X21208Y-46542D01*
D01*
X21219Y-46596D01*
Y-47900D01*
X21269Y-48154D01*
X21413Y-48369D01*
X21628Y-48512D01*
X21882Y-48563D01*
X21963D01*
X22006Y-48571D01*
X22794D01*
X22837Y-48563D01*
X23538D01*
X23581Y-48571D01*
X24369D01*
X24412Y-48563D01*
X37184D01*
X37216Y-48584D01*
X37469Y-48634D01*
X40225D01*
X40280Y-48623D01*
X40715Y-48897D01*
X40780Y-48984D01*
Y-52800D01*
X40858Y-53190D01*
X41079Y-53521D01*
X41880Y-54322D01*
Y-83500D01*
X41958Y-83890D01*
X42179Y-84221D01*
X49182Y-91224D01*
X49513Y-91445D01*
X49903Y-91522D01*
X61149D01*
X61356Y-92022D01*
X61189Y-92189D01*
X61189Y-92189D01*
X57179Y-96199D01*
X56958Y-96530D01*
X56880Y-96920D01*
Y-102178D01*
X53878Y-105180D01*
X49112D01*
X48773Y-104813D01*
X49361Y-104225D01*
X49582Y-103894D01*
X49597Y-103816D01*
X49821D01*
X50075Y-103766D01*
X50290Y-103622D01*
X50433Y-103407D01*
X50484Y-103154D01*
Y-99217D01*
X50433Y-98963D01*
X50290Y-98748D01*
X50075Y-98604D01*
X49821Y-98554D01*
X47459D01*
X47205Y-98604D01*
X46990Y-98748D01*
X46550D01*
X46335Y-98604D01*
X46081Y-98554D01*
X43719D01*
X43465Y-98604D01*
X43250Y-98748D01*
X43107Y-98963D01*
X43056Y-99217D01*
Y-103154D01*
X43107Y-103407D01*
X43250Y-103622D01*
X43465Y-103766D01*
X43719Y-103816D01*
X43943D01*
X43958Y-103894D01*
X44179Y-104225D01*
X44929Y-104974D01*
X44926Y-105474D01*
X44527Y-105790D01*
X44480Y-105780D01*
X31509D01*
X30001Y-104272D01*
X29670Y-104051D01*
X29280Y-103973D01*
X27141D01*
X26860Y-103692D01*
X26675Y-103569D01*
X26577Y-103332D01*
X26536Y-103108D01*
X26539Y-102963D01*
X26612Y-102854D01*
X26663Y-102600D01*
Y-101398D01*
X26657Y-101368D01*
X26660Y-101337D01*
X26632Y-101242D01*
X26612Y-101144D01*
X26595Y-101119D01*
X26587Y-101089D01*
X26524Y-101012D01*
X26469Y-100929D01*
X26443Y-100912D01*
X26424Y-100888D01*
X26415Y-100881D01*
X26401Y-100813D01*
X26258Y-100598D01*
X26043Y-100455D01*
X25808Y-100408D01*
X25786Y-100399D01*
X25703Y-100353D01*
X25668Y-100350D01*
X25635Y-100336D01*
X25540D01*
X25445Y-100326D01*
X25412Y-100336D01*
X25376D01*
X25035Y-100404D01*
X23787D01*
X23012Y-100250D01*
X22947D01*
X22883Y-100237D01*
X22174D01*
X21863Y-99926D01*
Y-96574D01*
X26469Y-91969D01*
X26612Y-91754D01*
X26663Y-91500D01*
Y-51300D01*
X26612Y-51046D01*
X26469Y-50831D01*
X26254Y-50688D01*
X26000Y-50637D01*
X23614D01*
X23581Y-50644D01*
X23549Y-50640D01*
X23455Y-50669D01*
X23360Y-50688D01*
X23333Y-50706D01*
X23301Y-50716D01*
X23226Y-50777D01*
X23145Y-50831D01*
X23047Y-50879D01*
X22794Y-50829D01*
X22006D01*
X21753Y-50879D01*
X21655Y-50831D01*
X21574Y-50777D01*
X21499Y-50716D01*
X21467Y-50706D01*
X21440Y-50688D01*
X21345Y-50669D01*
X21251Y-50640D01*
X21219Y-50644D01*
X21186Y-50637D01*
X7400D01*
X7146Y-50688D01*
X6931Y-50831D01*
X6788Y-51046D01*
X6737Y-51300D01*
Y-100179D01*
X6759Y-100288D01*
X6775Y-100398D01*
X6784Y-100414D01*
X6788Y-100433D01*
X6850Y-100525D01*
X6906Y-100621D01*
X6921Y-100632D01*
X6931Y-100648D01*
X7024Y-100709D01*
X7113Y-100776D01*
X7483Y-100954D01*
X7570Y-100976D01*
X7653Y-101009D01*
X7694Y-101008D01*
X7733Y-101018D01*
X7822Y-101006D01*
X7912Y-101004D01*
X7949Y-100988D01*
X7989Y-100982D01*
X8066Y-100936D01*
X8149Y-100900D01*
X8576Y-100602D01*
X8617Y-100560D01*
X8666Y-100527D01*
X8706Y-100468D01*
X8755Y-100416D01*
X8777Y-100361D01*
X8809Y-100312D01*
X8823Y-100242D01*
X8850Y-100175D01*
X8848Y-100116D01*
X8860Y-100059D01*
Y-98967D01*
X8871Y-98912D01*
X8925Y-98902D01*
X16275D01*
X16329Y-98912D01*
X16340Y-98967D01*
Y-105923D01*
X16329Y-105977D01*
X16275Y-105988D01*
X8925D01*
X8871Y-105977D01*
X8860Y-105923D01*
Y-104741D01*
X8848Y-104684D01*
X8850Y-104625D01*
X8823Y-104558D01*
X8809Y-104488D01*
X8777Y-104439D01*
X8755Y-104384D01*
X8706Y-104332D01*
X8666Y-104273D01*
X8617Y-104240D01*
X8576Y-104198D01*
X8149Y-103900D01*
X8066Y-103864D01*
X7989Y-103818D01*
X7949Y-103812D01*
X7912Y-103796D01*
X7822Y-103794D01*
X7733Y-103782D01*
X7694Y-103792D01*
X7653Y-103791D01*
X7570Y-103824D01*
X7483Y-103846D01*
X7113Y-104024D01*
X7024Y-104090D01*
X6931Y-104152D01*
X6921Y-104168D01*
X6906Y-104179D01*
X6850Y-104275D01*
X6788Y-104367D01*
X6784Y-104386D01*
X6775Y-104402D01*
X6759Y-104512D01*
X6737Y-104621D01*
Y-109545D01*
X6758Y-109647D01*
X6770Y-109751D01*
X6783Y-109773D01*
X6788Y-109798D01*
X6846Y-109885D01*
X6898Y-109977D01*
X6917Y-109992D01*
X6931Y-110013D01*
X7019Y-110071D01*
X7101Y-110136D01*
X7440Y-110307D01*
X7514Y-110328D01*
X7585Y-110360D01*
X7638Y-110362D01*
X7689Y-110377D01*
X7766Y-110367D01*
X7843Y-110370D01*
X7893Y-110352D01*
X7946Y-110345D01*
X8013Y-110307D01*
X8086Y-110280D01*
X8544Y-109999D01*
X8601Y-109946D01*
X8666Y-109903D01*
X8695Y-109859D01*
X8734Y-109823D01*
X8766Y-109753D01*
X8809Y-109688D01*
X8820Y-109636D01*
X8842Y-109588D01*
X8845Y-109511D01*
X8860Y-109434D01*
Y-108022D01*
X8871Y-107967D01*
X8925Y-107957D01*
X16275D01*
X16329Y-107967D01*
X16340Y-108022D01*
Y-114978D01*
X16329Y-115032D01*
X16275Y-115043D01*
X8925D01*
X8871Y-115032D01*
X8860Y-114978D01*
Y-113966D01*
X8845Y-113890D01*
X8842Y-113812D01*
X8820Y-113764D01*
X8809Y-113712D01*
X8766Y-113647D01*
X8734Y-113577D01*
X8695Y-113541D01*
X8666Y-113497D01*
X8601Y-113454D01*
X8544Y-113401D01*
X8086Y-113120D01*
X8013Y-113093D01*
X7946Y-113055D01*
X7893Y-113048D01*
X7843Y-113030D01*
X7766Y-113033D01*
X7689Y-113023D01*
X7638Y-113038D01*
X7585Y-113040D01*
X7514Y-113072D01*
X7440Y-113093D01*
X7101Y-113264D01*
X7019Y-113329D01*
X6931Y-113387D01*
X6917Y-113408D01*
X6898Y-113423D01*
X6846Y-113515D01*
X6788Y-113602D01*
X6783Y-113627D01*
X6770Y-113649D01*
X6758Y-113753D01*
X6737Y-113856D01*
Y-168900D01*
X6788Y-169154D01*
X6931Y-169369D01*
X7146Y-169512D01*
X7400Y-169563D01*
X31778D01*
X31866Y-169669D01*
Y-172425D01*
X31916Y-172679D01*
X32060Y-172894D01*
X32275Y-173038D01*
X32528Y-173088D01*
X36072D01*
X36325Y-173038D01*
X36540Y-172894D01*
X36999Y-172790D01*
X37721Y-172933D01*
X38443Y-172790D01*
X39055Y-172381D01*
X39464Y-171769D01*
X39557Y-171301D01*
X40095Y-171133D01*
X49531Y-180569D01*
X49746Y-180712D01*
X50000Y-180763D01*
X78600D01*
X78854Y-180712D01*
X79069Y-180569D01*
X79575Y-180063D01*
X84700D01*
X84954Y-180012D01*
X85169Y-179869D01*
X85469Y-179569D01*
X85612Y-179354D01*
X85663Y-179100D01*
Y-174156D01*
X85737Y-174107D01*
X86237Y-174374D01*
Y-175644D01*
X86232Y-175669D01*
Y-178819D01*
X86283Y-179072D01*
X86426Y-179288D01*
X86641Y-179431D01*
X86895Y-179482D01*
X90438D01*
X90533Y-179463D01*
X92333D01*
X92428Y-179482D01*
X95972D01*
X96380Y-179883D01*
X96380Y-179883D01*
Y-187266D01*
X95369D01*
X95116Y-187316D01*
X94901Y-187460D01*
X94757Y-187675D01*
X94707Y-187928D01*
Y-191472D01*
X94757Y-191725D01*
X94901Y-191940D01*
X95116Y-192084D01*
X95369Y-192134D01*
X95925D01*
Y-194466D01*
X95369D01*
X95116Y-194516D01*
X94901Y-194660D01*
X94757Y-194875D01*
X94707Y-195128D01*
Y-198672D01*
X94757Y-198925D01*
X94901Y-199140D01*
X95116Y-199284D01*
X95369Y-199334D01*
X98519D01*
X98773Y-199284D01*
X98988Y-199140D01*
X99131Y-198925D01*
X99182Y-198672D01*
Y-195128D01*
X99131Y-194875D01*
X98988Y-194660D01*
X98773Y-194516D01*
X98519Y-194466D01*
X97964D01*
Y-192134D01*
X98519D01*
X98773Y-192084D01*
X98988Y-191940D01*
X99131Y-191725D01*
X99182Y-191472D01*
Y-187928D01*
X99131Y-187675D01*
X98988Y-187460D01*
X98773Y-187316D01*
X98519Y-187266D01*
X98420D01*
Y-174200D01*
X98342Y-173810D01*
X98121Y-173479D01*
X97104Y-172462D01*
Y-165212D01*
X97143Y-165186D01*
X97287Y-164971D01*
X97338Y-164717D01*
Y-161371D01*
X97287Y-161117D01*
X97143Y-160902D01*
X96928Y-160759D01*
X96675Y-160708D01*
X95494D01*
X95240Y-160759D01*
X95100Y-160852D01*
X94960Y-160759D01*
X94706Y-160708D01*
X93525D01*
X93379Y-160737D01*
X92884D01*
X92738Y-160708D01*
X91557D01*
X91303Y-160759D01*
X91231Y-160807D01*
X91054Y-160688D01*
X90800Y-160637D01*
X89600D01*
X89346Y-160688D01*
X89147Y-160821D01*
X89054Y-160759D01*
X88801Y-160708D01*
X87692D01*
Y-159599D01*
X87641Y-159346D01*
X87548Y-159205D01*
X87641Y-159065D01*
X87692Y-158812D01*
Y-157631D01*
X87641Y-157377D01*
X87548Y-157237D01*
X87641Y-157097D01*
X87692Y-156843D01*
Y-155662D01*
X87641Y-155409D01*
X87498Y-155194D01*
X87283Y-155050D01*
X87029Y-154999D01*
X83683D01*
X83429Y-155050D01*
X83337Y-155111D01*
X83034Y-154734D01*
X83443Y-154122D01*
X83533Y-153669D01*
X83683Y-153569D01*
X87029D01*
X87283Y-153519D01*
X87498Y-153375D01*
X87641Y-153160D01*
X87692Y-152906D01*
Y-151725D01*
X87641Y-151472D01*
X87548Y-151331D01*
X87641Y-151191D01*
X87692Y-150938D01*
Y-149757D01*
X87641Y-149503D01*
X87548Y-149363D01*
X87641Y-149223D01*
X87692Y-148969D01*
Y-147788D01*
X87641Y-147535D01*
X87548Y-147395D01*
X87641Y-147254D01*
X87692Y-147001D01*
Y-145892D01*
X88801D01*
X89054Y-145841D01*
X89195Y-145748D01*
X89335Y-145841D01*
X89588Y-145892D01*
X90769D01*
X91023Y-145841D01*
X91163Y-145748D01*
X91303Y-145841D01*
X91557Y-145892D01*
X92738D01*
X92991Y-145841D01*
X93132Y-145748D01*
X93272Y-145841D01*
X93525Y-145892D01*
X94706D01*
X94960Y-145841D01*
X95100Y-145748D01*
X95240Y-145841D01*
X95494Y-145892D01*
X96675D01*
X96928Y-145841D01*
X97069Y-145748D01*
X97209Y-145841D01*
X97462Y-145892D01*
X98643D01*
X98897Y-145841D01*
X99037Y-145748D01*
X99177Y-145841D01*
X99431Y-145892D01*
X100612D01*
X100865Y-145841D01*
X101005Y-145748D01*
X101146Y-145841D01*
X101399Y-145892D01*
X102508D01*
Y-147001D01*
X102559Y-147254D01*
X102702Y-147469D01*
X102917Y-147613D01*
X103171Y-147663D01*
X104786D01*
X104844Y-147675D01*
X104902Y-147663D01*
X106517D01*
X106771Y-147613D01*
X106986Y-147469D01*
X107130Y-147254D01*
X107180Y-147001D01*
Y-145820D01*
X107177Y-145806D01*
X107734Y-145434D01*
X108143Y-144822D01*
X108286Y-144100D01*
X108143Y-143378D01*
X107734Y-142766D01*
X107122Y-142357D01*
X106400Y-142214D01*
X105678Y-142357D01*
X105066Y-142766D01*
X104657Y-143378D01*
X104514Y-144100D01*
X104530Y-144181D01*
X103950Y-144762D01*
X103743Y-145071D01*
X103243Y-145013D01*
Y-141883D01*
X103193Y-141629D01*
X103049Y-141414D01*
X103009Y-141388D01*
Y-123458D01*
X103509Y-123251D01*
X109180Y-128922D01*
Y-147578D01*
X107475Y-149284D01*
X106986Y-149288D01*
X106771Y-149144D01*
X106517Y-149094D01*
X103171D01*
X102917Y-149144D01*
X102702Y-149288D01*
X102559Y-149503D01*
X102508Y-149757D01*
Y-150938D01*
X102559Y-151191D01*
X102652Y-151331D01*
X102559Y-151472D01*
X102508Y-151725D01*
Y-152906D01*
X102559Y-153160D01*
X102652Y-153300D01*
X102559Y-153440D01*
X102508Y-153694D01*
Y-154875D01*
X102559Y-155128D01*
X102652Y-155269D01*
X102559Y-155409D01*
X102508Y-155662D01*
Y-156843D01*
X102559Y-157097D01*
X102702Y-157312D01*
X102917Y-157456D01*
X103171Y-157506D01*
X104786D01*
X104844Y-157518D01*
X107576D01*
X108453Y-158394D01*
X108863Y-158669D01*
X108871Y-158670D01*
X108822Y-159170D01*
X107012D01*
X106986Y-159131D01*
X106771Y-158987D01*
X106517Y-158937D01*
X103171D01*
X102917Y-158987D01*
X102702Y-159131D01*
X102559Y-159346D01*
X102508Y-159599D01*
Y-160708D01*
X101399D01*
X101146Y-160759D01*
X100931Y-160902D01*
X100787Y-161117D01*
X100736Y-161371D01*
Y-164717D01*
X100787Y-164971D01*
X100931Y-165186D01*
X100970Y-165212D01*
Y-183290D01*
X100953D01*
X101098Y-184389D01*
X101522Y-185413D01*
X102197Y-186293D01*
X102400Y-186448D01*
Y-187266D01*
X100881D01*
X100628Y-187316D01*
X100412Y-187460D01*
X100269Y-187675D01*
X100218Y-187928D01*
Y-191472D01*
X100269Y-191725D01*
X100412Y-191940D01*
X100628Y-192084D01*
X100881Y-192134D01*
X101436D01*
Y-194466D01*
X100881D01*
X100628Y-194516D01*
X100412Y-194660D01*
X100269Y-194875D01*
X100218Y-195128D01*
Y-198672D01*
X100269Y-198925D01*
X100412Y-199140D01*
X100628Y-199284D01*
X100881Y-199334D01*
X102400D01*
Y-202200D01*
X104400Y-204200D01*
X151300D01*
Y-189700D01*
X171800D01*
X171800Y-220041D01*
X171341Y-220500D01*
X11500Y-220472D01*
X10515D01*
X8583Y-220088D01*
X6763Y-219334D01*
X5125Y-218240D01*
X3732Y-216847D01*
X2638Y-215209D01*
X1884Y-213389D01*
X1500Y-211457D01*
Y-210472D01*
Y-10100D01*
Y-9115D01*
X1884Y-7183D01*
X2638Y-5363D01*
X3732Y-3725D01*
X5125Y-2332D01*
X6763Y-1238D01*
X8583Y-484D01*
X10053Y-192D01*
X10344Y-134D01*
X10377Y-132D01*
X10833Y-358D01*
D02*
G37*
G36*
X43733Y-37523D02*
Y-43561D01*
X43233Y-43722D01*
X42885Y-43503D01*
X42820Y-43416D01*
Y-37628D01*
X42941Y-37514D01*
X43233Y-37350D01*
X43733Y-37523D01*
D02*
G37*
G36*
Y-48839D02*
Y-52584D01*
X43233Y-52791D01*
X42820Y-52378D01*
Y-48984D01*
X42885Y-48897D01*
X43233Y-48678D01*
X43733Y-48839D01*
D02*
G37*
G36*
X26000Y-91500D02*
X21200Y-96300D01*
Y-100200D01*
X21900Y-100900D01*
X22883D01*
X23769Y-101076D01*
X25053D01*
X25506Y-100986D01*
X26000Y-101398D01*
Y-102600D01*
X25700Y-102900D01*
X20000D01*
X19600Y-103300D01*
Y-116100D01*
X22200Y-118700D01*
X32300D01*
X35300Y-115700D01*
Y-111000D01*
X36600Y-109700D01*
X42200D01*
X42500Y-110000D01*
Y-121400D01*
X32600Y-131300D01*
X27000D01*
X24400Y-133900D01*
Y-140600D01*
X24300D01*
X23400Y-141500D01*
X19600D01*
X19000Y-140900D01*
Y-137100D01*
X18400Y-136500D01*
X14100D01*
X12800Y-137800D01*
Y-162300D01*
X14900Y-164400D01*
X42300D01*
X54300Y-176400D01*
X70400D01*
X71600Y-177600D01*
X73900D01*
X75800Y-175700D01*
Y-175400D01*
X76300Y-174900D01*
X80500D01*
X81100Y-174300D01*
Y-173300D01*
X87800Y-166600D01*
X89103Y-165297D01*
X89269Y-165186D01*
X89381Y-165019D01*
X89600Y-164800D01*
X89600Y-161300D01*
X90800D01*
Y-167700D01*
X85000Y-173500D01*
Y-179100D01*
X84700Y-179400D01*
X79300D01*
X78600Y-180100D01*
X50000D01*
X38800Y-168900D01*
X7400D01*
Y-113856D01*
X7739Y-113684D01*
X8197Y-113966D01*
Y-115043D01*
X8248Y-115297D01*
X8391Y-115512D01*
X8606Y-115656D01*
X8860Y-115706D01*
X16340D01*
X16594Y-115656D01*
X16809Y-115512D01*
X16952Y-115297D01*
X17003Y-115043D01*
Y-107957D01*
X16952Y-107703D01*
X16809Y-107488D01*
X16594Y-107344D01*
X16340Y-107294D01*
X8860D01*
X8606Y-107344D01*
X8391Y-107488D01*
X8248Y-107703D01*
X8197Y-107957D01*
Y-109434D01*
X7739Y-109716D01*
X7400Y-109545D01*
Y-104621D01*
X7770Y-104443D01*
X8197Y-104741D01*
Y-105988D01*
X8248Y-106242D01*
X8391Y-106457D01*
X8606Y-106600D01*
X8860Y-106651D01*
X16340D01*
X16594Y-106600D01*
X16809Y-106457D01*
X16952Y-106242D01*
X17003Y-105988D01*
Y-98902D01*
X16952Y-98648D01*
X16809Y-98433D01*
X16594Y-98289D01*
X16340Y-98239D01*
X8860D01*
X8606Y-98289D01*
X8391Y-98433D01*
X8248Y-98648D01*
X8197Y-98902D01*
Y-100059D01*
X7770Y-100357D01*
X7400Y-100179D01*
Y-51300D01*
X21186D01*
X21344Y-51491D01*
Y-52869D01*
X21394Y-53123D01*
X21538Y-53338D01*
X21753Y-53482D01*
X22006Y-53532D01*
X22794D01*
X23047Y-53482D01*
X23262Y-53338D01*
X23406Y-53123D01*
X23456Y-52869D01*
Y-51491D01*
X23614Y-51300D01*
X26000D01*
Y-91500D01*
D02*
G37*
G36*
X40400Y-24389D02*
Y-47600D01*
X40100Y-47900D01*
X21882D01*
Y-46531D01*
X21831Y-46277D01*
X21688Y-46062D01*
X21473Y-45918D01*
X21219Y-45868D01*
X20432D01*
X20178Y-45918D01*
X19963Y-46062D01*
X19819Y-46277D01*
X19769Y-46531D01*
Y-47900D01*
X7200D01*
Y-14600D01*
X30611D01*
X40400Y-24389D01*
D02*
G37*
G36*
X105766Y-99234D02*
X106269Y-99570D01*
X106242Y-100019D01*
X106216Y-100090D01*
X105878Y-100157D01*
X105735Y-100253D01*
X105235Y-99985D01*
Y-99339D01*
X105735Y-99187D01*
X105766Y-99234D01*
D02*
G37*
G36*
X109102Y-100544D02*
Y-103253D01*
X108602Y-103460D01*
X108111Y-102969D01*
X108343Y-102622D01*
X108486Y-101900D01*
X108343Y-101178D01*
X107934Y-100566D01*
X107431Y-100230D01*
X107458Y-99781D01*
X107484Y-99710D01*
X107822Y-99643D01*
X108049Y-99491D01*
X109102Y-100544D01*
D02*
G37*
G36*
X105878Y-103643D02*
X105906Y-103648D01*
X107133Y-104875D01*
Y-105378D01*
X106775Y-105813D01*
X105594D01*
X105235Y-105378D01*
Y-103814D01*
X105735Y-103547D01*
X105878Y-103643D01*
D02*
G37*
%LPC*%
G36*
X89572Y-123007D02*
X86028D01*
X85775Y-123057D01*
X85560Y-123201D01*
X85416Y-123416D01*
X85366Y-123669D01*
Y-126425D01*
X85416Y-126679D01*
X85560Y-126894D01*
X85775Y-127038D01*
X86028Y-127088D01*
X89572D01*
X89825Y-127038D01*
X90040Y-126894D01*
X90378Y-126743D01*
X91100Y-126886D01*
X91822Y-126743D01*
X92434Y-126334D01*
X92843Y-125722D01*
X92986Y-125000D01*
X92843Y-124278D01*
X92434Y-123666D01*
X91822Y-123257D01*
X91100Y-123114D01*
X90378Y-123257D01*
X90171Y-123396D01*
X90040Y-123201D01*
X89825Y-123057D01*
X89572Y-123007D01*
D02*
G37*
G36*
X115919Y-46266D02*
X112769D01*
X112516Y-46316D01*
X112301Y-46460D01*
X112157Y-46675D01*
X112153Y-46696D01*
X111664Y-46947D01*
X111607Y-46950D01*
X110923Y-46814D01*
X110201Y-46957D01*
X109589Y-47366D01*
X109180Y-47978D01*
X109037Y-48700D01*
X109180Y-49422D01*
X109589Y-50034D01*
X110201Y-50443D01*
X110923Y-50586D01*
X111607Y-50450D01*
X111664Y-50453D01*
X112153Y-50704D01*
X112157Y-50725D01*
X112301Y-50940D01*
X112516Y-51084D01*
X112769Y-51134D01*
X113079D01*
Y-53044D01*
X113175Y-53528D01*
X113450Y-53939D01*
X114762Y-55251D01*
Y-56388D01*
X114321Y-56624D01*
X114222Y-56557D01*
X113500Y-56414D01*
X112778Y-56557D01*
X112166Y-56966D01*
X111757Y-57578D01*
X111614Y-58300D01*
X111757Y-59022D01*
X112166Y-59634D01*
X112560Y-59897D01*
X112595Y-60037D01*
X112205Y-60537D01*
X111499D01*
X111246Y-60588D01*
X111106Y-60681D01*
X110965Y-60588D01*
X110712Y-60537D01*
X109531D01*
X109277Y-60588D01*
X109137Y-60681D01*
X108997Y-60588D01*
X108743Y-60537D01*
X107562D01*
X107309Y-60588D01*
X107168Y-60681D01*
X107028Y-60588D01*
X106775Y-60537D01*
X105594D01*
X105340Y-60588D01*
X105200Y-60681D01*
X105060Y-60588D01*
X104806Y-60537D01*
X103625D01*
X103372Y-60588D01*
X103232Y-60681D01*
X103091Y-60588D01*
X102838Y-60537D01*
X101657D01*
X101403Y-60588D01*
X101263Y-60681D01*
X101123Y-60588D01*
X100869Y-60537D01*
X99688D01*
X99330Y-60102D01*
Y-58112D01*
X100921Y-56521D01*
X101142Y-56190D01*
X101220Y-55800D01*
Y-55593D01*
X101972D01*
X102225Y-55543D01*
X102440Y-55399D01*
X102584Y-55184D01*
X102634Y-54931D01*
Y-52175D01*
X102584Y-51921D01*
X102440Y-51706D01*
X102225Y-51562D01*
X101972Y-51512D01*
X98428D01*
X98175Y-51562D01*
X97960Y-51706D01*
X97816Y-51921D01*
X97766Y-52175D01*
Y-54931D01*
X97816Y-55184D01*
X97960Y-55399D01*
X98175Y-55543D01*
X98286Y-55565D01*
X98510Y-56048D01*
X97589Y-56969D01*
X97368Y-57300D01*
X97291Y-57690D01*
Y-60102D01*
X96932Y-60537D01*
X95751D01*
X95393Y-60102D01*
Y-56973D01*
X95315Y-56583D01*
X95094Y-56252D01*
X94935Y-56093D01*
X95143Y-55593D01*
X95322D01*
X95575Y-55543D01*
X95790Y-55399D01*
X95934Y-55184D01*
X95984Y-54931D01*
Y-51781D01*
X95934Y-51528D01*
X95790Y-51313D01*
X95575Y-51169D01*
X95322Y-51118D01*
X91778D01*
X91525Y-51169D01*
X91310Y-51313D01*
X91166Y-51528D01*
X91116Y-51781D01*
Y-54931D01*
X91166Y-55184D01*
X91310Y-55399D01*
X91525Y-55543D01*
X91778Y-55593D01*
X92530D01*
Y-56150D01*
X92608Y-56540D01*
X92829Y-56871D01*
X93354Y-57396D01*
Y-60705D01*
X93314Y-60731D01*
X93170Y-60946D01*
X93120Y-61200D01*
Y-65924D01*
X93170Y-66178D01*
X93314Y-66393D01*
X93529Y-66537D01*
X93783Y-66587D01*
X94964D01*
X95217Y-66537D01*
X95358Y-66443D01*
X95498Y-66537D01*
X95751Y-66587D01*
X96932D01*
X97186Y-66537D01*
X97326Y-66443D01*
X97466Y-66537D01*
X97720Y-66587D01*
X98901D01*
X99154Y-66537D01*
X99295Y-66443D01*
X99435Y-66537D01*
X99688Y-66587D01*
X100869D01*
X101123Y-66537D01*
X101263Y-66443D01*
X101403Y-66537D01*
X101657Y-66587D01*
X102838D01*
X103091Y-66537D01*
X103232Y-66443D01*
X103372Y-66537D01*
X103625Y-66587D01*
X104806D01*
X105060Y-66537D01*
X105200Y-66443D01*
X105340Y-66537D01*
X105594Y-66587D01*
X106775D01*
X107028Y-66537D01*
X107168Y-66443D01*
X107309Y-66537D01*
X107562Y-66587D01*
X108743D01*
X108997Y-66537D01*
X109137Y-66443D01*
X109277Y-66537D01*
X109531Y-66587D01*
X110712D01*
X111070Y-67022D01*
Y-67797D01*
X110966Y-67866D01*
X110557Y-68478D01*
X110414Y-69200D01*
X110557Y-69922D01*
X110966Y-70534D01*
X111578Y-70943D01*
X112300Y-71086D01*
X113022Y-70943D01*
X113634Y-70534D01*
X114043Y-69922D01*
X114186Y-69200D01*
X114043Y-68478D01*
X113634Y-67866D01*
X113109Y-67516D01*
Y-67022D01*
X113468Y-66587D01*
X114649D01*
X114902Y-66537D01*
X115042Y-66443D01*
X115183Y-66537D01*
X115436Y-66587D01*
X116617D01*
X116871Y-66537D01*
X117086Y-66393D01*
X117230Y-66178D01*
X117280Y-65924D01*
Y-63620D01*
X117292Y-63562D01*
Y-54727D01*
X117195Y-54243D01*
X116921Y-53832D01*
X115609Y-52520D01*
Y-51134D01*
X115919D01*
X116173Y-51084D01*
X116387Y-50940D01*
X116531Y-50725D01*
X116582Y-50472D01*
Y-46928D01*
X116531Y-46675D01*
X116387Y-46460D01*
X116173Y-46316D01*
X115919Y-46266D01*
D02*
G37*
G36*
X142872Y-44848D02*
X139328D01*
X139075Y-44898D01*
X138860Y-45042D01*
X138716Y-45257D01*
X138666Y-45510D01*
Y-48266D01*
X138716Y-48520D01*
X138860Y-48735D01*
X139075Y-48878D01*
X139328Y-48929D01*
X142872D01*
X143125Y-48878D01*
X143254Y-48793D01*
X143478Y-48943D01*
X144200Y-49086D01*
X144922Y-48943D01*
X145534Y-48534D01*
X145943Y-47922D01*
X146086Y-47200D01*
X145943Y-46478D01*
X145534Y-45866D01*
X144922Y-45457D01*
X144200Y-45314D01*
X143522Y-45449D01*
X143484Y-45257D01*
X143340Y-45042D01*
X143125Y-44898D01*
X142872Y-44848D01*
D02*
G37*
G36*
X46150Y-204163D02*
X45429Y-204307D01*
X44817Y-204716D01*
X44408Y-205328D01*
X44264Y-206050D01*
X44361Y-206537D01*
X44229Y-206905D01*
X44007Y-207071D01*
X43928Y-207087D01*
X43713Y-207231D01*
X43570Y-207446D01*
X43519Y-207699D01*
Y-211243D01*
X43570Y-211496D01*
X43713Y-211711D01*
X43928Y-211855D01*
X44182Y-211905D01*
X48119D01*
X48373Y-211855D01*
X48588Y-211711D01*
X48731Y-211496D01*
X48782Y-211243D01*
Y-207699D01*
X48731Y-207446D01*
X48588Y-207231D01*
X48373Y-207087D01*
X48294Y-207071D01*
X48072Y-206905D01*
X47940Y-206537D01*
X48037Y-206050D01*
X47893Y-205328D01*
X47484Y-204716D01*
X46872Y-204307D01*
X46150Y-204163D01*
D02*
G37*
G36*
X58000Y-189514D02*
X57278Y-189657D01*
X56666Y-190066D01*
X56257Y-190678D01*
X56128Y-191331D01*
X55581Y-191877D01*
X55081Y-191670D01*
Y-191558D01*
X55030Y-191304D01*
X54887Y-191089D01*
X54672Y-190945D01*
X54418Y-190895D01*
X50481D01*
X50227Y-190945D01*
X50012Y-191089D01*
X49869Y-191304D01*
X49818Y-191558D01*
Y-195101D01*
X49869Y-195354D01*
X50012Y-195569D01*
X50227Y-195713D01*
X50481Y-195764D01*
X51430D01*
Y-207036D01*
X50481D01*
X50227Y-207087D01*
X50012Y-207231D01*
X49869Y-207446D01*
X49818Y-207699D01*
Y-211243D01*
X49869Y-211496D01*
X50012Y-211711D01*
X50227Y-211855D01*
X50481Y-211905D01*
X54418D01*
X54672Y-211855D01*
X54887Y-211711D01*
X55030Y-211496D01*
X55081Y-211243D01*
Y-207699D01*
X55030Y-207446D01*
X54887Y-207231D01*
X54672Y-207087D01*
X54418Y-207036D01*
X53469D01*
Y-195764D01*
X54418D01*
X54672Y-195713D01*
X54887Y-195569D01*
X55030Y-195354D01*
X55081Y-195101D01*
Y-194988D01*
X55581Y-194781D01*
X59174Y-198374D01*
X59504Y-198595D01*
X59895Y-198672D01*
X61166D01*
Y-199031D01*
X61216Y-199284D01*
X61360Y-199499D01*
X61575Y-199643D01*
X61828Y-199693D01*
X62580D01*
Y-202107D01*
X61828D01*
X61575Y-202157D01*
X61360Y-202301D01*
X61216Y-202516D01*
X61166Y-202769D01*
Y-205919D01*
X61216Y-206172D01*
X61360Y-206387D01*
X61575Y-206531D01*
X61828Y-206582D01*
X65372D01*
X65625Y-206531D01*
X65840Y-206387D01*
X65984Y-206172D01*
X66034Y-205919D01*
Y-202769D01*
X65984Y-202516D01*
X65840Y-202301D01*
X65625Y-202157D01*
X65372Y-202107D01*
X64620D01*
Y-199693D01*
X65372D01*
X65625Y-199643D01*
X65840Y-199499D01*
X65984Y-199284D01*
X66034Y-199031D01*
Y-196275D01*
X65984Y-196021D01*
X65840Y-195806D01*
X65625Y-195662D01*
X65372Y-195612D01*
X61828D01*
X61575Y-195662D01*
X61360Y-195806D01*
X61216Y-196021D01*
X61166Y-196275D01*
Y-196633D01*
X60317D01*
X57350Y-193667D01*
X57597Y-193206D01*
X58000Y-193286D01*
X58722Y-193143D01*
X59334Y-192734D01*
X59743Y-192122D01*
X59886Y-191400D01*
X59743Y-190678D01*
X59334Y-190066D01*
X58722Y-189657D01*
X58000Y-189514D01*
D02*
G37*
G36*
X36072Y-174912D02*
X32528D01*
X32275Y-174962D01*
X32060Y-175106D01*
X31916Y-175321D01*
X31866Y-175575D01*
Y-178331D01*
X31916Y-178584D01*
X32060Y-178799D01*
X32275Y-178943D01*
X32528Y-178993D01*
X33280D01*
Y-183807D01*
X32528D01*
X32275Y-183857D01*
X32060Y-184001D01*
X31916Y-184216D01*
X31866Y-184469D01*
Y-185024D01*
X20156D01*
X19766Y-185102D01*
X19435Y-185323D01*
X15729Y-189029D01*
X15508Y-189359D01*
X15431Y-189750D01*
Y-190895D01*
X14482D01*
X14228Y-190945D01*
X14013Y-191089D01*
X13870Y-191304D01*
X13819Y-191558D01*
Y-195101D01*
X13870Y-195354D01*
X14013Y-195569D01*
X14228Y-195713D01*
X14482Y-195764D01*
X15431D01*
Y-207036D01*
X14482D01*
X14228Y-207087D01*
X14013Y-207231D01*
X13870Y-207446D01*
X13819Y-207699D01*
Y-211243D01*
X13870Y-211496D01*
X14013Y-211711D01*
X14228Y-211855D01*
X14482Y-211905D01*
X18419D01*
X18673Y-211855D01*
X18888Y-211711D01*
X19031Y-211496D01*
X19082Y-211243D01*
Y-207699D01*
X19031Y-207446D01*
X18888Y-207231D01*
X18673Y-207087D01*
X18419Y-207036D01*
X17470D01*
Y-195764D01*
X18419D01*
X18673Y-195713D01*
X18888Y-195569D01*
X19031Y-195354D01*
X19082Y-195101D01*
Y-191558D01*
X19031Y-191304D01*
X18888Y-191089D01*
X18673Y-190945D01*
X18419Y-190895D01*
X17470D01*
Y-190172D01*
X20578Y-187064D01*
X31866D01*
Y-187619D01*
X31916Y-187873D01*
X32060Y-188087D01*
X32275Y-188231D01*
X32528Y-188282D01*
X36072D01*
X36325Y-188231D01*
X36540Y-188087D01*
X36684Y-187873D01*
X36734Y-187619D01*
Y-187266D01*
X37234Y-187136D01*
X37366Y-187334D01*
X37978Y-187743D01*
X38700Y-187886D01*
X39422Y-187743D01*
X40034Y-187334D01*
X40443Y-186722D01*
X40586Y-186000D01*
X40443Y-185278D01*
X40034Y-184666D01*
X39422Y-184257D01*
X38700Y-184114D01*
X37978Y-184257D01*
X37366Y-184666D01*
X37234Y-184864D01*
X36734Y-184734D01*
Y-184469D01*
X36684Y-184216D01*
X36540Y-184001D01*
X36325Y-183857D01*
X36072Y-183807D01*
X35320D01*
Y-178993D01*
X36072D01*
X36325Y-178943D01*
X36540Y-178799D01*
X36684Y-178584D01*
X36734Y-178331D01*
Y-175575D01*
X36684Y-175321D01*
X36540Y-175106D01*
X36325Y-174962D01*
X36072Y-174912D01*
D02*
G37*
G36*
X74353Y-6474D02*
X68447D01*
X68194Y-6524D01*
X67979Y-6668D01*
X67835Y-6883D01*
X67785Y-7136D01*
Y-18947D01*
X67835Y-19201D01*
X67979Y-19416D01*
X68194Y-19559D01*
X68447Y-19610D01*
X69148D01*
X69431Y-20110D01*
X69314Y-20700D01*
X69457Y-21422D01*
X69536Y-21539D01*
X69300Y-21980D01*
X65222D01*
X63314Y-20072D01*
X63505Y-19610D01*
X64353D01*
X64606Y-19559D01*
X64821Y-19416D01*
X64965Y-19201D01*
X65016Y-18947D01*
Y-7136D01*
X64965Y-6883D01*
X64821Y-6668D01*
X64606Y-6524D01*
X64353Y-6474D01*
X58447D01*
X58194Y-6524D01*
X57979Y-6668D01*
X57835Y-6883D01*
X57784Y-7136D01*
Y-18947D01*
X57835Y-19201D01*
X57979Y-19416D01*
X58194Y-19559D01*
X58447Y-19610D01*
X60480D01*
Y-19700D01*
X60558Y-20090D01*
X60779Y-20421D01*
X64048Y-23690D01*
X64037Y-23821D01*
X63881Y-24190D01*
X63447D01*
X63194Y-24240D01*
X62979Y-24384D01*
X62835Y-24599D01*
X62784Y-24853D01*
Y-36664D01*
X62835Y-36917D01*
X62979Y-37132D01*
X63194Y-37276D01*
X63447Y-37326D01*
X64337D01*
X64628Y-37826D01*
X64514Y-38400D01*
X64657Y-39122D01*
X65066Y-39734D01*
X65678Y-40143D01*
X66400Y-40286D01*
X67122Y-40143D01*
X67734Y-39734D01*
X68143Y-39122D01*
X68286Y-38400D01*
X68172Y-37826D01*
X68463Y-37326D01*
X69353D01*
X69606Y-37276D01*
X69821Y-37132D01*
X69965Y-36917D01*
X70016Y-36664D01*
Y-24853D01*
X69965Y-24599D01*
X69912Y-24520D01*
X70085Y-24076D01*
X70133Y-24020D01*
X72667D01*
X72715Y-24076D01*
X72888Y-24520D01*
X72835Y-24599D01*
X72785Y-24853D01*
Y-36664D01*
X72835Y-36917D01*
X72979Y-37132D01*
X73194Y-37276D01*
X73447Y-37326D01*
X74284D01*
X74612Y-37826D01*
X74514Y-38321D01*
X74657Y-39043D01*
X75066Y-39655D01*
X75678Y-40064D01*
X76400Y-40207D01*
X77122Y-40064D01*
X77734Y-39655D01*
X78143Y-39043D01*
X78286Y-38321D01*
X78188Y-37826D01*
X78516Y-37326D01*
X79353D01*
X79606Y-37276D01*
X79821Y-37132D01*
X79965Y-36917D01*
X80015Y-36664D01*
Y-33275D01*
X80515Y-32906D01*
X80921Y-32986D01*
X81643Y-32843D01*
X82255Y-32434D01*
X82664Y-31822D01*
X82807Y-31100D01*
X82664Y-30378D01*
X82255Y-29766D01*
X81643Y-29357D01*
X80921Y-29214D01*
X80515Y-29294D01*
X80015Y-28925D01*
Y-24853D01*
X79965Y-24599D01*
X79912Y-24520D01*
X80085Y-24076D01*
X80133Y-24020D01*
X101878D01*
X124180Y-46322D01*
Y-60378D01*
X121679Y-62879D01*
X121217Y-62688D01*
Y-61200D01*
X121167Y-60946D01*
X121023Y-60731D01*
X120808Y-60588D01*
X120554Y-60537D01*
X119373D01*
X119120Y-60588D01*
X118905Y-60731D01*
X118761Y-60946D01*
X118710Y-61200D01*
Y-65924D01*
X118761Y-66178D01*
X118905Y-66393D01*
X119120Y-66537D01*
X119373Y-66587D01*
X120554D01*
X120780Y-66773D01*
Y-87800D01*
X120858Y-88190D01*
X121079Y-88521D01*
X121388Y-88829D01*
X121314Y-89200D01*
X121457Y-89922D01*
X121866Y-90534D01*
X122478Y-90943D01*
X123200Y-91086D01*
X123922Y-90943D01*
X124313Y-90681D01*
X124813Y-90948D01*
Y-91712D01*
X124863Y-91965D01*
X124957Y-92106D01*
X124863Y-92246D01*
X124813Y-92499D01*
Y-93680D01*
X124863Y-93934D01*
X124957Y-94074D01*
X124863Y-94214D01*
X124813Y-94468D01*
Y-95649D01*
X124863Y-95902D01*
X124957Y-96043D01*
X124863Y-96183D01*
X124813Y-96436D01*
Y-97617D01*
X124863Y-97871D01*
X124957Y-98011D01*
X124863Y-98151D01*
X124813Y-98405D01*
Y-99586D01*
X124863Y-99839D01*
X124957Y-99980D01*
X124863Y-100120D01*
X124813Y-100373D01*
Y-101554D01*
X124863Y-101808D01*
X125007Y-102023D01*
X125222Y-102167D01*
X125476Y-102217D01*
X127780D01*
X127838Y-102229D01*
X132540D01*
X133135Y-102824D01*
Y-104207D01*
X132628D01*
X132375Y-104257D01*
X132160Y-104401D01*
X132016Y-104616D01*
X131966Y-104869D01*
Y-108019D01*
X132016Y-108273D01*
X132160Y-108487D01*
X132375Y-108631D01*
X132628Y-108682D01*
X136172D01*
X136425Y-108631D01*
X136640Y-108487D01*
X136672Y-108439D01*
X137224Y-108246D01*
X137278Y-108243D01*
X138000Y-108386D01*
X138722Y-108243D01*
X139334Y-107834D01*
X139743Y-107222D01*
X139886Y-106500D01*
X139743Y-105778D01*
X139334Y-105166D01*
X138722Y-104757D01*
X138000Y-104614D01*
X137278Y-104757D01*
X136999Y-104677D01*
X136724Y-104526D01*
X136640Y-104401D01*
X136425Y-104257D01*
X136172Y-104207D01*
X135665D01*
Y-102300D01*
X135569Y-101816D01*
X135294Y-101406D01*
X133958Y-100069D01*
X133548Y-99795D01*
X133064Y-99699D01*
X130956D01*
X130863Y-99586D01*
Y-98405D01*
X131298Y-98046D01*
X137804D01*
X142180Y-102422D01*
Y-114424D01*
X142258Y-114815D01*
X142479Y-115145D01*
X144403Y-117069D01*
X144391Y-117191D01*
X144248Y-117405D01*
X144197Y-117659D01*
Y-121990D01*
X144248Y-122243D01*
X144391Y-122458D01*
X144606Y-122602D01*
X144860Y-122652D01*
X147924D01*
Y-127966D01*
X147369D01*
X147116Y-128016D01*
X146901Y-128160D01*
X146757Y-128375D01*
X146707Y-128628D01*
Y-132172D01*
X146757Y-132425D01*
X146901Y-132640D01*
X147116Y-132784D01*
X147369Y-132834D01*
X150519D01*
X150773Y-132784D01*
X150988Y-132640D01*
X151131Y-132425D01*
X151182Y-132172D01*
Y-128628D01*
X151131Y-128375D01*
X150988Y-128160D01*
X150773Y-128016D01*
X150519Y-127966D01*
X149964D01*
Y-122652D01*
X152340D01*
X152594Y-122602D01*
X152809Y-122458D01*
X152952Y-122243D01*
X153003Y-121990D01*
Y-117659D01*
X152952Y-117405D01*
X152809Y-117190D01*
X152594Y-117047D01*
X152340Y-116996D01*
X147214D01*
X144220Y-114002D01*
Y-113496D01*
X144355Y-113376D01*
X144720Y-113176D01*
X144860Y-113204D01*
X152340D01*
X152594Y-113153D01*
X152809Y-113010D01*
X152952Y-112795D01*
X153003Y-112541D01*
Y-111395D01*
X156066D01*
Y-112219D01*
X156116Y-112472D01*
X156260Y-112688D01*
X156475Y-112831D01*
X156728Y-112882D01*
X160272D01*
X160525Y-112831D01*
X160740Y-112688D01*
X160884Y-112472D01*
X160934Y-112219D01*
Y-109069D01*
X160884Y-108816D01*
X160740Y-108601D01*
X160525Y-108457D01*
X160272Y-108407D01*
X156728D01*
X156475Y-108457D01*
X156260Y-108601D01*
X156116Y-108816D01*
X156066Y-109069D01*
Y-109356D01*
X153003D01*
Y-108210D01*
X152952Y-107957D01*
X152809Y-107742D01*
X152594Y-107598D01*
X152340Y-107547D01*
X147214D01*
X146120Y-106453D01*
Y-101832D01*
X146620Y-101565D01*
X146707Y-101623D01*
Y-103772D01*
X146757Y-104025D01*
X146901Y-104240D01*
X147116Y-104384D01*
X147369Y-104434D01*
X150519D01*
X150773Y-104384D01*
X150988Y-104240D01*
X151131Y-104025D01*
X151182Y-103772D01*
Y-100228D01*
X151131Y-99975D01*
X150988Y-99760D01*
X150773Y-99616D01*
X150519Y-99566D01*
X148195D01*
Y-97280D01*
X149538D01*
X149791Y-97230D01*
X150006Y-97086D01*
X150150Y-96871D01*
X150200Y-96617D01*
Y-89531D01*
X150150Y-89277D01*
X150006Y-89062D01*
X149791Y-88918D01*
X149538Y-88868D01*
X144813D01*
X144560Y-88918D01*
X144345Y-89062D01*
X144201Y-89277D01*
X144151Y-89531D01*
Y-92070D01*
X135179D01*
X134972Y-91570D01*
X139022Y-87520D01*
X152800D01*
X153190Y-87442D01*
X153521Y-87221D01*
X157345Y-83397D01*
X157566Y-83066D01*
X157644Y-82676D01*
Y-81532D01*
X158987D01*
X159240Y-81482D01*
X159455Y-81338D01*
X159599Y-81123D01*
X159649Y-80869D01*
Y-73783D01*
X159599Y-73529D01*
X159455Y-73314D01*
X159240Y-73170D01*
X158987Y-73120D01*
X157644D01*
Y-68468D01*
X157566Y-68078D01*
X157345Y-67747D01*
X156393Y-66796D01*
Y-64228D01*
X156343Y-63975D01*
X156199Y-63760D01*
X155984Y-63616D01*
X155731Y-63566D01*
X152581D01*
X152328Y-63616D01*
X152112Y-63760D01*
X151969Y-63975D01*
X151918Y-64228D01*
Y-67772D01*
X151969Y-68025D01*
X152112Y-68240D01*
X152328Y-68384D01*
X152581Y-68434D01*
X155148D01*
X155605Y-68891D01*
Y-73120D01*
X154262D01*
X154009Y-73170D01*
X153794Y-73314D01*
X153650Y-73529D01*
X153600Y-73783D01*
Y-80869D01*
X153650Y-81123D01*
X153794Y-81338D01*
X154009Y-81482D01*
X154262Y-81532D01*
X155605D01*
Y-82253D01*
X152378Y-85480D01*
X138600D01*
X138210Y-85558D01*
X137879Y-85779D01*
X133556Y-90102D01*
X131298D01*
X130863Y-89743D01*
Y-88562D01*
X130812Y-88309D01*
X130719Y-88169D01*
X130812Y-88028D01*
X130863Y-87775D01*
Y-86594D01*
X130812Y-86340D01*
X130719Y-86200D01*
X130812Y-86060D01*
X130863Y-85806D01*
Y-84625D01*
X130812Y-84372D01*
X130719Y-84232D01*
X130812Y-84091D01*
X130863Y-83838D01*
Y-82657D01*
X130812Y-82403D01*
X130719Y-82263D01*
X130812Y-82123D01*
X130863Y-81869D01*
Y-80688D01*
X130812Y-80435D01*
X130669Y-80220D01*
X130454Y-80076D01*
X130200Y-80026D01*
X125476D01*
X125222Y-80076D01*
X125007Y-80220D01*
X124863Y-80435D01*
X124813Y-80688D01*
Y-81869D01*
X124863Y-82123D01*
X124957Y-82263D01*
X124863Y-82403D01*
X124813Y-82657D01*
Y-83838D01*
X124863Y-84091D01*
X124957Y-84232D01*
X124863Y-84372D01*
X124813Y-84625D01*
Y-85806D01*
X124863Y-86060D01*
X124957Y-86200D01*
X124863Y-86340D01*
X124813Y-86594D01*
Y-87453D01*
X124313Y-87719D01*
X123922Y-87457D01*
X123200Y-87314D01*
X122820Y-86880D01*
Y-77662D01*
X123282Y-77470D01*
X124047Y-78236D01*
X124458Y-78510D01*
X124942Y-78607D01*
X127838D01*
X127896Y-78595D01*
X130200D01*
X130454Y-78545D01*
X130669Y-78401D01*
X130812Y-78186D01*
X130863Y-77932D01*
Y-76751D01*
X130812Y-76498D01*
X130719Y-76358D01*
X130812Y-76217D01*
X130863Y-75964D01*
Y-74783D01*
X131298Y-74424D01*
X136895D01*
X137285Y-74347D01*
X137616Y-74126D01*
X143521Y-68221D01*
X143742Y-67890D01*
X143820Y-67500D01*
Y-65522D01*
X154374Y-54968D01*
X154463Y-54834D01*
X155031D01*
X155284Y-54784D01*
X155499Y-54640D01*
X155643Y-54425D01*
X155693Y-54172D01*
Y-50628D01*
X155643Y-50375D01*
X155499Y-50160D01*
X155284Y-50016D01*
X155031Y-49966D01*
X152275D01*
X152021Y-50016D01*
X151806Y-50160D01*
X151663Y-50375D01*
X151612Y-50628D01*
Y-54172D01*
X151663Y-54425D01*
X151806Y-54640D01*
X151807Y-54651D01*
X150131Y-56327D01*
X149670Y-56081D01*
X149686Y-56000D01*
X149543Y-55278D01*
X149510Y-55229D01*
X149594Y-54640D01*
X149738Y-54425D01*
X149788Y-54172D01*
Y-50628D01*
X149738Y-50375D01*
X149594Y-50160D01*
X149379Y-50016D01*
X149125Y-49966D01*
X146369D01*
X146116Y-50016D01*
X145901Y-50160D01*
X145757Y-50375D01*
X145707Y-50628D01*
Y-54172D01*
X145757Y-54425D01*
X145901Y-54640D01*
X146078Y-55247D01*
X146057Y-55278D01*
X145914Y-56000D01*
X146057Y-56722D01*
X146466Y-57334D01*
X147078Y-57743D01*
X147800Y-57886D01*
X147881Y-57870D01*
X148127Y-58331D01*
X142320Y-64139D01*
X141820Y-63931D01*
Y-54834D01*
X142872D01*
X143125Y-54784D01*
X143340Y-54640D01*
X143484Y-54425D01*
X143534Y-54172D01*
Y-51416D01*
X143484Y-51162D01*
X143340Y-50947D01*
X143125Y-50804D01*
X142872Y-50753D01*
X139328D01*
X139075Y-50804D01*
X138860Y-50947D01*
X138716Y-51162D01*
X138666Y-51416D01*
Y-54172D01*
X138716Y-54425D01*
X138860Y-54640D01*
X139075Y-54784D01*
X139328Y-54834D01*
X139780D01*
Y-66078D01*
X135441Y-70417D01*
X130695D01*
X130669Y-70377D01*
X130454Y-70233D01*
X130200Y-70183D01*
X125476D01*
X125465Y-70185D01*
X125002Y-69875D01*
X124965Y-69814D01*
Y-66024D01*
X126005Y-64984D01*
X126160Y-64999D01*
X126375Y-65143D01*
X126628Y-65193D01*
X130172D01*
X130425Y-65143D01*
X130640Y-64999D01*
X130784Y-64784D01*
X130834Y-64531D01*
Y-64221D01*
X131666D01*
Y-64531D01*
X131716Y-64784D01*
X131860Y-64999D01*
X132075Y-65143D01*
X132096Y-65147D01*
X132347Y-65636D01*
X132350Y-65693D01*
X132214Y-66377D01*
X132357Y-67099D01*
X132766Y-67711D01*
X133378Y-68120D01*
X134100Y-68263D01*
X134822Y-68120D01*
X135434Y-67711D01*
X135843Y-67099D01*
X135986Y-66377D01*
X135850Y-65693D01*
X135853Y-65636D01*
X136104Y-65147D01*
X136125Y-65143D01*
X136340Y-64999D01*
X136484Y-64784D01*
X136534Y-64531D01*
Y-61381D01*
X136484Y-61128D01*
X136340Y-60913D01*
X136125Y-60769D01*
X135872Y-60718D01*
X132328D01*
X132075Y-60769D01*
X131860Y-60913D01*
X131716Y-61128D01*
X131666Y-61381D01*
Y-61691D01*
X130834D01*
Y-61381D01*
X130784Y-61128D01*
X130640Y-60913D01*
X130425Y-60769D01*
X130172Y-60718D01*
X126628D01*
X126220Y-60317D01*
Y-45900D01*
X126142Y-45510D01*
X125921Y-45179D01*
X103021Y-22279D01*
X102690Y-22058D01*
X102300Y-21980D01*
X73100D01*
X72864Y-21539D01*
X72943Y-21422D01*
X73086Y-20700D01*
X72969Y-20110D01*
X73252Y-19610D01*
X74353D01*
X74606Y-19559D01*
X74821Y-19416D01*
X74965Y-19201D01*
X75015Y-18947D01*
Y-7136D01*
X74965Y-6883D01*
X74821Y-6668D01*
X74606Y-6524D01*
X74353Y-6474D01*
D02*
G37*
G36*
X48119Y-190895D02*
X44182D01*
X43928Y-190945D01*
X43713Y-191089D01*
X43570Y-191304D01*
X43519Y-191558D01*
Y-195101D01*
X43570Y-195354D01*
X43713Y-195569D01*
X43928Y-195713D01*
X44007Y-195729D01*
X44229Y-195895D01*
X44361Y-196264D01*
X44264Y-196750D01*
X44408Y-197472D01*
X44817Y-198084D01*
X45429Y-198493D01*
X46150Y-198637D01*
X46872Y-198493D01*
X47484Y-198084D01*
X47893Y-197472D01*
X48037Y-196750D01*
X47940Y-196264D01*
X48072Y-195895D01*
X48294Y-195729D01*
X48373Y-195713D01*
X48588Y-195569D01*
X48731Y-195354D01*
X48782Y-195101D01*
Y-191558D01*
X48731Y-191304D01*
X48588Y-191089D01*
X48373Y-190945D01*
X48119Y-190895D01*
D02*
G37*
G36*
X88672Y-51118D02*
X85128D01*
X84875Y-51169D01*
X84660Y-51313D01*
X84657Y-51317D01*
X84201Y-51613D01*
X84048Y-51583D01*
X83479Y-51470D01*
X82757Y-51613D01*
X82145Y-52022D01*
X81736Y-52634D01*
X81593Y-53356D01*
X81736Y-54078D01*
X82145Y-54690D01*
X82757Y-55099D01*
X83479Y-55242D01*
X84048Y-55129D01*
X84201Y-55099D01*
X84657Y-55395D01*
X84660Y-55399D01*
X84875Y-55543D01*
X85128Y-55593D01*
X85635D01*
Y-57100D01*
X85731Y-57584D01*
X86006Y-57994D01*
X89171Y-61160D01*
Y-63562D01*
X89183Y-63620D01*
Y-65924D01*
X89233Y-66178D01*
X89377Y-66393D01*
X89592Y-66537D01*
X89846Y-66587D01*
X91027D01*
X91280Y-66537D01*
X91495Y-66393D01*
X91639Y-66178D01*
X91689Y-65924D01*
Y-63620D01*
X91701Y-63562D01*
Y-60636D01*
X91605Y-60152D01*
X91331Y-59742D01*
X88165Y-56576D01*
Y-55593D01*
X88672D01*
X88925Y-55543D01*
X89140Y-55399D01*
X89284Y-55184D01*
X89334Y-54931D01*
Y-51781D01*
X89284Y-51528D01*
X89140Y-51313D01*
X88925Y-51169D01*
X88672Y-51118D01*
D02*
G37*
G36*
X120554Y-105813D02*
X119373D01*
X119120Y-105863D01*
X118905Y-106007D01*
X118761Y-106222D01*
X118710Y-106476D01*
Y-108780D01*
X118699Y-108838D01*
Y-112064D01*
X118795Y-112548D01*
X119069Y-112958D01*
X120391Y-114280D01*
Y-120966D01*
X120081D01*
X119827Y-121016D01*
X119613Y-121160D01*
X119469Y-121375D01*
X119418Y-121628D01*
Y-125172D01*
X119469Y-125425D01*
X119613Y-125640D01*
X119827Y-125784D01*
X120081Y-125834D01*
X120435D01*
Y-126441D01*
X120366Y-126488D01*
X119957Y-127099D01*
X119814Y-127821D01*
X119957Y-128543D01*
X120366Y-129155D01*
X120978Y-129564D01*
X121700Y-129708D01*
X122422Y-129564D01*
X123034Y-129155D01*
X123443Y-128543D01*
X123586Y-127821D01*
X123443Y-127099D01*
X123034Y-126488D01*
X122965Y-126441D01*
Y-125834D01*
X123231D01*
X123484Y-125784D01*
X123699Y-125640D01*
X123843Y-125425D01*
X123893Y-125172D01*
Y-121628D01*
X123843Y-121375D01*
X123699Y-121160D01*
X123484Y-121016D01*
X123231Y-120966D01*
X122921D01*
Y-113756D01*
X122825Y-113272D01*
X122550Y-112862D01*
X121229Y-111540D01*
Y-108838D01*
X121217Y-108780D01*
Y-106476D01*
X121167Y-106222D01*
X121023Y-106007D01*
X120808Y-105863D01*
X120554Y-105813D01*
D02*
G37*
%LPD*%
G36*
X144151Y-96617D02*
X144201Y-96871D01*
X144345Y-97086D01*
X144560Y-97230D01*
X144813Y-97280D01*
X146156D01*
Y-99907D01*
X145656Y-100114D01*
X140151Y-94609D01*
X140358Y-94109D01*
X144151D01*
Y-96617D01*
D02*
G37*
%LPC*%
G36*
X14096Y-86516D02*
X11104D01*
X10348Y-86615D01*
X9644Y-86907D01*
X9040Y-87371D01*
X8576Y-87976D01*
X8284Y-88679D01*
X8185Y-89435D01*
Y-94494D01*
X8284Y-95250D01*
X8576Y-95954D01*
X9040Y-96558D01*
X9644Y-97022D01*
X10348Y-97314D01*
X11104Y-97413D01*
X14096D01*
X14852Y-97314D01*
X15556Y-97022D01*
X16160Y-96558D01*
X16624Y-95954D01*
X16916Y-95250D01*
X17015Y-94494D01*
Y-89435D01*
X16916Y-88679D01*
X16624Y-87976D01*
X16160Y-87371D01*
X15556Y-86907D01*
X14852Y-86615D01*
X14096Y-86516D01*
D02*
G37*
G36*
Y-116532D02*
X11104D01*
X10348Y-116631D01*
X9644Y-116923D01*
X9040Y-117387D01*
X8576Y-117991D01*
X8284Y-118695D01*
X8185Y-119451D01*
Y-124510D01*
X8284Y-125265D01*
X8576Y-125969D01*
X9040Y-126574D01*
X9644Y-127038D01*
X10348Y-127329D01*
X11104Y-127429D01*
X14096D01*
X14852Y-127329D01*
X15556Y-127038D01*
X16160Y-126574D01*
X16624Y-125969D01*
X16916Y-125265D01*
X17015Y-124510D01*
Y-119451D01*
X16916Y-118695D01*
X16624Y-117991D01*
X16160Y-117387D01*
X15556Y-116923D01*
X14852Y-116631D01*
X14096Y-116532D01*
D02*
G37*
G36*
X19219Y-62366D02*
X16069D01*
X15816Y-62416D01*
X15601Y-62560D01*
X15457Y-62775D01*
X15339Y-63021D01*
X14927Y-62979D01*
X14600Y-62914D01*
X13878Y-63057D01*
X13266Y-63466D01*
X12857Y-64078D01*
X12714Y-64800D01*
X12857Y-65522D01*
X13266Y-66134D01*
X13878Y-66543D01*
X14600Y-66686D01*
X14927Y-66621D01*
X15339Y-66579D01*
X15457Y-66825D01*
X15601Y-67040D01*
X15816Y-67184D01*
X16069Y-67234D01*
X19219D01*
X19473Y-67184D01*
X19688Y-67040D01*
X19831Y-66825D01*
X19882Y-66572D01*
Y-63028D01*
X19831Y-62775D01*
X19688Y-62560D01*
X19473Y-62416D01*
X19219Y-62366D01*
D02*
G37*
G36*
X19119Y-68666D02*
X15969D01*
X15716Y-68716D01*
X15501Y-68860D01*
X15357Y-69075D01*
X15239Y-69321D01*
X14827Y-69279D01*
X14500Y-69214D01*
X13778Y-69357D01*
X13166Y-69766D01*
X12757Y-70378D01*
X12614Y-71100D01*
X12757Y-71822D01*
X13166Y-72434D01*
X13778Y-72843D01*
X14500Y-72986D01*
X14827Y-72921D01*
X15239Y-72879D01*
X15357Y-73125D01*
X15501Y-73340D01*
X15716Y-73484D01*
X15969Y-73534D01*
X19119D01*
X19373Y-73484D01*
X19588Y-73340D01*
X19731Y-73125D01*
X19782Y-72872D01*
Y-69328D01*
X19731Y-69075D01*
X19588Y-68860D01*
X19373Y-68716D01*
X19119Y-68666D01*
D02*
G37*
%LPD*%
G36*
X14679Y-87261D02*
X15221Y-87486D01*
X15687Y-87844D01*
X16045Y-88310D01*
X16270Y-88853D01*
X16352Y-89478D01*
Y-94451D01*
X16270Y-95077D01*
X16045Y-95619D01*
X15687Y-96086D01*
X15221Y-96443D01*
X14679Y-96668D01*
X14053Y-96750D01*
X11147D01*
X10521Y-96668D01*
X9979Y-96443D01*
X9512Y-96086D01*
X9155Y-95619D01*
X8930Y-95077D01*
X8848Y-94451D01*
Y-89478D01*
X8930Y-88853D01*
X9155Y-88310D01*
X9512Y-87844D01*
X9979Y-87486D01*
X10521Y-87261D01*
X11147Y-87179D01*
X14053D01*
X14679Y-87261D01*
D02*
G37*
G36*
Y-117277D02*
X15221Y-117502D01*
X15687Y-117859D01*
X16045Y-118325D01*
X16270Y-118868D01*
X16352Y-119494D01*
Y-124466D01*
X16270Y-125092D01*
X16045Y-125635D01*
X15687Y-126101D01*
X15221Y-126459D01*
X14679Y-126684D01*
X14053Y-126766D01*
X11147D01*
X10521Y-126684D01*
X9979Y-126459D01*
X9512Y-126101D01*
X9155Y-125635D01*
X8930Y-125092D01*
X8848Y-124466D01*
Y-119494D01*
X8930Y-118868D01*
X9155Y-118325D01*
X9512Y-117859D01*
X9979Y-117502D01*
X10521Y-117277D01*
X11147Y-117194D01*
X14053D01*
X14679Y-117277D01*
D02*
G37*
G36*
X19208Y-63039D02*
X19219Y-63094D01*
Y-66506D01*
X19208Y-66561D01*
X19154Y-66572D01*
X16135D01*
X16077Y-66560D01*
X16034Y-66496D01*
X15937Y-66293D01*
X15927Y-66279D01*
X15922Y-66263D01*
X15850Y-66176D01*
X15782Y-66086D01*
X15768Y-66077D01*
X15757Y-66064D01*
X15657Y-66012D01*
X15560Y-65954D01*
X15543Y-65951D01*
X15528Y-65943D01*
X15416Y-65933D01*
X15304Y-65917D01*
X15288Y-65921D01*
X15271Y-65919D01*
X14859Y-65962D01*
X14829Y-65971D01*
X14798D01*
X14600Y-66010D01*
X14137Y-65918D01*
X13744Y-65656D01*
X13482Y-65263D01*
X13389Y-64800D01*
X13482Y-64337D01*
X13744Y-63944D01*
X14137Y-63682D01*
X14600Y-63590D01*
X14798Y-63629D01*
X14829D01*
X14859Y-63638D01*
X15271Y-63681D01*
X15288Y-63679D01*
X15304Y-63683D01*
X15416Y-63667D01*
X15528Y-63657D01*
X15543Y-63649D01*
X15560Y-63646D01*
X15657Y-63589D01*
X15757Y-63536D01*
X15768Y-63523D01*
X15782Y-63514D01*
X15850Y-63424D01*
X15922Y-63336D01*
X15927Y-63321D01*
X15937Y-63307D01*
X16034Y-63103D01*
X16077Y-63040D01*
X16135Y-63028D01*
X19154D01*
X19208Y-63039D01*
D02*
G37*
G36*
X19108Y-69339D02*
X19119Y-69394D01*
Y-72806D01*
X19108Y-72861D01*
X19054Y-72872D01*
X16035D01*
X15977Y-72860D01*
X15934Y-72796D01*
X15837Y-72593D01*
X15827Y-72579D01*
X15822Y-72563D01*
X15750Y-72476D01*
X15682Y-72386D01*
X15668Y-72377D01*
X15657Y-72364D01*
X15557Y-72312D01*
X15460Y-72254D01*
X15443Y-72251D01*
X15428Y-72243D01*
X15316Y-72233D01*
X15204Y-72217D01*
X15188Y-72221D01*
X15171Y-72219D01*
X14759Y-72262D01*
X14729Y-72271D01*
X14698D01*
X14500Y-72311D01*
X14037Y-72218D01*
X13644Y-71956D01*
X13382Y-71563D01*
X13289Y-71100D01*
X13382Y-70637D01*
X13644Y-70244D01*
X14037Y-69982D01*
X14500Y-69889D01*
X14698Y-69929D01*
X14729D01*
X14759Y-69938D01*
X15171Y-69981D01*
X15188Y-69979D01*
X15204Y-69983D01*
X15316Y-69967D01*
X15428Y-69956D01*
X15443Y-69949D01*
X15460Y-69946D01*
X15557Y-69889D01*
X15657Y-69836D01*
X15668Y-69823D01*
X15682Y-69814D01*
X15750Y-69724D01*
X15822Y-69636D01*
X15827Y-69621D01*
X15837Y-69607D01*
X15934Y-69403D01*
X15977Y-69340D01*
X16035Y-69328D01*
X19054D01*
X19108Y-69339D01*
D02*
G37*
%LPC*%
G36*
X21119Y-33466D02*
X17969D01*
X17716Y-33516D01*
X17501Y-33660D01*
X17357Y-33875D01*
X17239Y-34121D01*
X16827Y-34079D01*
X16500Y-34014D01*
X15778Y-34157D01*
X15166Y-34566D01*
X14757Y-35178D01*
X14614Y-35900D01*
X14757Y-36622D01*
X15166Y-37234D01*
X15778Y-37643D01*
X16500Y-37786D01*
X16827Y-37721D01*
X17239Y-37679D01*
X17357Y-37925D01*
X17501Y-38140D01*
X17716Y-38284D01*
X17969Y-38334D01*
X21119D01*
X21373Y-38284D01*
X21587Y-38140D01*
X21731Y-37925D01*
X21782Y-37672D01*
Y-34128D01*
X21731Y-33875D01*
X21587Y-33660D01*
X21373Y-33516D01*
X21119Y-33466D01*
D02*
G37*
%LPD*%
G36*
X21108Y-34139D02*
X21119Y-34194D01*
Y-37606D01*
X21108Y-37661D01*
X21054Y-37672D01*
X18034D01*
X17977Y-37660D01*
X17934Y-37596D01*
X17837Y-37393D01*
X17827Y-37379D01*
X17822Y-37363D01*
X17750Y-37276D01*
X17682Y-37186D01*
X17668Y-37177D01*
X17657Y-37164D01*
X17557Y-37111D01*
X17459Y-37054D01*
X17443Y-37051D01*
X17428Y-37043D01*
X17316Y-37033D01*
X17204Y-37017D01*
X17188Y-37021D01*
X17171Y-37019D01*
X16759Y-37062D01*
X16729Y-37071D01*
X16698D01*
X16500Y-37110D01*
X16037Y-37018D01*
X15644Y-36756D01*
X15382Y-36363D01*
X15290Y-35900D01*
X15382Y-35437D01*
X15644Y-35044D01*
X16037Y-34782D01*
X16500Y-34690D01*
X16698Y-34729D01*
X16729D01*
X16759Y-34738D01*
X17171Y-34781D01*
X17188Y-34779D01*
X17204Y-34783D01*
X17316Y-34767D01*
X17428Y-34756D01*
X17443Y-34749D01*
X17459Y-34746D01*
X17557Y-34689D01*
X17657Y-34636D01*
X17668Y-34623D01*
X17682Y-34614D01*
X17750Y-34524D01*
X17822Y-34437D01*
X17827Y-34421D01*
X17837Y-34407D01*
X17934Y-34204D01*
X17977Y-34140D01*
X18035Y-34128D01*
X21054D01*
X21108Y-34139D01*
D02*
G37*
D10*
X136240Y-187944D02*
G03*
X145896Y-197600I9656J0D01*
G01*
X101990Y-183290D02*
G03*
X105200Y-186500I3210J0D01*
G01*
X23132Y-106972D02*
X26139D01*
X26719Y-106393D01*
X28700D01*
X23132Y-104413D02*
X26139D01*
X26719Y-104993D01*
X29280D01*
X28700Y-106393D02*
X30507Y-108200D01*
X29280Y-104993D02*
X31087Y-106800D01*
X47081Y-110256D02*
X48640Y-111815D01*
X44900Y-103504D02*
Y-101185D01*
Y-103504D02*
X46070Y-104674D01*
X48640Y-103504D02*
Y-101185D01*
X46070Y-105580D02*
Y-104674D01*
X48090Y-107600D02*
X54880D01*
X54300Y-106200D02*
X57900Y-102600D01*
X54880Y-107600D02*
X59300Y-103180D01*
Y-97500D01*
X62900Y-93900D01*
X57900Y-102600D02*
Y-96920D01*
X61910Y-92910D01*
X61910D01*
X62320Y-92500D01*
X62900Y-93900D02*
X70700D01*
X62320Y-92500D02*
X71280D01*
X72590Y-93810D01*
X79130D01*
X79850Y-93090D01*
X82562D01*
X70700Y-93900D02*
X71858Y-95058D01*
X71858D01*
X72010Y-95210D01*
X79710D01*
X79861Y-95058D01*
X82562D01*
X94373Y-63562D02*
Y-56973D01*
X93550Y-56150D02*
X94373Y-56973D01*
X93550Y-56150D02*
Y-53356D01*
X98310Y-63562D02*
Y-57690D01*
X100200Y-55800D01*
Y-53553D01*
X127838Y-71436D02*
X135864D01*
X140800Y-66500D01*
Y-53094D01*
X141100Y-52794D01*
X127838Y-73405D02*
X136895D01*
X142800Y-67500D01*
X127838Y-91121D02*
X133979D01*
X138600Y-86500D01*
X152800D01*
X156624Y-82676D01*
Y-77326D01*
X127838Y-93090D02*
X147160D01*
X147176Y-93074D01*
Y-100232D02*
Y-93074D01*
Y-100232D02*
X148944Y-102000D01*
X156624Y-77326D02*
Y-68468D01*
X154156Y-66000D02*
X156624Y-68468D01*
X127838Y-95058D02*
X139158D01*
X145100Y-101000D01*
Y-106876D02*
Y-101000D01*
Y-106876D02*
X148600Y-110376D01*
X127838Y-97027D02*
X138227D01*
X143200Y-102000D01*
Y-114424D02*
Y-102000D01*
Y-114424D02*
X148600Y-119824D01*
Y-110376D02*
X158231D01*
X158500Y-110644D01*
X148944Y-130400D02*
Y-120168D01*
X148600Y-119824D02*
X148944Y-120168D01*
X79705Y-73405D02*
X82562D01*
X75400Y-69100D02*
X79705Y-73405D01*
X73453Y-69100D02*
X75400D01*
X73726Y-75373D02*
X82562D01*
X73353Y-75000D02*
X73726Y-75373D01*
X44753Y-82553D02*
Y-46200D01*
X42900Y-83500D02*
X49903Y-90503D01*
X42900Y-83500D02*
Y-53900D01*
X41800Y-52800D02*
X42900Y-53900D01*
X41800Y-52800D02*
Y-23800D01*
X51400Y-14200D01*
Y-13042D01*
X44753Y-46200D02*
Y-32405D01*
X46400Y-30758D01*
X44753Y-82553D02*
X51353Y-89153D01*
X104844Y-160190D02*
X120234D01*
X121444Y-161400D01*
Y-165600D02*
Y-161400D01*
X119300Y-167744D02*
X121444Y-165600D01*
X107544Y-193050D02*
Y-186500D01*
X96944Y-189700D02*
X97400Y-189244D01*
X96944Y-196900D02*
Y-189700D01*
X102456Y-196900D02*
Y-189700D01*
Y-196900D02*
X105156Y-199600D01*
X107544D01*
X113056D02*
Y-193050D01*
X119000Y-190900D02*
Y-186156D01*
X116850Y-193050D02*
X119000Y-190900D01*
X113056Y-193050D02*
X116850D01*
X107544Y-181344D02*
Y-179950D01*
Y-181344D02*
X109300Y-183100D01*
X115944D01*
X119000Y-186156D01*
Y-180644D02*
Y-173556D01*
X113056Y-173400D02*
X119156D01*
X119300Y-173256D01*
X119000Y-173556D02*
X119156Y-173400D01*
X119300Y-173256D02*
X124933D01*
X130567D01*
X136003D01*
X136200Y-173453D01*
Y-178907D02*
Y-173453D01*
Y-178907D02*
X136240Y-178947D01*
Y-187944D02*
Y-184853D01*
X136200Y-167547D02*
Y-161656D01*
X136144Y-161600D02*
X136200Y-161656D01*
X136144Y-161600D02*
Y-155500D01*
X141656Y-161600D02*
Y-155500D01*
Y-167370D02*
Y-161600D01*
Y-167370D02*
X141833Y-167547D01*
X147270D01*
X147467Y-167744D01*
X153100D01*
X158350D01*
X159047Y-167047D01*
X107544Y-179950D02*
Y-173400D01*
X105200Y-186500D02*
X107544D01*
X101990Y-183290D02*
Y-163044D01*
X47470Y-104674D02*
X48640Y-103504D01*
X47470Y-105000D02*
Y-104674D01*
Y-105000D02*
X48670Y-106200D01*
X54300D01*
X46070Y-105580D02*
X48090Y-107600D01*
X47081Y-110256D02*
Y-109401D01*
X30507Y-108200D02*
X43900D01*
X44900Y-109200D01*
Y-111815D02*
Y-109200D01*
X31087Y-106800D02*
X44480D01*
X47081Y-109401D01*
X100000Y-143535D02*
X100021Y-143556D01*
X100000Y-143535D02*
Y-123600D01*
X97400Y-189244D02*
Y-174200D01*
X96084Y-172884D02*
X97400Y-174200D01*
X96084Y-172884D02*
Y-163044D01*
X71916Y-158221D02*
X85356D01*
X67054Y-153359D02*
X71916Y-158221D01*
X81253Y-156253D02*
X85356D01*
X73747Y-148241D02*
Y-141091D01*
X72956Y-140300D02*
X73747Y-141091D01*
X58900Y-153656D02*
X66757D01*
X67054Y-153359D01*
X104844Y-150347D02*
X107853D01*
X110200Y-148000D01*
Y-128500D01*
X111900Y-149000D02*
Y-127900D01*
X104844Y-152316D02*
X108584D01*
X111900Y-149000D01*
X104844Y-154284D02*
X104928Y-154200D01*
X110000D01*
X110300Y-153900D01*
X85700Y-118900D02*
X90000D01*
X82000Y-122600D02*
X85700Y-118900D01*
X82000Y-124947D02*
Y-122600D01*
X90000Y-118900D02*
X92405Y-116495D01*
Y-108838D01*
X87800Y-125047D02*
X91053D01*
X91100Y-125000D01*
X102247Y-114647D02*
Y-108838D01*
X82000Y-130853D02*
X87700D01*
X87800Y-130953D01*
X82784Y-152316D02*
X85356D01*
X78400Y-153400D02*
X81253Y-156253D01*
X81700Y-153400D02*
X82784Y-152316D01*
X81047Y-150347D02*
X85356D01*
X77800Y-147100D02*
X81047Y-150347D01*
X77800Y-147100D02*
Y-132700D01*
X79647Y-130853D01*
X82000D01*
X73747Y-148241D02*
X75441D01*
X78400Y-151200D01*
Y-153400D02*
Y-151200D01*
X82479Y-148379D02*
X85356D01*
X80900Y-146800D02*
X82479Y-148379D01*
X80900Y-146800D02*
Y-146700D01*
X112090Y-68990D02*
X112300Y-69200D01*
X112090Y-68990D02*
Y-63562D01*
X85356Y-146410D02*
Y-145856D01*
X83100Y-143600D02*
X85356Y-145856D01*
X81800Y-143600D02*
X83100D01*
X80500Y-142300D02*
X81800Y-143600D01*
X86756Y-143556D02*
X88210D01*
X92147D02*
Y-138147D01*
X90700Y-136700D02*
X92147Y-138147D01*
X94116Y-143556D02*
Y-135816D01*
X96084Y-143556D02*
Y-132684D01*
X94900Y-131500D02*
X96084Y-132684D01*
X98053Y-143556D02*
Y-129753D01*
X97700Y-129400D02*
X98053Y-129753D01*
X81500Y-136700D02*
X90700D01*
X85200Y-142000D02*
X86756Y-143556D01*
X85000Y-142000D02*
X85200D01*
X87500Y-140000D02*
X88879D01*
X90179Y-141300D01*
Y-143556D02*
Y-141300D01*
X91500Y-133200D02*
X94116Y-135816D01*
X113500Y-58300D02*
X114058Y-58858D01*
Y-63562D02*
Y-58858D01*
X16450Y-209471D02*
Y-193329D01*
Y-189750D01*
X20156Y-186044D01*
X34300D01*
Y-176953D01*
X25147Y-151800D02*
X31847D01*
X16047Y-160900D02*
X25147Y-151800D01*
X15447Y-149500D02*
Y-149153D01*
X15547Y-141647D02*
Y-139500D01*
X31847Y-138353D02*
Y-136700D01*
X15447Y-149153D02*
X19300Y-145300D01*
X30797D01*
X31847Y-144250D01*
X15547Y-141647D02*
X17200Y-143300D01*
X26900D01*
X31847Y-138353D01*
X49903Y-90503D02*
X78503D01*
X79121Y-91121D01*
X82562D01*
X51353Y-89153D02*
X82562D01*
X79284Y-85216D02*
X82562D01*
X78900Y-85600D02*
X79284Y-85216D01*
X85900Y-87200D02*
X87200Y-88500D01*
X82578Y-87200D02*
X85900D01*
X82562Y-87184D02*
X82578Y-87200D01*
X82562Y-71436D02*
Y-69138D01*
X82600Y-69100D01*
X76958Y-77342D02*
X82562D01*
X73100Y-81200D02*
X76958Y-77342D01*
X68700Y-81200D02*
X73100D01*
X67700Y-82200D02*
X68700Y-81200D01*
X71500Y-75000D02*
X73353D01*
X71500Y-75000D02*
X71500Y-75000D01*
X73453Y-69100D02*
Y-65953D01*
X72600Y-65100D02*
X73453Y-65953D01*
X78373Y-97027D02*
X82562D01*
X75000Y-100400D02*
X78373Y-97027D01*
X63000Y-100400D02*
X75000D01*
X71200Y-20700D02*
Y-13242D01*
X71400Y-13042D01*
X66400Y-38400D02*
Y-30758D01*
X98310Y-108838D02*
Y-92290D01*
X141412Y-47200D02*
X144200D01*
X141100Y-46888D02*
X141412Y-47200D01*
X142800Y-67500D02*
Y-65100D01*
X153653Y-54247D02*
Y-52400D01*
X147800Y-56000D02*
Y-52453D01*
X147747Y-52400D02*
X147800Y-52453D01*
X104216Y-113216D02*
X105000Y-114000D01*
X104216Y-113216D02*
Y-108838D01*
X105000Y-117600D02*
Y-114000D01*
X98310Y-116610D02*
Y-108838D01*
X100279Y-116279D02*
Y-108838D01*
X102247Y-114647D02*
X102500Y-114900D01*
X101990Y-143556D02*
Y-122790D01*
X98310Y-116610D02*
X110200Y-128500D01*
X100279Y-116279D02*
X111900Y-127900D01*
X107200Y-117100D02*
X108900Y-118800D01*
X107200Y-117100D02*
Y-116689D01*
X106900Y-116389D02*
X107200Y-116689D01*
X106900Y-116389D02*
Y-113800D01*
X106184Y-113084D02*
X106900Y-113800D01*
X106184Y-113084D02*
Y-108838D01*
X84674Y-114600D02*
X90436Y-108838D01*
X67800Y-114600D02*
X84674D01*
X66700Y-113500D02*
X67800Y-114600D01*
X62200Y-99600D02*
X63000Y-100400D01*
X112090Y-108838D02*
X114058D01*
X108153D02*
Y-104453D01*
X104216Y-108838D02*
Y-91084D01*
X106600Y-102900D02*
X108153Y-104453D01*
X106600Y-102900D02*
Y-101900D01*
X96342Y-117142D02*
X101990Y-122790D01*
X96342Y-117142D02*
Y-108838D01*
X94373Y-117973D02*
Y-108838D01*
Y-117973D02*
X100000Y-123600D01*
X110121Y-108838D02*
Y-100121D01*
X107900Y-97900D02*
X110121Y-100121D01*
X107100Y-97900D02*
X107900D01*
X41800Y-148400D02*
X44700Y-145500D01*
X22453Y-148400D02*
X41800D01*
X21353Y-149500D02*
X22453Y-148400D01*
X21953Y-160900D02*
X36400D01*
X44700Y-145500D02*
Y-128000D01*
X63500Y-109200D01*
X81900D01*
X84000Y-107100D01*
X64700Y-111300D02*
X84100D01*
X84600Y-110800D01*
X36400Y-160900D02*
X47200Y-150100D01*
Y-128800D01*
X64700Y-111300D01*
X114058Y-114458D02*
Y-108838D01*
Y-114458D02*
X115500Y-115900D01*
X123247Y-89153D02*
X127838D01*
X123200Y-89200D02*
X123247Y-89153D01*
X34344Y-186000D02*
X38700D01*
X34300Y-186044D02*
X34344Y-186000D01*
X52450Y-193329D02*
X55571D01*
X57500Y-191400D01*
X58000D01*
X55571Y-193329D02*
X59895Y-197653D01*
X63600D01*
X52450Y-209471D02*
Y-193329D01*
X115800Y-128100D02*
X116000Y-127900D01*
X111900D02*
X116000D01*
X61400Y-13042D02*
X61500Y-13142D01*
Y-19700D02*
Y-13142D01*
Y-19700D02*
X64800Y-23000D01*
X102300D01*
X142800Y-65100D02*
X153653Y-54247D01*
X98310Y-92290D02*
X115600Y-75000D01*
Y-73700D01*
X116800Y-70400D02*
X117900Y-71500D01*
Y-77400D02*
Y-71500D01*
X104216Y-91084D02*
X117900Y-77400D01*
X125200Y-60800D02*
Y-45900D01*
X121800Y-64200D02*
X125200Y-60800D01*
X121800Y-87800D02*
Y-64200D01*
Y-87800D02*
X123200Y-89200D01*
X102300Y-23000D02*
X125200Y-45900D01*
X78800Y-85500D02*
X78900Y-85600D01*
X78800Y-85500D02*
Y-85100D01*
X27400Y-9947D02*
X41253Y-23800D01*
X41800D01*
X19741Y-9947D02*
X27400D01*
X63600Y-204344D02*
Y-197653D01*
X63600Y-197653D01*
X110000Y-154200D02*
X110600D01*
D11*
X23056Y-71100D02*
D03*
X17544D02*
D03*
X102456Y-189700D02*
D03*
X96944D02*
D03*
X102456Y-196900D02*
D03*
X96944D02*
D03*
X107544Y-199600D02*
D03*
X113056D02*
D03*
X136144Y-155500D02*
D03*
X141656D02*
D03*
Y-161600D02*
D03*
X136144D02*
D03*
X113056Y-193050D02*
D03*
X107544D02*
D03*
X25056Y-35900D02*
D03*
X19544D02*
D03*
X23156Y-64800D02*
D03*
X17644D02*
D03*
X119856Y-48700D02*
D03*
X114344D02*
D03*
X148644Y-66000D02*
D03*
X154156D02*
D03*
X154456Y-130400D02*
D03*
X148944D02*
D03*
X154456Y-102000D02*
D03*
X148944D02*
D03*
X116144Y-123400D02*
D03*
X121656D02*
D03*
X67444Y-140300D02*
D03*
X72956D02*
D03*
X73244Y-167200D02*
D03*
X78756D02*
D03*
X73244Y-172100D02*
D03*
X78756D02*
D03*
X121444Y-161400D02*
D03*
X126956D02*
D03*
X107544Y-186500D02*
D03*
X113056D02*
D03*
X107544Y-179950D02*
D03*
X113056D02*
D03*
X107544Y-173400D02*
D03*
X113056D02*
D03*
D12*
X67500Y-169656D02*
D03*
Y-164144D02*
D03*
X62200Y-169656D02*
D03*
Y-164144D02*
D03*
X77600Y-182756D02*
D03*
Y-177244D02*
D03*
X83133Y-182756D02*
D03*
Y-177244D02*
D03*
X130567Y-167744D02*
D03*
Y-173256D02*
D03*
X147467Y-167744D02*
D03*
Y-173256D02*
D03*
X153100Y-167744D02*
D03*
Y-173256D02*
D03*
X134400Y-111956D02*
D03*
Y-106444D02*
D03*
X67700Y-97744D02*
D03*
Y-103256D02*
D03*
X86900Y-47844D02*
D03*
Y-53356D02*
D03*
X93550Y-47844D02*
D03*
Y-53356D02*
D03*
X128400Y-57444D02*
D03*
Y-62956D02*
D03*
X134100Y-57444D02*
D03*
Y-62956D02*
D03*
X158500Y-116156D02*
D03*
Y-110644D02*
D03*
X58900Y-148144D02*
D03*
Y-153656D02*
D03*
X34300Y-191556D02*
D03*
Y-186044D02*
D03*
X63600Y-209856D02*
D03*
Y-204344D02*
D03*
X88667Y-182756D02*
D03*
Y-177244D02*
D03*
X94200Y-182756D02*
D03*
Y-177244D02*
D03*
X115000Y-150544D02*
D03*
Y-156056D02*
D03*
X120300Y-149444D02*
D03*
Y-154956D02*
D03*
X119000Y-186156D02*
D03*
Y-180644D02*
D03*
X124933Y-173256D02*
D03*
Y-167744D02*
D03*
X119300Y-173256D02*
D03*
Y-167744D02*
D03*
D13*
X151900Y-191793D02*
D03*
Y-203407D02*
D03*
D14*
X145896Y-197600D02*
D03*
X157924D02*
D03*
D15*
X136240Y-178947D02*
D03*
Y-184853D02*
D03*
X136200Y-167547D02*
D03*
Y-173453D02*
D03*
X141833Y-167547D02*
D03*
Y-173453D02*
D03*
X19741Y-9947D02*
D03*
Y-15853D02*
D03*
X100200Y-47647D02*
D03*
Y-53553D02*
D03*
X141100Y-46888D02*
D03*
Y-52794D02*
D03*
X82000Y-130853D02*
D03*
Y-124947D02*
D03*
X87800Y-130953D02*
D03*
Y-125047D02*
D03*
X34300Y-176953D02*
D03*
Y-171047D02*
D03*
X63600Y-191747D02*
D03*
Y-197653D02*
D03*
D16*
X164756Y-174016D02*
D03*
Y-167047D02*
D03*
X159047Y-174016D02*
D03*
Y-167047D02*
D03*
D17*
X46150Y-209471D02*
D03*
X52450D02*
D03*
Y-193329D02*
D03*
X46150D02*
D03*
X16450Y-209471D02*
D03*
X22750D02*
D03*
Y-193329D02*
D03*
X16450D02*
D03*
D18*
X76400Y-30758D02*
D03*
X66400D02*
D03*
X56400D02*
D03*
X46400D02*
D03*
X71400Y-13042D02*
D03*
X61400D02*
D03*
X51400D02*
D03*
X41400D02*
D03*
D19*
X23975Y-47220D02*
D03*
X22400D02*
D03*
X20825D02*
D03*
X23975Y-52180D02*
D03*
X22400D02*
D03*
X20825D02*
D03*
D20*
X22400Y-49700D02*
D03*
D21*
X44753Y-46200D02*
D03*
X38847D02*
D03*
X67447Y-75000D02*
D03*
X73353D02*
D03*
X67547Y-69100D02*
D03*
X73453D02*
D03*
X147747Y-52400D02*
D03*
X153653D02*
D03*
X21453Y-139500D02*
D03*
X15547D02*
D03*
X21353Y-149500D02*
D03*
X15447D02*
D03*
X21953Y-160900D02*
D03*
X16047D02*
D03*
X37753Y-136700D02*
D03*
X31847D02*
D03*
X37753Y-151800D02*
D03*
X31847D02*
D03*
X37753Y-144250D02*
D03*
X31847D02*
D03*
D22*
X12600Y-102445D02*
D03*
Y-111500D02*
D03*
D23*
X23132Y-101854D02*
D03*
Y-109531D02*
D03*
Y-112091D02*
D03*
Y-104413D02*
D03*
Y-106972D02*
D03*
D24*
X41160Y-111815D02*
D03*
X44900D02*
D03*
X48640D02*
D03*
X41160Y-101185D02*
D03*
X48640D02*
D03*
X44900D02*
D03*
D25*
X127838Y-100964D02*
D03*
Y-98995D02*
D03*
Y-97027D02*
D03*
Y-95058D02*
D03*
Y-93090D02*
D03*
Y-91121D02*
D03*
Y-89153D02*
D03*
Y-87184D02*
D03*
Y-85216D02*
D03*
Y-83247D02*
D03*
Y-81279D02*
D03*
Y-79310D02*
D03*
Y-77342D02*
D03*
Y-75373D02*
D03*
Y-73405D02*
D03*
Y-71436D02*
D03*
X82562D02*
D03*
Y-73405D02*
D03*
Y-75373D02*
D03*
Y-77342D02*
D03*
Y-79310D02*
D03*
Y-81279D02*
D03*
Y-83247D02*
D03*
Y-85216D02*
D03*
Y-87184D02*
D03*
Y-89153D02*
D03*
Y-91121D02*
D03*
Y-93090D02*
D03*
Y-95058D02*
D03*
Y-97027D02*
D03*
Y-98995D02*
D03*
Y-100964D02*
D03*
D26*
X119964Y-63562D02*
D03*
X117995D02*
D03*
X116027D02*
D03*
X114058D02*
D03*
X112090D02*
D03*
X110121D02*
D03*
X108153D02*
D03*
X106184D02*
D03*
X104216D02*
D03*
X102247D02*
D03*
X100279D02*
D03*
X98310D02*
D03*
X96342D02*
D03*
X94373D02*
D03*
X92405D02*
D03*
X90436D02*
D03*
Y-108838D02*
D03*
X92405D02*
D03*
X94373D02*
D03*
X96342D02*
D03*
X98310D02*
D03*
X100279D02*
D03*
X102247D02*
D03*
X104216D02*
D03*
X106184D02*
D03*
X108153D02*
D03*
X110121D02*
D03*
X112090D02*
D03*
X114058D02*
D03*
X116027D02*
D03*
X117995D02*
D03*
X119964D02*
D03*
D27*
X147176Y-77326D02*
D03*
X156624D02*
D03*
X147176Y-93074D02*
D03*
X156624D02*
D03*
D28*
X148600Y-110376D02*
D03*
Y-119824D02*
D03*
D29*
X67054Y-148241D02*
D03*
X73747D02*
D03*
X73747Y-153359D02*
D03*
X67054D02*
D03*
D30*
X88210Y-163044D02*
D03*
X90179D02*
D03*
X92147D02*
D03*
X94116D02*
D03*
X96084D02*
D03*
X98053D02*
D03*
X100021D02*
D03*
X101990D02*
D03*
Y-143556D02*
D03*
X100021D02*
D03*
X98053D02*
D03*
X96084D02*
D03*
X94116D02*
D03*
X92147D02*
D03*
X90179D02*
D03*
X88210D02*
D03*
D31*
X104844Y-160190D02*
D03*
Y-158221D02*
D03*
Y-156253D02*
D03*
Y-154284D02*
D03*
Y-152316D02*
D03*
Y-150347D02*
D03*
Y-148379D02*
D03*
Y-146410D02*
D03*
X85356D02*
D03*
Y-148379D02*
D03*
Y-150347D02*
D03*
Y-152316D02*
D03*
Y-154284D02*
D03*
Y-156253D02*
D03*
Y-158221D02*
D03*
Y-160190D02*
D03*
D32*
X95100Y-153300D02*
D03*
D33*
X14500Y-71100D02*
X17544D01*
X116027Y-63562D02*
Y-54727D01*
X114344Y-53044D02*
X116027Y-54727D01*
X114344Y-53044D02*
Y-48700D01*
X128400Y-62956D02*
X134100D01*
X127838Y-100964D02*
X133064D01*
X134400Y-102300D01*
Y-106444D02*
Y-102300D01*
X119964Y-112064D02*
Y-108838D01*
Y-112064D02*
X121656Y-113756D01*
Y-123400D02*
Y-113756D01*
X79936Y-100964D02*
X82562D01*
X77644Y-103256D02*
X79936Y-100964D01*
X67700Y-103256D02*
X77644D01*
X90436Y-63562D02*
Y-60636D01*
X86900Y-57100D02*
X90436Y-60636D01*
X86900Y-57100D02*
Y-53356D01*
X117500Y-156056D02*
X118600Y-154956D01*
X120044D02*
X120300D01*
X100021Y-163044D02*
Y-158221D01*
X104844D01*
X98053Y-156253D02*
X100021Y-158221D01*
X98053Y-163044D02*
Y-156253D01*
X100021Y-148379D02*
X104844D01*
X99431Y-148969D02*
X100021Y-148379D01*
X85356Y-154284D02*
X94116D01*
X108100Y-156253D02*
X109347Y-157500D01*
X113556D01*
X115000Y-156056D01*
X104844Y-156253D02*
X108100D01*
X115000Y-156056D02*
X117500D01*
X104844Y-146410D02*
Y-145656D01*
X106400Y-144100D01*
X115000Y-150544D02*
Y-147500D01*
X115000Y-147500D02*
X115000Y-147500D01*
X120300Y-149444D02*
Y-146400D01*
X126956Y-161400D02*
Y-158356D01*
X130567Y-167744D02*
Y-164700D01*
X124933Y-167744D02*
X130567D01*
X153100Y-176300D02*
Y-173256D01*
X147467Y-176300D02*
Y-173256D01*
X141833Y-176497D02*
Y-173453D01*
X63600Y-191747D02*
Y-188703D01*
X34300Y-194600D02*
Y-191556D01*
X22750Y-212515D02*
Y-209471D01*
Y-193329D02*
Y-190285D01*
X62200Y-172700D02*
Y-169656D01*
X67500Y-172700D02*
Y-169656D01*
X73244Y-175144D02*
Y-172100D01*
Y-167200D02*
Y-164156D01*
X77600Y-185800D02*
Y-182756D01*
X83133Y-185800D02*
Y-182756D01*
X88667Y-185800D02*
Y-182756D01*
X94200Y-185800D02*
Y-182756D01*
X113056Y-179950D02*
Y-179944D01*
X116000Y-177000D01*
X113062Y-186500D02*
X116006Y-189444D01*
X37753Y-151800D02*
X40797D01*
X37753Y-144250D02*
X40797D01*
X37753Y-136700D02*
X40797D01*
X58900Y-148144D02*
Y-145100D01*
X67054Y-148241D02*
Y-145197D01*
X67444Y-140300D02*
Y-137256D01*
X116144Y-123400D02*
Y-120356D01*
X118000Y-113744D02*
Y-110700D01*
X134400Y-115000D02*
Y-111956D01*
X158500Y-119200D02*
Y-116156D01*
X154456Y-130400D02*
Y-127356D01*
Y-102000D02*
X157500D01*
X157200Y-93400D02*
X160244D01*
X143756Y-77500D02*
X146800D01*
X148644Y-69044D02*
Y-66000D01*
X129500Y-79300D02*
X132544D01*
X128400Y-57444D02*
Y-54400D01*
X134100Y-57444D02*
Y-54400D01*
X119856Y-48700D02*
X122900D01*
X100200Y-47647D02*
Y-44603D01*
X93550Y-47844D02*
Y-44800D01*
X86900Y-47844D02*
Y-44800D01*
X92400Y-67944D02*
Y-64900D01*
X83900Y-99000D02*
X86944D01*
X64503Y-69100D02*
X67547D01*
X63556Y-74900D02*
X66600D01*
X56300Y-38244D02*
Y-35200D01*
X37056Y-12900D02*
X40100D01*
X16500Y-35900D02*
X19544D01*
X14600Y-64800D02*
X17644D01*
X7356Y-102400D02*
X10400D01*
X7156Y-111700D02*
X10200D01*
X46150Y-209471D02*
Y-206050D01*
Y-196750D02*
Y-193329D01*
X134100Y-66377D02*
Y-62956D01*
X110923Y-48700D02*
X114344D01*
X83479Y-53356D02*
X86900D01*
X121700Y-127821D02*
Y-124400D01*
X76400Y-38321D02*
Y-34900D01*
X77500Y-31100D02*
X80921D01*
X35426Y-46200D02*
X38847D01*
X19741Y-19274D02*
Y-15853D01*
X64279Y-103256D02*
X67700D01*
X65044Y-97744D02*
X67700D01*
X64100Y-96800D02*
X65044Y-97744D01*
X73747Y-153359D02*
X76387Y-156000D01*
X76400D01*
X34300Y-171047D02*
X37721D01*
X117995Y-63562D02*
Y-59505D01*
X119200Y-58300D01*
X124942Y-77342D02*
X127838D01*
X123700Y-76100D02*
X124942Y-77342D01*
X123700Y-76100D02*
Y-65500D01*
X126244Y-62956D01*
X128400D01*
X134400Y-106444D02*
X137944D01*
X138000Y-106500D01*
X153100Y-173256D02*
X158287D01*
X159047Y-174016D01*
X157924Y-197600D02*
X160968D01*
X146456Y-203600D02*
X149500D01*
X151900Y-206451D02*
Y-203407D01*
X154500Y-203400D02*
X157544D01*
X146256Y-191800D02*
X149300D01*
X151900Y-191793D02*
Y-188749D01*
X154300Y-191600D02*
X157344D01*
X41160Y-101185D02*
Y-98140D01*
X41200Y-98100D01*
X23132Y-114453D02*
Y-112091D01*
Y-114453D02*
X24411Y-115732D01*
X63400Y-215500D02*
Y-209856D01*
X63300Y-215600D02*
X63400Y-215500D01*
X95100Y-153300D02*
X99431Y-148969D01*
X95100Y-153300D02*
X98053Y-156253D01*
X94116Y-154284D02*
X95100Y-153300D01*
D34*
X208200Y-193000D02*
Y-174100D01*
Y-193000D02*
X304200D01*
Y-27500D01*
X201200D02*
X304200D01*
X201200Y-200000D02*
Y-27500D01*
Y-200000D02*
X311200D01*
Y-20500D01*
X194200D02*
X311200D01*
X194200Y-207000D02*
Y-20500D01*
Y-207000D02*
X318200D01*
Y-13500D01*
X187200D02*
X318200D01*
X187200Y-214000D02*
Y-13500D01*
Y-214000D02*
X325200D01*
Y-6500D01*
X180200D02*
X325200D01*
X180200Y-163500D02*
Y-6500D01*
X176653Y-167047D02*
X180200Y-163500D01*
X164756Y-167047D02*
X176653D01*
X164756Y-174016D02*
X174084D01*
X174100Y-174000D01*
D35*
X12600Y-121980D02*
D03*
Y-91965D02*
D03*
D36*
X24411Y-115732D02*
D03*
Y-98213D02*
D03*
D37*
X14500Y-71100D02*
D03*
X110300Y-153900D02*
D03*
X91100Y-125000D02*
D03*
X81700Y-153400D02*
D03*
X80900Y-146700D02*
D03*
X112300Y-69200D02*
D03*
X80500Y-142300D02*
D03*
X81500Y-136700D02*
D03*
X94900Y-131500D02*
D03*
X97700Y-129400D02*
D03*
X85000Y-142000D02*
D03*
X87500Y-140000D02*
D03*
X91500Y-133200D02*
D03*
X113500Y-58300D02*
D03*
X106400Y-144100D02*
D03*
X115000Y-147500D02*
D03*
X120300Y-146400D02*
D03*
X126956Y-158356D02*
D03*
X130567Y-164700D02*
D03*
X153100Y-176300D02*
D03*
X147467D02*
D03*
X141833Y-176497D02*
D03*
X63600Y-188703D02*
D03*
X34300Y-194600D02*
D03*
X22750Y-212515D02*
D03*
X22750Y-190285D02*
D03*
X62200Y-172700D02*
D03*
X67500D02*
D03*
X73244Y-175144D02*
D03*
X73244Y-164156D02*
D03*
X77600Y-185800D02*
D03*
X83133D02*
D03*
X88667D02*
D03*
X94200D02*
D03*
X116000Y-177000D02*
D03*
X116006Y-189444D02*
D03*
X40797Y-151800D02*
D03*
Y-144250D02*
D03*
Y-136700D02*
D03*
X58900Y-145100D02*
D03*
X67054Y-145197D02*
D03*
X67444Y-137256D02*
D03*
X116144Y-120356D02*
D03*
X118000Y-113744D02*
D03*
X134400Y-115000D02*
D03*
X158500Y-119200D02*
D03*
X154456Y-127356D02*
D03*
X157500Y-102000D02*
D03*
X160244Y-93400D02*
D03*
X143756Y-77500D02*
D03*
X148644Y-69044D02*
D03*
X132544Y-79300D02*
D03*
X128400Y-54400D02*
D03*
X134100D02*
D03*
X122900Y-48700D02*
D03*
X100200Y-44603D02*
D03*
X93550Y-44800D02*
D03*
X86900D02*
D03*
X92400Y-67944D02*
D03*
X86944Y-99000D02*
D03*
X64503Y-69100D02*
D03*
X56300Y-38244D02*
D03*
X37056Y-12900D02*
D03*
X16500Y-35900D02*
D03*
X14600Y-64800D02*
D03*
X7356Y-102400D02*
D03*
X7156Y-111700D02*
D03*
X46150Y-206050D02*
D03*
Y-196750D02*
D03*
X134100Y-66377D02*
D03*
X110923Y-48700D02*
D03*
X83479Y-53356D02*
D03*
X121700Y-127821D02*
D03*
X76400Y-38321D02*
D03*
X80921Y-31100D02*
D03*
X35426Y-46200D02*
D03*
X19741Y-19274D02*
D03*
X87200Y-88500D02*
D03*
X82600Y-69100D02*
D03*
X67700Y-82200D02*
D03*
X71500Y-75000D02*
D03*
X72600Y-65100D02*
D03*
X64279Y-103256D02*
D03*
X63556Y-74900D02*
D03*
X71200Y-20700D02*
D03*
X66400Y-38400D02*
D03*
X64100Y-96800D02*
D03*
X144200Y-47200D02*
D03*
X147800Y-56000D02*
D03*
X108900Y-118800D02*
D03*
X105000Y-117600D02*
D03*
X102500Y-114900D02*
D03*
X66700Y-113500D02*
D03*
X62200Y-99600D02*
D03*
X106600Y-101900D02*
D03*
X84600Y-110800D02*
D03*
X107100Y-97900D02*
D03*
X84000Y-107100D02*
D03*
X115500Y-115900D02*
D03*
X123200Y-89200D02*
D03*
X38700Y-186000D02*
D03*
X58000Y-191400D02*
D03*
X76400Y-156000D02*
D03*
X37721Y-171047D02*
D03*
X115800Y-128100D02*
D03*
X115600Y-73700D02*
D03*
X119200Y-58300D02*
D03*
X116800Y-70400D02*
D03*
X138000Y-106500D02*
D03*
X174100Y-174000D02*
D03*
X208300Y-174100D02*
D03*
X160968Y-197600D02*
D03*
X146456Y-203600D02*
D03*
X151900Y-206451D02*
D03*
X157544Y-203400D02*
D03*
X146256Y-191800D02*
D03*
X151900Y-188749D02*
D03*
X157344Y-191600D02*
D03*
X41200Y-98100D02*
D03*
X28600Y-50000D02*
D03*
X30100Y-52200D02*
D03*
X31700Y-50000D02*
D03*
X34800D02*
D03*
X33200Y-52100D02*
D03*
X9900Y-45300D02*
D03*
Y-39400D02*
D03*
Y-33500D02*
D03*
Y-27600D02*
D03*
Y-21700D02*
D03*
X15800D02*
D03*
X21700D02*
D03*
X27600D02*
D03*
X33500D02*
D03*
Y-27600D02*
D03*
X27600D02*
D03*
X21700D02*
D03*
X15800D02*
D03*
X33500Y-33500D02*
D03*
Y-39400D02*
D03*
X27600D02*
D03*
X15800D02*
D03*
X167500Y-5000D02*
D03*
X161600Y-5000D02*
D03*
X155700D02*
D03*
X149800D02*
D03*
X143900D02*
D03*
X120300D02*
D03*
X126200D02*
D03*
X132100D02*
D03*
X138000D02*
D03*
X96700D02*
D03*
X102600D02*
D03*
X108500D02*
D03*
X114400D02*
D03*
X73100D02*
D03*
X79000D02*
D03*
X84900D02*
D03*
X90800D02*
D03*
X49500D02*
D03*
X55400D02*
D03*
X61300D02*
D03*
X67200D02*
D03*
X25900D02*
D03*
X31800D02*
D03*
X37700D02*
D03*
X43600D02*
D03*
X14100D02*
D03*
X20000D02*
D03*
X5000Y-50200D02*
D03*
Y-56100D02*
D03*
Y-26600D02*
D03*
Y-32500D02*
D03*
Y-38400D02*
D03*
Y-44300D02*
D03*
Y-14800D02*
D03*
Y-20700D02*
D03*
Y-97400D02*
D03*
Y-73800D02*
D03*
Y-79700D02*
D03*
Y-85600D02*
D03*
Y-91500D02*
D03*
Y-62000D02*
D03*
Y-67900D02*
D03*
Y-144600D02*
D03*
Y-150500D02*
D03*
Y-121000D02*
D03*
Y-126900D02*
D03*
Y-132800D02*
D03*
Y-138700D02*
D03*
Y-115100D02*
D03*
Y-191800D02*
D03*
Y-197700D02*
D03*
Y-168200D02*
D03*
Y-174100D02*
D03*
Y-180000D02*
D03*
Y-185900D02*
D03*
Y-156400D02*
D03*
Y-162300D02*
D03*
Y-203600D02*
D03*
Y-209500D02*
D03*
X8200Y-215472D02*
D03*
X20000D02*
D03*
X14100D02*
D03*
X43600D02*
D03*
X37700D02*
D03*
X31800D02*
D03*
X25900D02*
D03*
X49500D02*
D03*
X90800D02*
D03*
X84900D02*
D03*
X79000D02*
D03*
X114400D02*
D03*
X108500D02*
D03*
X102600D02*
D03*
X96700D02*
D03*
X138000D02*
D03*
X132100D02*
D03*
X126200D02*
D03*
X120300D02*
D03*
X143900D02*
D03*
X149800D02*
D03*
X155700D02*
D03*
X161600D02*
D03*
X167500D02*
D03*
Y-202716D02*
D03*
Y-209095D02*
D03*
Y-183583D02*
D03*
Y-189961D02*
D03*
Y-196339D02*
D03*
Y-138937D02*
D03*
Y-145315D02*
D03*
Y-151693D02*
D03*
Y-158071D02*
D03*
Y-113425D02*
D03*
Y-119803D02*
D03*
Y-126181D02*
D03*
Y-132559D02*
D03*
Y-87913D02*
D03*
Y-94291D02*
D03*
Y-100669D02*
D03*
Y-107047D02*
D03*
Y-81536D02*
D03*
Y-75157D02*
D03*
Y-68779D02*
D03*
Y-62402D02*
D03*
Y-56024D02*
D03*
Y-43268D02*
D03*
Y-49646D02*
D03*
Y-17756D02*
D03*
Y-24134D02*
D03*
Y-30512D02*
D03*
Y-36890D02*
D03*
Y-11378D02*
D03*
X78800Y-85100D02*
D03*
X55400Y-215472D02*
D03*
X63300Y-215600D02*
D03*
X73100Y-215472D02*
D03*
X90769Y-148969D02*
D03*
X95100D02*
D03*
X99431D02*
D03*
X90769Y-157631D02*
D03*
X95100D02*
D03*
Y-153300D02*
D03*
X90769D02*
D03*
X99431Y-157631D02*
D03*
Y-153300D02*
D03*
M02*
