G04 Layer_Physical_Order=4*
G04 Layer_Color=16763904*
%FSLAX25Y25*%
%MOIN*%
G70*
G01*
G75*
%ADD10C,0.00700*%
%ADD34C,0.05000*%
G04:AMPARAMS|DCode=35|XSize=74.8mil|YSize=95.47mil|CornerRadius=22.44mil|HoleSize=0mil|Usage=FLASHONLY|Rotation=0.000|XOffset=0mil|YOffset=0mil|HoleType=Round|Shape=RoundedRectangle|*
%AMROUNDEDRECTD35*
21,1,0.07480,0.05059,0,0,0.0*
21,1,0.02992,0.09547,0,0,0.0*
1,1,0.04488,0.01496,-0.02530*
1,1,0.04488,-0.01496,-0.02530*
1,1,0.04488,-0.01496,0.02530*
1,1,0.04488,0.01496,0.02530*
%
%ADD35ROUNDEDRECTD35*%
G04:AMPARAMS|DCode=36|XSize=49.21mil|YSize=43.31mil|CornerRadius=18.19mil|HoleSize=0mil|Usage=FLASHONLY|Rotation=0.000|XOffset=0mil|YOffset=0mil|HoleType=Round|Shape=RoundedRectangle|*
%AMROUNDEDRECTD36*
21,1,0.04921,0.00693,0,0,0.0*
21,1,0.01284,0.04331,0,0,0.0*
1,1,0.03638,0.00642,-0.00346*
1,1,0.03638,-0.00642,-0.00346*
1,1,0.03638,-0.00642,0.00346*
1,1,0.03638,0.00642,0.00346*
%
%ADD36ROUNDEDRECTD36*%
%ADD37C,0.02400*%
%ADD42C,0.04724*%
G36*
X12000Y-1173D02*
X14472D01*
X14500Y-1200D01*
X171759D01*
X171800Y-1300D01*
Y-159100D01*
X168500Y-162400D01*
Y-181800D01*
X171800Y-185100D01*
Y-219300D01*
X10515D01*
X8583Y-218916D01*
X6763Y-218162D01*
X5125Y-217068D01*
X3732Y-215675D01*
X2638Y-214037D01*
X1884Y-212217D01*
X1500Y-210285D01*
Y-209300D01*
Y-11100D01*
Y-10115D01*
X1884Y-8183D01*
X2638Y-6363D01*
X3732Y-4725D01*
X5125Y-3333D01*
X6763Y-2238D01*
X8583Y-1484D01*
X10515Y-1100D01*
X11635D01*
X12000Y-1173D01*
D02*
G37*
%LPC*%
G36*
X9900Y-37514D02*
X9178Y-37657D01*
X8566Y-38066D01*
X8157Y-38678D01*
X8014Y-39400D01*
X8157Y-40122D01*
X8566Y-40734D01*
X9178Y-41143D01*
X9900Y-41286D01*
X10622Y-41143D01*
X11234Y-40734D01*
X11643Y-40122D01*
X11786Y-39400D01*
X11643Y-38678D01*
X11234Y-38066D01*
X10622Y-37657D01*
X9900Y-37514D01*
D02*
G37*
G36*
Y-43414D02*
X9178Y-43557D01*
X8566Y-43966D01*
X8157Y-44578D01*
X8014Y-45300D01*
X8157Y-46022D01*
X8566Y-46634D01*
X9178Y-47043D01*
X9900Y-47186D01*
X10622Y-47043D01*
X11234Y-46634D01*
X11643Y-46022D01*
X11786Y-45300D01*
X11643Y-44578D01*
X11234Y-43966D01*
X10622Y-43557D01*
X9900Y-43414D01*
D02*
G37*
G36*
X35426Y-44314D02*
X34704Y-44457D01*
X34092Y-44866D01*
X33683Y-45478D01*
X33540Y-46200D01*
X33683Y-46922D01*
X34092Y-47534D01*
X34704Y-47943D01*
X35426Y-48086D01*
X36148Y-47943D01*
X36760Y-47534D01*
X37169Y-46922D01*
X37312Y-46200D01*
X37169Y-45478D01*
X36760Y-44866D01*
X36148Y-44457D01*
X35426Y-44314D01*
D02*
G37*
G36*
X33500Y-37514D02*
X32778Y-37657D01*
X32166Y-38066D01*
X31757Y-38678D01*
X31614Y-39400D01*
X31757Y-40122D01*
X32166Y-40734D01*
X32778Y-41143D01*
X33500Y-41286D01*
X34222Y-41143D01*
X34834Y-40734D01*
X35243Y-40122D01*
X35386Y-39400D01*
X35243Y-38678D01*
X34834Y-38066D01*
X34222Y-37657D01*
X33500Y-37514D01*
D02*
G37*
G36*
X27600D02*
X26878Y-37657D01*
X26266Y-38066D01*
X25857Y-38678D01*
X25714Y-39400D01*
X25857Y-40122D01*
X26266Y-40734D01*
X26878Y-41143D01*
X27600Y-41286D01*
X28322Y-41143D01*
X28934Y-40734D01*
X29343Y-40122D01*
X29486Y-39400D01*
X29343Y-38678D01*
X28934Y-38066D01*
X28322Y-37657D01*
X27600Y-37514D01*
D02*
G37*
G36*
X15800D02*
X15078Y-37657D01*
X14466Y-38066D01*
X14057Y-38678D01*
X13914Y-39400D01*
X14057Y-40122D01*
X14466Y-40734D01*
X15078Y-41143D01*
X15800Y-41286D01*
X16522Y-41143D01*
X17134Y-40734D01*
X17543Y-40122D01*
X17686Y-39400D01*
X17543Y-38678D01*
X17134Y-38066D01*
X16522Y-37657D01*
X15800Y-37514D01*
D02*
G37*
G36*
X83479Y-51470D02*
X82757Y-51613D01*
X82145Y-52022D01*
X81736Y-52634D01*
X81593Y-53356D01*
X81736Y-54078D01*
X82145Y-54690D01*
X82757Y-55099D01*
X83479Y-55242D01*
X84201Y-55099D01*
X84812Y-54690D01*
X85221Y-54078D01*
X85365Y-53356D01*
X85221Y-52634D01*
X84812Y-52022D01*
X84201Y-51613D01*
X83479Y-51470D01*
D02*
G37*
G36*
X134200Y-29562D02*
X133414Y-29665D01*
X132681Y-29969D01*
X132052Y-30452D01*
X131569Y-31081D01*
X131265Y-31814D01*
X131162Y-32600D01*
X131265Y-33386D01*
X131569Y-34119D01*
X132052Y-34748D01*
X132681Y-35231D01*
X133414Y-35535D01*
X134200Y-35638D01*
X134986Y-35535D01*
X135486Y-35328D01*
X143180Y-43022D01*
Y-45656D01*
X142866Y-45866D01*
X142457Y-46478D01*
X142314Y-47200D01*
X142457Y-47922D01*
X142866Y-48534D01*
X143478Y-48943D01*
X144080Y-49062D01*
Y-61278D01*
X135776Y-69582D01*
X135590Y-69458D01*
X135200Y-69380D01*
X118344D01*
X118134Y-69066D01*
X117522Y-68657D01*
X116800Y-68514D01*
X116078Y-68657D01*
X115466Y-69066D01*
X115057Y-69678D01*
X114914Y-70400D01*
X115057Y-71122D01*
X115228Y-71378D01*
X114998Y-71934D01*
X114878Y-71957D01*
X114320Y-72331D01*
X114079Y-72269D01*
X113820Y-72135D01*
Y-70256D01*
X114043Y-69922D01*
X114186Y-69200D01*
X114043Y-68478D01*
X113634Y-67866D01*
X113320Y-67656D01*
Y-64822D01*
X117321Y-60821D01*
X117542Y-60490D01*
X117620Y-60100D01*
Y-35599D01*
X118111Y-35535D01*
X118844Y-35231D01*
X119473Y-34748D01*
X119956Y-34119D01*
X120260Y-33386D01*
X120363Y-32600D01*
X120260Y-31814D01*
X119956Y-31081D01*
X119473Y-30452D01*
X118844Y-29969D01*
X118111Y-29665D01*
X117325Y-29562D01*
X116539Y-29665D01*
X115806Y-29969D01*
X115177Y-30452D01*
X114694Y-31081D01*
X114390Y-31814D01*
X114287Y-32600D01*
X114390Y-33386D01*
X114694Y-34119D01*
X115177Y-34748D01*
X115580Y-35058D01*
Y-57184D01*
X115080Y-57335D01*
X114834Y-56966D01*
X114520Y-56756D01*
Y-45900D01*
X114442Y-45510D01*
X114221Y-45179D01*
X103104Y-34063D01*
X103385Y-33386D01*
X103488Y-32600D01*
X103385Y-31814D01*
X103081Y-31081D01*
X102598Y-30452D01*
X101969Y-29969D01*
X101236Y-29665D01*
X100450Y-29562D01*
X99664Y-29665D01*
X98931Y-29969D01*
X98302Y-30452D01*
X97819Y-31081D01*
X97515Y-31814D01*
X97412Y-32600D01*
X97515Y-33386D01*
X97819Y-34119D01*
X98302Y-34748D01*
X98931Y-35231D01*
X99664Y-35535D01*
X100450Y-35638D01*
X101236Y-35535D01*
X101559Y-35401D01*
X112480Y-46322D01*
Y-46914D01*
X111980Y-47182D01*
X111645Y-46957D01*
X110923Y-46814D01*
X110201Y-46957D01*
X109589Y-47366D01*
X109180Y-47978D01*
X109037Y-48700D01*
X109180Y-49422D01*
X109589Y-50034D01*
X110201Y-50443D01*
X110923Y-50586D01*
X111645Y-50443D01*
X111980Y-50218D01*
X112480Y-50486D01*
Y-56756D01*
X112166Y-56966D01*
X111757Y-57578D01*
X111614Y-58300D01*
X111757Y-59022D01*
X111829Y-59129D01*
X109279Y-61679D01*
X109058Y-62010D01*
X108980Y-62400D01*
Y-96484D01*
X108480Y-96636D01*
X108434Y-96566D01*
X107822Y-96157D01*
X107100Y-96014D01*
X106378Y-96157D01*
X105766Y-96566D01*
X105357Y-97178D01*
X105214Y-97900D01*
X105288Y-98271D01*
X97778Y-105780D01*
X85343D01*
X85334Y-105766D01*
X84722Y-105357D01*
X84000Y-105214D01*
X83278Y-105357D01*
X82666Y-105766D01*
X82257Y-106378D01*
X82114Y-107100D01*
X82257Y-107822D01*
X82666Y-108434D01*
X83278Y-108843D01*
X83295Y-108846D01*
X83400Y-109377D01*
X83266Y-109466D01*
X82857Y-110078D01*
X82714Y-110800D01*
X82857Y-111522D01*
X83266Y-112134D01*
X83878Y-112543D01*
X84600Y-112686D01*
X85322Y-112543D01*
X85934Y-112134D01*
X86343Y-111522D01*
X86486Y-110800D01*
X86413Y-110429D01*
X87022Y-109820D01*
X99700D01*
X99989Y-109762D01*
X100241Y-110079D01*
X100284Y-110175D01*
X87879Y-122579D01*
X87658Y-122910D01*
X87580Y-123300D01*
Y-130300D01*
X87658Y-130690D01*
X87879Y-131021D01*
X89493Y-132635D01*
X89449Y-132900D01*
X88913Y-133071D01*
X81370Y-125528D01*
Y-96472D01*
X87519Y-90323D01*
X87922Y-90243D01*
X88534Y-89834D01*
X88943Y-89222D01*
X89086Y-88500D01*
X89012Y-88129D01*
X99154Y-77987D01*
X99653Y-78020D01*
X99752Y-78148D01*
X100381Y-78631D01*
X101114Y-78935D01*
X101900Y-79038D01*
X102686Y-78935D01*
X103419Y-78631D01*
X104048Y-78148D01*
X104531Y-77519D01*
X104835Y-76786D01*
X104938Y-76000D01*
X104835Y-75214D01*
X104531Y-74481D01*
X104048Y-73852D01*
X103419Y-73369D01*
X102686Y-73065D01*
X101900Y-72962D01*
X101114Y-73065D01*
X100381Y-73369D01*
X99752Y-73852D01*
X99269Y-74481D01*
X98965Y-75214D01*
X98953Y-75305D01*
X87571Y-86687D01*
X87200Y-86614D01*
X86478Y-86757D01*
X85866Y-87166D01*
X85457Y-87778D01*
X85314Y-88500D01*
X85457Y-89222D01*
X85569Y-89389D01*
X79880Y-95078D01*
X79380Y-94871D01*
Y-86871D01*
X79522Y-86843D01*
X80134Y-86434D01*
X80543Y-85822D01*
X80686Y-85100D01*
X80612Y-84729D01*
X88109Y-77233D01*
X88692Y-77334D01*
X88769Y-77519D01*
X89252Y-78148D01*
X89881Y-78631D01*
X90614Y-78935D01*
X91400Y-79038D01*
X92186Y-78935D01*
X92919Y-78631D01*
X93548Y-78148D01*
X94031Y-77519D01*
X94335Y-76786D01*
X94438Y-76000D01*
X94335Y-75214D01*
X94031Y-74481D01*
X93548Y-73852D01*
X92919Y-73369D01*
X92186Y-73065D01*
X91400Y-72962D01*
X90614Y-73065D01*
X89881Y-73369D01*
X89252Y-73852D01*
X88769Y-74481D01*
X88562Y-74980D01*
X87900D01*
X87510Y-75058D01*
X87179Y-75279D01*
X79171Y-83288D01*
X78800Y-83214D01*
X78078Y-83357D01*
X77890Y-83483D01*
X77390Y-83216D01*
Y-70027D01*
X80314Y-67103D01*
X80814Y-67310D01*
X81011Y-67336D01*
X81107Y-67498D01*
X81200Y-67865D01*
X80857Y-68378D01*
X80714Y-69100D01*
X80857Y-69822D01*
X81266Y-70434D01*
X81878Y-70843D01*
X82600Y-70986D01*
X83322Y-70843D01*
X83934Y-70434D01*
X84343Y-69822D01*
X84486Y-69100D01*
X84343Y-68378D01*
X83934Y-67766D01*
X83620Y-67556D01*
Y-66622D01*
X83748Y-66523D01*
X84231Y-65894D01*
X84535Y-65161D01*
X84638Y-64375D01*
X84535Y-63589D01*
X84231Y-62856D01*
X83748Y-62227D01*
X83119Y-61744D01*
X82386Y-61440D01*
X81600Y-61337D01*
X80814Y-61440D01*
X80081Y-61744D01*
X79452Y-62227D01*
X78969Y-62856D01*
X78665Y-63589D01*
X78562Y-64375D01*
X78665Y-65161D01*
X78872Y-65661D01*
X75481Y-69052D01*
X75101Y-69354D01*
X74770Y-69133D01*
X74558Y-69091D01*
X72903Y-67436D01*
X73067Y-66893D01*
X73322Y-66843D01*
X73934Y-66434D01*
X74343Y-65822D01*
X74486Y-65100D01*
X74343Y-64378D01*
X73934Y-63766D01*
X73322Y-63357D01*
X72600Y-63214D01*
X71878Y-63357D01*
X71797Y-63412D01*
X71188Y-63235D01*
X71031Y-62856D01*
X70548Y-62227D01*
X69919Y-61744D01*
X69186Y-61440D01*
X68400Y-61337D01*
X67614Y-61440D01*
X66881Y-61744D01*
X66252Y-62227D01*
X65769Y-62856D01*
X65465Y-63589D01*
X65362Y-64375D01*
X65465Y-65161D01*
X65769Y-65894D01*
X66252Y-66523D01*
X66881Y-67006D01*
X67614Y-67310D01*
X68400Y-67413D01*
X69186Y-67310D01*
X69686Y-67103D01*
X73360Y-70777D01*
Y-73554D01*
X72860Y-73706D01*
X72834Y-73666D01*
X72222Y-73257D01*
X71500Y-73114D01*
X70778Y-73257D01*
X70485Y-73453D01*
X69919Y-73019D01*
X69186Y-72715D01*
X68400Y-72612D01*
X67614Y-72715D01*
X66881Y-73019D01*
X66252Y-73502D01*
X65769Y-74131D01*
X65465Y-74864D01*
X65362Y-75650D01*
X65465Y-76436D01*
X65769Y-77169D01*
X66252Y-77798D01*
X66881Y-78281D01*
X67614Y-78585D01*
X68400Y-78688D01*
X69186Y-78585D01*
X69686Y-78378D01*
X71370Y-80062D01*
Y-85027D01*
X70870Y-85196D01*
X70548Y-84777D01*
X69919Y-84294D01*
X69226Y-84007D01*
X69145Y-83807D01*
X69075Y-83471D01*
X69443Y-82922D01*
X69586Y-82200D01*
X69443Y-81478D01*
X69034Y-80866D01*
X68422Y-80457D01*
X67700Y-80314D01*
X66978Y-80457D01*
X66366Y-80866D01*
X65957Y-81478D01*
X65814Y-82200D01*
X65957Y-82922D01*
X66366Y-83534D01*
X66680Y-83744D01*
Y-84448D01*
X66252Y-84777D01*
X65769Y-85406D01*
X65465Y-86139D01*
X65362Y-86925D01*
X65465Y-87711D01*
X65769Y-88444D01*
X66252Y-89073D01*
X66881Y-89556D01*
X67614Y-89860D01*
X68400Y-89963D01*
X68880Y-89900D01*
X69380Y-90281D01*
Y-146400D01*
X69458Y-146790D01*
X69679Y-147121D01*
X83779Y-161221D01*
X84110Y-161442D01*
X84500Y-161520D01*
X85754D01*
X85803Y-162020D01*
X85610Y-162058D01*
X85279Y-162279D01*
X75879Y-171679D01*
X75658Y-172010D01*
X75580Y-172400D01*
Y-178878D01*
X64078Y-190380D01*
X59544D01*
X59334Y-190066D01*
X58722Y-189657D01*
X58000Y-189514D01*
X57278Y-189657D01*
X56666Y-190066D01*
X56257Y-190678D01*
X56114Y-191400D01*
X56257Y-192122D01*
X56430Y-192380D01*
X56163Y-192880D01*
X55422D01*
X47821Y-185279D01*
X47490Y-185058D01*
X47100Y-184980D01*
X40244D01*
X40034Y-184666D01*
X39422Y-184257D01*
X38700Y-184114D01*
X37978Y-184257D01*
X37366Y-184666D01*
X36957Y-185278D01*
X36814Y-186000D01*
X36957Y-186722D01*
X37366Y-187334D01*
X37978Y-187743D01*
X38700Y-187886D01*
X39422Y-187743D01*
X40034Y-187334D01*
X40244Y-187020D01*
X46678D01*
X54279Y-194621D01*
X54610Y-194842D01*
X55000Y-194920D01*
X65600D01*
X65990Y-194842D01*
X66321Y-194621D01*
X79221Y-181721D01*
X79442Y-181390D01*
X79520Y-181000D01*
Y-173722D01*
X87222Y-166020D01*
X110900D01*
X111290Y-165942D01*
X111621Y-165721D01*
X129621Y-147721D01*
X129842Y-147390D01*
X129920Y-147000D01*
Y-119700D01*
X129842Y-119310D01*
X129621Y-118979D01*
X124220Y-113578D01*
Y-90744D01*
X124534Y-90534D01*
X124943Y-89922D01*
X125086Y-89200D01*
X124943Y-88478D01*
X124534Y-87866D01*
X123922Y-87457D01*
X123200Y-87314D01*
X122478Y-87457D01*
X121866Y-87866D01*
X121457Y-88478D01*
X121314Y-89200D01*
X121457Y-89922D01*
X121866Y-90534D01*
X122180Y-90744D01*
Y-114000D01*
X122258Y-114390D01*
X122267Y-114404D01*
X122193Y-114615D01*
X121984Y-114880D01*
X118955D01*
X118734Y-114925D01*
X117266D01*
X117045Y-114880D01*
X117044D01*
X116834Y-114566D01*
X116222Y-114157D01*
X115500Y-114014D01*
X114778Y-114157D01*
X114320Y-114464D01*
X113820Y-114253D01*
Y-75265D01*
X114079Y-75131D01*
X114320Y-75069D01*
X114878Y-75443D01*
X115600Y-75586D01*
X116322Y-75443D01*
X116934Y-75034D01*
X117144Y-74720D01*
X136000D01*
X136390Y-74642D01*
X136721Y-74421D01*
X148521Y-62621D01*
X148742Y-62290D01*
X148820Y-61900D01*
Y-57544D01*
X149134Y-57334D01*
X149344Y-57020D01*
X157723D01*
X158052Y-57448D01*
X158681Y-57931D01*
X159414Y-58235D01*
X160200Y-58338D01*
X160986Y-58235D01*
X161719Y-57931D01*
X162348Y-57448D01*
X162831Y-56819D01*
X163135Y-56086D01*
X163238Y-55300D01*
X163135Y-54514D01*
X162831Y-53781D01*
X162348Y-53152D01*
X161719Y-52669D01*
X160986Y-52365D01*
X160200Y-52262D01*
X159414Y-52365D01*
X158681Y-52669D01*
X158052Y-53152D01*
X157569Y-53781D01*
X157265Y-54514D01*
X157204Y-54980D01*
X149344D01*
X149134Y-54666D01*
X148522Y-54257D01*
X147800Y-54114D01*
X147078Y-54257D01*
X146620Y-54564D01*
X146120Y-54353D01*
Y-48100D01*
X146042Y-47710D01*
X145998Y-47644D01*
X146086Y-47200D01*
X145943Y-46478D01*
X145534Y-45866D01*
X145220Y-45656D01*
Y-42600D01*
X145142Y-42210D01*
X144921Y-41879D01*
X136928Y-33886D01*
X137135Y-33386D01*
X137238Y-32600D01*
X137135Y-31814D01*
X136831Y-31081D01*
X136348Y-30452D01*
X135719Y-29969D01*
X134986Y-29665D01*
X134200Y-29562D01*
D02*
G37*
G36*
X46150Y-194864D02*
X45429Y-195008D01*
X44817Y-195417D01*
X44408Y-196029D01*
X44264Y-196750D01*
X44408Y-197472D01*
X44817Y-198084D01*
X45429Y-198493D01*
X46150Y-198637D01*
X46872Y-198493D01*
X47484Y-198084D01*
X47893Y-197472D01*
X48037Y-196750D01*
X47893Y-196029D01*
X47484Y-195417D01*
X46872Y-195008D01*
X46150Y-194864D01*
D02*
G37*
G36*
X37721Y-169161D02*
X36999Y-169305D01*
X36388Y-169713D01*
X35979Y-170325D01*
X35835Y-171047D01*
X35979Y-171769D01*
X36388Y-172381D01*
X36999Y-172790D01*
X37721Y-172933D01*
X38443Y-172790D01*
X39055Y-172381D01*
X39464Y-171769D01*
X39608Y-171047D01*
X39464Y-170325D01*
X39055Y-169713D01*
X38443Y-169305D01*
X37721Y-169161D01*
D02*
G37*
G36*
X138000Y-104614D02*
X137278Y-104757D01*
X136666Y-105166D01*
X136257Y-105778D01*
X136114Y-106500D01*
X136257Y-107222D01*
X136666Y-107834D01*
X137278Y-108243D01*
X138000Y-108386D01*
X138722Y-108243D01*
X139334Y-107834D01*
X139743Y-107222D01*
X139886Y-106500D01*
X139743Y-105778D01*
X139334Y-105166D01*
X138722Y-104757D01*
X138000Y-104614D01*
D02*
G37*
G36*
X46150Y-204163D02*
X45429Y-204307D01*
X44817Y-204716D01*
X44408Y-205328D01*
X44264Y-206050D01*
X44408Y-206771D01*
X44817Y-207383D01*
X45429Y-207792D01*
X46150Y-207936D01*
X46872Y-207792D01*
X47484Y-207383D01*
X47893Y-206771D01*
X48037Y-206050D01*
X47893Y-205328D01*
X47484Y-204716D01*
X46872Y-204307D01*
X46150Y-204163D01*
D02*
G37*
G36*
X134100Y-64491D02*
X133378Y-64635D01*
X132766Y-65043D01*
X132357Y-65655D01*
X132214Y-66377D01*
X132357Y-67099D01*
X132766Y-67711D01*
X133378Y-68120D01*
X134100Y-68263D01*
X134822Y-68120D01*
X135434Y-67711D01*
X135843Y-67099D01*
X135986Y-66377D01*
X135843Y-65655D01*
X135434Y-65043D01*
X134822Y-64635D01*
X134100Y-64491D01*
D02*
G37*
G36*
X76400Y-36435D02*
X75678Y-36579D01*
X75066Y-36988D01*
X74657Y-37599D01*
X74514Y-38321D01*
X74657Y-39043D01*
X75066Y-39655D01*
X75678Y-40064D01*
X76400Y-40207D01*
X77122Y-40064D01*
X77734Y-39655D01*
X78143Y-39043D01*
X78286Y-38321D01*
X78143Y-37599D01*
X77734Y-36988D01*
X77122Y-36579D01*
X76400Y-36435D01*
D02*
G37*
G36*
X9900Y-19814D02*
X9178Y-19957D01*
X8566Y-20366D01*
X8157Y-20978D01*
X8014Y-21700D01*
X8157Y-22422D01*
X8566Y-23034D01*
X9178Y-23443D01*
X9900Y-23586D01*
X10622Y-23443D01*
X11234Y-23034D01*
X11643Y-22422D01*
X11786Y-21700D01*
X11643Y-20978D01*
X11234Y-20366D01*
X10622Y-19957D01*
X9900Y-19814D01*
D02*
G37*
G36*
X33500Y-25714D02*
X32778Y-25857D01*
X32166Y-26266D01*
X31757Y-26878D01*
X31614Y-27600D01*
X31757Y-28322D01*
X32166Y-28934D01*
X32778Y-29343D01*
X33500Y-29486D01*
X34222Y-29343D01*
X34834Y-28934D01*
X35243Y-28322D01*
X35386Y-27600D01*
X35243Y-26878D01*
X34834Y-26266D01*
X34222Y-25857D01*
X33500Y-25714D01*
D02*
G37*
G36*
X27600D02*
X26878Y-25857D01*
X26266Y-26266D01*
X25857Y-26878D01*
X25714Y-27600D01*
X25857Y-28322D01*
X26266Y-28934D01*
X26878Y-29343D01*
X27600Y-29486D01*
X28322Y-29343D01*
X28934Y-28934D01*
X29343Y-28322D01*
X29486Y-27600D01*
X29343Y-26878D01*
X28934Y-26266D01*
X28322Y-25857D01*
X27600Y-25714D01*
D02*
G37*
G36*
X15800Y-19814D02*
X15078Y-19957D01*
X14466Y-20366D01*
X14057Y-20978D01*
X13914Y-21700D01*
X14057Y-22422D01*
X14466Y-23034D01*
X15078Y-23443D01*
X15800Y-23586D01*
X16522Y-23443D01*
X17134Y-23034D01*
X17543Y-22422D01*
X17686Y-21700D01*
X17543Y-20978D01*
X17134Y-20366D01*
X16522Y-19957D01*
X15800Y-19814D01*
D02*
G37*
G36*
X33500D02*
X32778Y-19957D01*
X32166Y-20366D01*
X31757Y-20978D01*
X31614Y-21700D01*
X31757Y-22422D01*
X32166Y-23034D01*
X32778Y-23443D01*
X33500Y-23586D01*
X34222Y-23443D01*
X34834Y-23034D01*
X35243Y-22422D01*
X35386Y-21700D01*
X35243Y-20978D01*
X34834Y-20366D01*
X34222Y-19957D01*
X33500Y-19814D01*
D02*
G37*
G36*
X27600D02*
X26878Y-19957D01*
X26266Y-20366D01*
X25857Y-20978D01*
X25714Y-21700D01*
X25857Y-22422D01*
X26266Y-23034D01*
X26878Y-23443D01*
X27600Y-23586D01*
X28322Y-23443D01*
X28934Y-23034D01*
X29343Y-22422D01*
X29486Y-21700D01*
X29343Y-20978D01*
X28934Y-20366D01*
X28322Y-19957D01*
X27600Y-19814D01*
D02*
G37*
G36*
X19741Y-17388D02*
X19019Y-17531D01*
X18407Y-17940D01*
X17998Y-18552D01*
X17855Y-19274D01*
X17998Y-19996D01*
X18407Y-20608D01*
X19019Y-21017D01*
X19424Y-21097D01*
X19831Y-21613D01*
X19814Y-21700D01*
X19957Y-22422D01*
X20366Y-23034D01*
X20978Y-23443D01*
X21700Y-23586D01*
X22422Y-23443D01*
X23034Y-23034D01*
X23443Y-22422D01*
X23586Y-21700D01*
X23443Y-20978D01*
X23034Y-20366D01*
X22422Y-19957D01*
X22017Y-19877D01*
X21610Y-19361D01*
X21627Y-19274D01*
X21484Y-18552D01*
X21075Y-17940D01*
X20463Y-17531D01*
X19741Y-17388D01*
D02*
G37*
G36*
X33500Y-31614D02*
X32778Y-31757D01*
X32166Y-32166D01*
X31757Y-32778D01*
X31614Y-33500D01*
X31757Y-34222D01*
X32166Y-34834D01*
X32778Y-35243D01*
X33500Y-35386D01*
X34222Y-35243D01*
X34834Y-34834D01*
X35243Y-34222D01*
X35386Y-33500D01*
X35243Y-32778D01*
X34834Y-32166D01*
X34222Y-31757D01*
X33500Y-31614D01*
D02*
G37*
G36*
X9900D02*
X9178Y-31757D01*
X8566Y-32166D01*
X8157Y-32778D01*
X8014Y-33500D01*
X8157Y-34222D01*
X8566Y-34834D01*
X9178Y-35243D01*
X9900Y-35386D01*
X10622Y-35243D01*
X11234Y-34834D01*
X11643Y-34222D01*
X11786Y-33500D01*
X11643Y-32778D01*
X11234Y-32166D01*
X10622Y-31757D01*
X9900Y-31614D01*
D02*
G37*
G36*
X71200Y-18814D02*
X70478Y-18957D01*
X69866Y-19366D01*
X69457Y-19978D01*
X69314Y-20700D01*
X69457Y-21422D01*
X69866Y-22034D01*
X70180Y-22244D01*
Y-37278D01*
X68731Y-38727D01*
X68270Y-38481D01*
X68286Y-38400D01*
X68143Y-37678D01*
X67734Y-37066D01*
X67122Y-36657D01*
X66400Y-36514D01*
X65678Y-36657D01*
X65066Y-37066D01*
X64657Y-37678D01*
X64514Y-38400D01*
X64657Y-39122D01*
X64809Y-39349D01*
X56779Y-47379D01*
X56558Y-47710D01*
X56480Y-48100D01*
Y-94900D01*
X56558Y-95290D01*
X56779Y-95621D01*
X60387Y-99229D01*
X60314Y-99600D01*
X60457Y-100322D01*
X60866Y-100934D01*
X61478Y-101343D01*
X62200Y-101486D01*
X62868Y-101353D01*
X62922Y-101343D01*
X63186Y-101761D01*
X63146Y-101788D01*
X62945Y-101922D01*
X62536Y-102534D01*
X62392Y-103256D01*
X62536Y-103978D01*
X62945Y-104590D01*
X63557Y-104999D01*
X64279Y-105142D01*
X65001Y-104999D01*
X65180Y-104878D01*
X65680Y-105146D01*
Y-111956D01*
X65366Y-112166D01*
X64957Y-112778D01*
X64814Y-113500D01*
X64957Y-114222D01*
X65366Y-114834D01*
X65978Y-115243D01*
X66700Y-115386D01*
X67422Y-115243D01*
X68034Y-114834D01*
X68443Y-114222D01*
X68586Y-113500D01*
X68443Y-112778D01*
X68034Y-112166D01*
X67720Y-111956D01*
Y-95500D01*
X67642Y-95110D01*
X67421Y-94779D01*
X60620Y-87978D01*
Y-49722D01*
X71921Y-38421D01*
X72142Y-38090D01*
X72220Y-37700D01*
Y-22244D01*
X72534Y-22034D01*
X72943Y-21422D01*
X73086Y-20700D01*
X72943Y-19978D01*
X72534Y-19366D01*
X71922Y-18957D01*
X71200Y-18814D01*
D02*
G37*
G36*
X80921Y-29214D02*
X80199Y-29357D01*
X79588Y-29766D01*
X79179Y-30378D01*
X79035Y-31100D01*
X79179Y-31822D01*
X79588Y-32434D01*
X80199Y-32843D01*
X80921Y-32986D01*
X81643Y-32843D01*
X82255Y-32434D01*
X82664Y-31822D01*
X82807Y-31100D01*
X82664Y-30378D01*
X82255Y-29766D01*
X81643Y-29357D01*
X80921Y-29214D01*
D02*
G37*
G36*
X15800Y-25714D02*
X15078Y-25857D01*
X14466Y-26266D01*
X14057Y-26878D01*
X13914Y-27600D01*
X14057Y-28322D01*
X14466Y-28934D01*
X15078Y-29343D01*
X15800Y-29486D01*
X16522Y-29343D01*
X17134Y-28934D01*
X17543Y-28322D01*
X17686Y-27600D01*
X17543Y-26878D01*
X17134Y-26266D01*
X16522Y-25857D01*
X15800Y-25714D01*
D02*
G37*
G36*
X21700D02*
X20978Y-25857D01*
X20366Y-26266D01*
X19957Y-26878D01*
X19814Y-27600D01*
X19957Y-28322D01*
X20366Y-28934D01*
X20978Y-29343D01*
X21700Y-29486D01*
X22422Y-29343D01*
X23034Y-28934D01*
X23443Y-28322D01*
X23586Y-27600D01*
X23443Y-26878D01*
X23034Y-26266D01*
X22422Y-25857D01*
X21700Y-25714D01*
D02*
G37*
G36*
X9900D02*
X9178Y-25857D01*
X8566Y-26266D01*
X8157Y-26878D01*
X8014Y-27600D01*
X8157Y-28322D01*
X8566Y-28934D01*
X9178Y-29343D01*
X9900Y-29486D01*
X10622Y-29343D01*
X11234Y-28934D01*
X11643Y-28322D01*
X11786Y-27600D01*
X11643Y-26878D01*
X11234Y-26266D01*
X10622Y-25857D01*
X9900Y-25714D01*
D02*
G37*
%LPD*%
G36*
X89038Y-136080D02*
X89019Y-136251D01*
X88867Y-136580D01*
X87122D01*
X79380Y-128838D01*
Y-127129D01*
X79880Y-126921D01*
X89038Y-136080D01*
D02*
G37*
G36*
X111780Y-125675D02*
Y-131978D01*
X110720Y-133038D01*
X110220Y-132831D01*
Y-126007D01*
X110886Y-125731D01*
X111280Y-125428D01*
X111780Y-125675D01*
D02*
G37*
G36*
X106736Y-124619D02*
X107218Y-125248D01*
X107848Y-125731D01*
X108180Y-125869D01*
Y-133078D01*
X106520Y-134739D01*
X106020Y-134531D01*
Y-124197D01*
X106520Y-124098D01*
X106736Y-124619D01*
D02*
G37*
G36*
X77103Y-180946D02*
X77104Y-180954D01*
X65242Y-192816D01*
X65051Y-192790D01*
X65018Y-192698D01*
X64988Y-192277D01*
X65221Y-192121D01*
X76560Y-180782D01*
X77103Y-180946D01*
D02*
G37*
G36*
X79887Y-153029D02*
X79814Y-153400D01*
X79879Y-153730D01*
X79419Y-153977D01*
X71420Y-145978D01*
Y-145269D01*
X71920Y-145062D01*
X79887Y-153029D01*
D02*
G37*
G36*
X89877Y-143318D02*
X89685Y-143780D01*
X88222D01*
X87105Y-142663D01*
X87127Y-142273D01*
X87500Y-141886D01*
X88222Y-141743D01*
X88269Y-141711D01*
X89877Y-143318D01*
D02*
G37*
G36*
X73360Y-76446D02*
Y-78294D01*
X72860Y-78562D01*
X72780Y-78508D01*
X72680Y-78488D01*
X71561Y-77369D01*
X71738Y-76839D01*
X72222Y-76743D01*
X72834Y-76334D01*
X72860Y-76294D01*
X73360Y-76446D01*
D02*
G37*
G36*
X108980Y-99316D02*
Y-101030D01*
X108843Y-101131D01*
X108753Y-101140D01*
X108209Y-100979D01*
X107934Y-100566D01*
X107431Y-100230D01*
X107458Y-99781D01*
X107484Y-99710D01*
X107822Y-99643D01*
X108434Y-99234D01*
X108480Y-99164D01*
X108980Y-99316D01*
D02*
G37*
G36*
X135079Y-71721D02*
X135316Y-71879D01*
X135449Y-72289D01*
X135469Y-72464D01*
X135302Y-72680D01*
X117591D01*
X117576Y-72642D01*
X117522Y-72143D01*
X118134Y-71734D01*
X118344Y-71420D01*
X134778D01*
X135079Y-71721D01*
D02*
G37*
G36*
X146780Y-57911D02*
Y-61164D01*
X146620Y-61275D01*
X146120Y-61013D01*
Y-58072D01*
X146620Y-57804D01*
X146780Y-57911D01*
D02*
G37*
G36*
X115352Y-59758D02*
X115380Y-59878D01*
X111579Y-63679D01*
X111520Y-63768D01*
X111020Y-63616D01*
Y-62822D01*
X113694Y-60148D01*
X114222Y-60043D01*
X114834Y-59634D01*
X115352Y-59758D01*
D02*
G37*
G36*
X106974Y-118786D02*
X107016Y-118812D01*
X107157Y-119522D01*
X107566Y-120134D01*
X107531Y-120712D01*
X107218Y-120952D01*
X106736Y-121581D01*
X106520Y-122102D01*
X106020Y-122003D01*
Y-119144D01*
X106334Y-118934D01*
X106538Y-118628D01*
X106974Y-118786D01*
D02*
G37*
G36*
X103305Y-118394D02*
X103666Y-118934D01*
X103980Y-119144D01*
Y-134678D01*
X96278Y-142380D01*
X91822D01*
X89372Y-139930D01*
X89243Y-139278D01*
X89137Y-139120D01*
X89404Y-138620D01*
X94100D01*
X94490Y-138542D01*
X94821Y-138321D01*
X98421Y-134721D01*
X98642Y-134390D01*
X98720Y-134000D01*
Y-130944D01*
X99034Y-130734D01*
X99443Y-130122D01*
X99586Y-129400D01*
X99443Y-128678D01*
X99034Y-128066D01*
X98422Y-127657D01*
X97700Y-127514D01*
X96978Y-127657D01*
X96366Y-128066D01*
X95957Y-128678D01*
X95828Y-129327D01*
X95783Y-129421D01*
X95365Y-129706D01*
X94900Y-129614D01*
X94178Y-129757D01*
X93566Y-130166D01*
X93157Y-130778D01*
X93034Y-131399D01*
X92730Y-131600D01*
X92537Y-131668D01*
X92222Y-131457D01*
X91500Y-131314D01*
X91129Y-131387D01*
X89620Y-129878D01*
Y-126837D01*
X90120Y-126570D01*
X90378Y-126743D01*
X91100Y-126886D01*
X91822Y-126743D01*
X92434Y-126334D01*
X92843Y-125722D01*
X92986Y-125000D01*
X92913Y-124629D01*
X93303Y-124239D01*
X93888Y-124344D01*
X94002Y-124619D01*
X94485Y-125248D01*
X95114Y-125731D01*
X95847Y-126035D01*
X96633Y-126138D01*
X97420Y-126035D01*
X98152Y-125731D01*
X98782Y-125248D01*
X99265Y-124619D01*
X99568Y-123886D01*
X99672Y-123100D01*
X99568Y-122314D01*
X99307Y-121685D01*
X102767Y-118225D01*
X103305Y-118394D01*
D02*
G37*
G36*
X111780Y-71202D02*
Y-120525D01*
X111280Y-120772D01*
X110886Y-120469D01*
X110671Y-120380D01*
X110483Y-119761D01*
X110643Y-119522D01*
X110786Y-118800D01*
X110643Y-118078D01*
X110234Y-117466D01*
X109622Y-117057D01*
X108900Y-116914D01*
X108178Y-117057D01*
X107566Y-117466D01*
X107362Y-117772D01*
X106926Y-117614D01*
X106884Y-117588D01*
X106743Y-116878D01*
X106334Y-116266D01*
X105722Y-115857D01*
X105000Y-115714D01*
X104697Y-115774D01*
X104298Y-115344D01*
X104386Y-114900D01*
X104243Y-114178D01*
X103834Y-113566D01*
X103222Y-113157D01*
X102500Y-113014D01*
X101778Y-113157D01*
X101166Y-113566D01*
X100757Y-114178D01*
X100614Y-114900D01*
X100757Y-115622D01*
X101166Y-116234D01*
X101188Y-116249D01*
X101241Y-116867D01*
X97790Y-120318D01*
X97420Y-120165D01*
X96633Y-120062D01*
X95847Y-120165D01*
X95114Y-120469D01*
X94485Y-120952D01*
X94002Y-121581D01*
X93837Y-121980D01*
X93100D01*
X92710Y-122058D01*
X92379Y-122279D01*
X91471Y-123187D01*
X91100Y-123114D01*
X90894Y-123155D01*
X90648Y-122694D01*
X110721Y-102621D01*
X110942Y-102290D01*
X111020Y-101900D01*
Y-71346D01*
X111504Y-71062D01*
X111780Y-71202D01*
D02*
G37*
G36*
X125780Y-121022D02*
Y-145478D01*
X109278Y-161980D01*
X103946D01*
X103897Y-161480D01*
X104090Y-161442D01*
X104421Y-161221D01*
X109929Y-155712D01*
X110300Y-155786D01*
X111022Y-155643D01*
X111634Y-155234D01*
X112043Y-154622D01*
X112186Y-153900D01*
X112043Y-153178D01*
X111634Y-152566D01*
X111022Y-152157D01*
X110300Y-152014D01*
X109578Y-152157D01*
X108966Y-152566D01*
X108557Y-153178D01*
X108414Y-153900D01*
X108487Y-154271D01*
X103278Y-159480D01*
X84922D01*
X81123Y-155681D01*
X81370Y-155220D01*
X81700Y-155286D01*
X82422Y-155143D01*
X83034Y-154734D01*
X83443Y-154122D01*
X83586Y-153400D01*
X83443Y-152678D01*
X83034Y-152066D01*
X82422Y-151657D01*
X81700Y-151514D01*
X81329Y-151587D01*
X73410Y-143668D01*
Y-137305D01*
X73871Y-137113D01*
X78688Y-141929D01*
X78614Y-142300D01*
X78757Y-143022D01*
X79166Y-143634D01*
X79778Y-144043D01*
X80500Y-144186D01*
X81222Y-144043D01*
X81834Y-143634D01*
X82243Y-143022D01*
X82386Y-142300D01*
X82243Y-141578D01*
X81834Y-140966D01*
X81222Y-140557D01*
X80500Y-140414D01*
X80129Y-140488D01*
X75400Y-135758D01*
Y-131549D01*
X75900Y-131342D01*
X80069Y-135511D01*
X79757Y-135978D01*
X79614Y-136700D01*
X79757Y-137422D01*
X80166Y-138034D01*
X80778Y-138443D01*
X81500Y-138586D01*
X82222Y-138443D01*
X82834Y-138034D01*
X83243Y-137422D01*
X83386Y-136700D01*
X83320Y-136370D01*
X83781Y-136123D01*
X85900Y-138242D01*
X85980Y-138369D01*
X85990Y-138930D01*
X85757Y-139278D01*
X85666Y-139736D01*
X85172Y-140148D01*
X85000Y-140114D01*
X84278Y-140257D01*
X83666Y-140666D01*
X83257Y-141278D01*
X83114Y-142000D01*
X83257Y-142722D01*
X83666Y-143334D01*
X84278Y-143743D01*
X85000Y-143886D01*
X85371Y-143813D01*
X87079Y-145521D01*
X87410Y-145742D01*
X87800Y-145820D01*
X88085D01*
X88276Y-146282D01*
X87878Y-146680D01*
X82782D01*
X82643Y-145978D01*
X82234Y-145366D01*
X81622Y-144957D01*
X80900Y-144814D01*
X80178Y-144957D01*
X79566Y-145366D01*
X79157Y-145978D01*
X79014Y-146700D01*
X79157Y-147422D01*
X79566Y-148034D01*
X80178Y-148443D01*
X80900Y-148586D01*
X81306Y-148505D01*
X81510Y-148642D01*
X81900Y-148720D01*
X88300D01*
X88690Y-148642D01*
X89021Y-148421D01*
X89922Y-147520D01*
X98700D01*
X99090Y-147442D01*
X99421Y-147221D01*
X113521Y-133121D01*
X113742Y-132790D01*
X113820Y-132400D01*
Y-129366D01*
X114320Y-129214D01*
X114466Y-129434D01*
X115078Y-129843D01*
X115800Y-129986D01*
X116522Y-129843D01*
X117134Y-129434D01*
X117543Y-128822D01*
X117686Y-128100D01*
X117613Y-127729D01*
X120032Y-125310D01*
X120581Y-125731D01*
X120592Y-125736D01*
X120647Y-126300D01*
X120366Y-126488D01*
X119957Y-127099D01*
X119814Y-127821D01*
X119957Y-128543D01*
X120366Y-129155D01*
X120978Y-129564D01*
X121700Y-129708D01*
X122422Y-129564D01*
X123034Y-129155D01*
X123443Y-128543D01*
X123586Y-127821D01*
X123443Y-127099D01*
X123034Y-126488D01*
X123115Y-125940D01*
X123619Y-125731D01*
X124248Y-125248D01*
X124731Y-124619D01*
X125035Y-123886D01*
X125138Y-123100D01*
X125035Y-122314D01*
X124731Y-121581D01*
X124248Y-120952D01*
X123619Y-120469D01*
X122886Y-120165D01*
X122100Y-120062D01*
X121314Y-120165D01*
X120581Y-120469D01*
X119952Y-120952D01*
X119469Y-121581D01*
X119165Y-122314D01*
X119062Y-123100D01*
X119096Y-123362D01*
X116171Y-126287D01*
X115800Y-126214D01*
X115078Y-126357D01*
X114466Y-126766D01*
X114320Y-126986D01*
X113820Y-126834D01*
Y-117546D01*
X114320Y-117336D01*
X114778Y-117643D01*
X115500Y-117786D01*
X116222Y-117643D01*
X116834Y-117234D01*
X117023Y-116951D01*
X117089Y-116964D01*
X118911D01*
X119133Y-116920D01*
X121678D01*
X125780Y-121022D01*
D02*
G37*
%LPC*%
G36*
X106400Y-142214D02*
X105678Y-142357D01*
X105066Y-142766D01*
X104657Y-143378D01*
X104514Y-144100D01*
X104657Y-144822D01*
X105066Y-145434D01*
X105678Y-145843D01*
X106400Y-145986D01*
X107122Y-145843D01*
X107734Y-145434D01*
X108143Y-144822D01*
X108286Y-144100D01*
X108143Y-143378D01*
X107734Y-142766D01*
X107122Y-142357D01*
X106400Y-142214D01*
D02*
G37*
%LPD*%
G36*
X65680Y-95922D02*
Y-101366D01*
X65180Y-101633D01*
X65001Y-101513D01*
X64279Y-101370D01*
X63610Y-101503D01*
X63557Y-101513D01*
X63293Y-101095D01*
X63333Y-101068D01*
X63534Y-100934D01*
X63943Y-100322D01*
X64086Y-99600D01*
X63943Y-98878D01*
X63534Y-98266D01*
X62922Y-97857D01*
X62200Y-97714D01*
X61829Y-97787D01*
X58520Y-94478D01*
Y-89460D01*
X59020Y-89262D01*
X65680Y-95922D01*
D02*
G37*
D10*
X91100Y-125000D02*
X93100Y-123000D01*
X96550D01*
X80900Y-146700D02*
X81900Y-147700D01*
X88300D01*
X89500Y-146500D01*
X98700D01*
X97900Y-144800D02*
X109200Y-133500D01*
X91400Y-143400D02*
X96700D01*
X105000Y-135100D01*
X96550Y-123000D02*
X102500Y-117050D01*
X72200Y-143900D02*
X81700Y-153400D01*
X68400Y-75650D02*
X72200Y-79450D01*
X74100Y-135900D02*
X80500Y-142300D01*
X76000Y-69975D02*
X81600Y-64375D01*
X85000Y-142000D02*
X87800Y-144800D01*
X97900D01*
X88000Y-140000D02*
X91400Y-143400D01*
X87500Y-140000D02*
X88000D01*
X93500Y-135400D02*
X94900Y-134000D01*
Y-131500D01*
X94100Y-137600D02*
X97700Y-134000D01*
Y-129400D01*
X88600Y-130300D02*
X91500Y-133200D01*
X110000Y-101900D02*
Y-62400D01*
X113500Y-58900D01*
Y-58300D01*
X70400Y-146400D02*
Y-88925D01*
X68400Y-86925D02*
X70400Y-88925D01*
X72390Y-143900D02*
Y-79450D01*
X74380Y-135900D02*
Y-70075D01*
X78360Y-129200D02*
Y-85600D01*
X80350Y-96050D02*
X87200Y-89200D01*
Y-88500D01*
X82600Y-69100D02*
Y-65375D01*
X81600Y-64375D02*
X82600Y-65375D01*
X67700Y-86225D02*
Y-82200D01*
Y-86225D02*
X68400Y-86925D01*
X69050Y-75000D02*
X71500D01*
X68400Y-75650D02*
X69050Y-75000D01*
X72137Y-64638D02*
X72600Y-65100D01*
X68663Y-64638D02*
X72137D01*
X68663D02*
X74100Y-70075D01*
X87900Y-76000D02*
X91400D01*
X87200Y-88500D02*
X99700Y-76000D01*
X101900D01*
X57500Y-94900D02*
Y-48100D01*
X59600Y-49300D02*
X71200Y-37700D01*
Y-20700D01*
X57500Y-48100D02*
X66400Y-39200D01*
Y-38400D01*
X136200Y-73500D02*
X147800Y-61900D01*
Y-56000D01*
X135800Y-71000D02*
X145100Y-61700D01*
Y-48100D01*
X144200Y-47200D02*
X145100Y-48100D01*
X108900Y-119400D02*
X109200Y-119700D01*
X108900Y-119400D02*
Y-118800D01*
X105000Y-135100D02*
Y-117600D01*
X102500Y-117050D02*
Y-114900D01*
X109200Y-133500D02*
Y-119700D01*
X57500Y-94900D02*
X62200Y-99600D01*
X88600Y-130300D02*
Y-123300D01*
X110000Y-101900D01*
X99700Y-108800D02*
X106600Y-101900D01*
X86600Y-108800D02*
X99700D01*
X84600Y-110800D02*
X86600Y-108800D01*
X98200Y-106800D02*
X107100Y-97900D01*
X84300Y-106800D02*
X98200D01*
X84000Y-107100D02*
X84300Y-106800D01*
X115500Y-115900D02*
X117045D01*
X117089Y-115944D01*
X118911D01*
X118955Y-115900D01*
X122100D01*
X126800Y-120600D01*
Y-145900D02*
Y-120600D01*
X109700Y-163000D02*
X126800Y-145900D01*
X86000Y-163000D02*
X109700D01*
X76600Y-172400D02*
X86000Y-163000D01*
X123200Y-114000D02*
Y-89200D01*
Y-114000D02*
X128900Y-119700D01*
Y-147000D02*
Y-119700D01*
X110900Y-165000D02*
X128900Y-147000D01*
X86800Y-165000D02*
X110900D01*
X78500Y-173300D02*
X86800Y-165000D01*
X47100Y-186000D02*
X55000Y-193900D01*
X38700Y-186000D02*
X47100D01*
X64500Y-191400D02*
X76600Y-179300D01*
Y-172400D01*
X55000Y-193900D02*
X65600D01*
X78500Y-181000D01*
Y-173300D01*
X58000Y-191400D02*
X64500D01*
X147800Y-56000D02*
X159500D01*
X160200Y-55300D01*
X115800Y-128100D02*
X120800Y-123100D01*
X122100D01*
X113500Y-58300D02*
Y-45900D01*
X100450Y-32850D02*
X113500Y-45900D01*
X100450Y-32850D02*
Y-32600D01*
X112300Y-69200D02*
Y-64400D01*
X116600Y-60100D01*
Y-33325D01*
X117325Y-32600D01*
X144200Y-47200D02*
Y-42600D01*
X134200Y-32600D02*
X144200Y-42600D01*
X136000Y-73700D02*
X136200Y-73500D01*
X115600Y-73700D02*
X136000D01*
X98700Y-146500D02*
X112800Y-132400D01*
Y-69700D01*
X112300Y-69200D02*
X112800Y-69700D01*
X135200Y-70400D02*
X135800Y-71000D01*
X116800Y-70400D02*
X135200D01*
X78300Y-129200D02*
X86700Y-137600D01*
X94100D01*
X80350Y-125950D02*
Y-96050D01*
Y-125950D02*
X89800Y-135400D01*
X93500D01*
X81500Y-136700D02*
Y-135500D01*
X76370Y-130370D02*
X81500Y-135500D01*
X76370Y-130370D02*
Y-69975D01*
X78800Y-85100D02*
X87900Y-76000D01*
X59600Y-88400D02*
Y-49300D01*
Y-88400D02*
X66700Y-95500D01*
Y-113500D02*
Y-95500D01*
X70400Y-146400D02*
X84500Y-160500D01*
X103700D01*
X110300Y-153900D01*
D34*
X174100Y-174000D02*
X208200D01*
X208300Y-174100D01*
D35*
X12600Y-121980D02*
D03*
Y-91965D02*
D03*
D36*
X24411Y-115732D02*
D03*
Y-98213D02*
D03*
D37*
X14500Y-71100D02*
D03*
X110300Y-153900D02*
D03*
X91100Y-125000D02*
D03*
X81700Y-153400D02*
D03*
X80900Y-146700D02*
D03*
X112300Y-69200D02*
D03*
X80500Y-142300D02*
D03*
X81500Y-136700D02*
D03*
X94900Y-131500D02*
D03*
X97700Y-129400D02*
D03*
X85000Y-142000D02*
D03*
X87500Y-140000D02*
D03*
X91500Y-133200D02*
D03*
X113500Y-58300D02*
D03*
X106400Y-144100D02*
D03*
X115000Y-147500D02*
D03*
X120300Y-146400D02*
D03*
X126956Y-158356D02*
D03*
X130567Y-164700D02*
D03*
X153100Y-176300D02*
D03*
X147467D02*
D03*
X141833Y-176497D02*
D03*
X63600Y-188703D02*
D03*
X34300Y-194600D02*
D03*
X22750Y-212515D02*
D03*
X22750Y-190285D02*
D03*
X62200Y-172700D02*
D03*
X67500D02*
D03*
X73244Y-175144D02*
D03*
X73244Y-164156D02*
D03*
X77600Y-185800D02*
D03*
X83133D02*
D03*
X88667D02*
D03*
X94200D02*
D03*
X116000Y-177000D02*
D03*
X116006Y-189444D02*
D03*
X40797Y-151800D02*
D03*
Y-144250D02*
D03*
Y-136700D02*
D03*
X58900Y-145100D02*
D03*
X67054Y-145197D02*
D03*
X67444Y-137256D02*
D03*
X116144Y-120356D02*
D03*
X118000Y-113744D02*
D03*
X134400Y-115000D02*
D03*
X158500Y-119200D02*
D03*
X154456Y-127356D02*
D03*
X157500Y-102000D02*
D03*
X160244Y-93400D02*
D03*
X143756Y-77500D02*
D03*
X148644Y-69044D02*
D03*
X132544Y-79300D02*
D03*
X128400Y-54400D02*
D03*
X134100D02*
D03*
X122900Y-48700D02*
D03*
X100200Y-44603D02*
D03*
X93550Y-44800D02*
D03*
X86900D02*
D03*
X92400Y-67944D02*
D03*
X86944Y-99000D02*
D03*
X64503Y-69100D02*
D03*
X56300Y-38244D02*
D03*
X37056Y-12900D02*
D03*
X16500Y-35900D02*
D03*
X14600Y-64800D02*
D03*
X7356Y-102400D02*
D03*
X7156Y-111700D02*
D03*
X46150Y-206050D02*
D03*
Y-196750D02*
D03*
X134100Y-66377D02*
D03*
X110923Y-48700D02*
D03*
X83479Y-53356D02*
D03*
X121700Y-127821D02*
D03*
X76400Y-38321D02*
D03*
X80921Y-31100D02*
D03*
X35426Y-46200D02*
D03*
X19741Y-19274D02*
D03*
X87200Y-88500D02*
D03*
X82600Y-69100D02*
D03*
X67700Y-82200D02*
D03*
X71500Y-75000D02*
D03*
X72600Y-65100D02*
D03*
X64279Y-103256D02*
D03*
X63556Y-74900D02*
D03*
X71200Y-20700D02*
D03*
X66400Y-38400D02*
D03*
X64100Y-96800D02*
D03*
X144200Y-47200D02*
D03*
X147800Y-56000D02*
D03*
X108900Y-118800D02*
D03*
X105000Y-117600D02*
D03*
X102500Y-114900D02*
D03*
X66700Y-113500D02*
D03*
X62200Y-99600D02*
D03*
X106600Y-101900D02*
D03*
X84600Y-110800D02*
D03*
X107100Y-97900D02*
D03*
X84000Y-107100D02*
D03*
X115500Y-115900D02*
D03*
X123200Y-89200D02*
D03*
X38700Y-186000D02*
D03*
X58000Y-191400D02*
D03*
X76400Y-156000D02*
D03*
X37721Y-171047D02*
D03*
X115800Y-128100D02*
D03*
X115600Y-73700D02*
D03*
X119200Y-58300D02*
D03*
X116800Y-70400D02*
D03*
X138000Y-106500D02*
D03*
X174100Y-174000D02*
D03*
X208300Y-174100D02*
D03*
X160968Y-197600D02*
D03*
X146456Y-203600D02*
D03*
X151900Y-206451D02*
D03*
X157544Y-203400D02*
D03*
X146256Y-191800D02*
D03*
X151900Y-188749D02*
D03*
X157344Y-191600D02*
D03*
X41200Y-98100D02*
D03*
X28600Y-50000D02*
D03*
X30100Y-52200D02*
D03*
X31700Y-50000D02*
D03*
X34800D02*
D03*
X33200Y-52100D02*
D03*
X9900Y-45300D02*
D03*
Y-39400D02*
D03*
Y-33500D02*
D03*
Y-27600D02*
D03*
Y-21700D02*
D03*
X15800D02*
D03*
X21700D02*
D03*
X27600D02*
D03*
X33500D02*
D03*
Y-27600D02*
D03*
X27600D02*
D03*
X21700D02*
D03*
X15800D02*
D03*
X33500Y-33500D02*
D03*
Y-39400D02*
D03*
X27600D02*
D03*
X15800D02*
D03*
X167500Y-5000D02*
D03*
X161600Y-5000D02*
D03*
X155700D02*
D03*
X149800D02*
D03*
X143900D02*
D03*
X120300D02*
D03*
X126200D02*
D03*
X132100D02*
D03*
X138000D02*
D03*
X96700D02*
D03*
X102600D02*
D03*
X108500D02*
D03*
X114400D02*
D03*
X73100D02*
D03*
X79000D02*
D03*
X84900D02*
D03*
X90800D02*
D03*
X49500D02*
D03*
X55400D02*
D03*
X61300D02*
D03*
X67200D02*
D03*
X25900D02*
D03*
X31800D02*
D03*
X37700D02*
D03*
X43600D02*
D03*
X14100D02*
D03*
X20000D02*
D03*
X5000Y-50200D02*
D03*
Y-56100D02*
D03*
Y-26600D02*
D03*
Y-32500D02*
D03*
Y-38400D02*
D03*
Y-44300D02*
D03*
Y-14800D02*
D03*
Y-20700D02*
D03*
Y-97400D02*
D03*
Y-73800D02*
D03*
Y-79700D02*
D03*
Y-85600D02*
D03*
Y-91500D02*
D03*
Y-62000D02*
D03*
Y-67900D02*
D03*
Y-144600D02*
D03*
Y-150500D02*
D03*
Y-121000D02*
D03*
Y-126900D02*
D03*
Y-132800D02*
D03*
Y-138700D02*
D03*
Y-115100D02*
D03*
Y-191800D02*
D03*
Y-197700D02*
D03*
Y-168200D02*
D03*
Y-174100D02*
D03*
Y-180000D02*
D03*
Y-185900D02*
D03*
Y-156400D02*
D03*
Y-162300D02*
D03*
Y-203600D02*
D03*
Y-209500D02*
D03*
X8200Y-215472D02*
D03*
X20000D02*
D03*
X14100D02*
D03*
X43600D02*
D03*
X37700D02*
D03*
X31800D02*
D03*
X25900D02*
D03*
X49500D02*
D03*
X90800D02*
D03*
X84900D02*
D03*
X79000D02*
D03*
X114400D02*
D03*
X108500D02*
D03*
X102600D02*
D03*
X96700D02*
D03*
X138000D02*
D03*
X132100D02*
D03*
X126200D02*
D03*
X120300D02*
D03*
X143900D02*
D03*
X149800D02*
D03*
X155700D02*
D03*
X161600D02*
D03*
X167500D02*
D03*
Y-202716D02*
D03*
Y-209095D02*
D03*
Y-183583D02*
D03*
Y-189961D02*
D03*
Y-196339D02*
D03*
Y-138937D02*
D03*
Y-145315D02*
D03*
Y-151693D02*
D03*
Y-158071D02*
D03*
Y-113425D02*
D03*
Y-119803D02*
D03*
Y-126181D02*
D03*
Y-132559D02*
D03*
Y-87913D02*
D03*
Y-94291D02*
D03*
Y-100669D02*
D03*
Y-107047D02*
D03*
Y-81536D02*
D03*
Y-75157D02*
D03*
Y-68779D02*
D03*
Y-62402D02*
D03*
Y-56024D02*
D03*
Y-43268D02*
D03*
Y-49646D02*
D03*
Y-17756D02*
D03*
Y-24134D02*
D03*
Y-30512D02*
D03*
Y-36890D02*
D03*
Y-11378D02*
D03*
X78800Y-85100D02*
D03*
X55400Y-215472D02*
D03*
X63300Y-215600D02*
D03*
X73100Y-215472D02*
D03*
X90769Y-148969D02*
D03*
X95100D02*
D03*
X99431D02*
D03*
X90769Y-157631D02*
D03*
X95100D02*
D03*
Y-153300D02*
D03*
X90769D02*
D03*
X99431Y-157631D02*
D03*
Y-153300D02*
D03*
D42*
X134200Y-32600D02*
D03*
X100450D02*
D03*
X117325D02*
D03*
X81600Y-64375D02*
D03*
X68400D02*
D03*
Y-75650D02*
D03*
Y-86925D02*
D03*
X122100Y-123100D02*
D03*
X160200Y-55300D02*
D03*
X109367Y-123100D02*
D03*
X96633D02*
D03*
X101900Y-76000D02*
D03*
X91400D02*
D03*
M02*
