M48
;Layer_Color=9474304
;FILE_FORMAT=2:5
INCH,LZ
;TYPE=PLATED
T1F00S00C0.01200
T2F00S00C0.03346
T3F00S00C0.05118
%
T01
X00633Y-02156
X00731Y-0215472
X0079
X00849
X00908
X00967
X01026
X01085
X01144
X01203
X01262
X01321
X0138
X01439
X01498
X01557
X01616
X01675
Y-0209095
Y-0202716
Y-0196339
Y-0189961
X0157344Y-01916
X01519Y-0188749
X0146256Y-01918
X0146456Y-02036
X01519Y-0206451
X0157544Y-02034
X0160968Y-01976
X0116006Y-0189444
X00636Y-0188703
X0058Y-01914
X004615Y-019675
Y-020605
X00436Y-0215472
X00377
X00318
X00259
X002
X002275Y-0212515
X00141Y-0215472
X00082
X0005Y-02095
Y-02036
Y-01977
Y-01918
X002275Y-0190285
X00343Y-01946
X00495Y-0215472
X00554
X00387Y-0186
X0037721Y-0171047
X0040797Y-01518
Y-014425
Y-01367
X0005Y-01387
Y-01446
Y-01505
Y-01564
Y-01623
Y-01682
Y-01741
Y-018
Y-01859
Y-01328
Y-01269
Y-0121
Y-01151
X0007156Y-01117
X0007356Y-01024
X0005Y-00974
Y-00915
Y-00856
Y-00797
Y-00738
Y-00679
Y-0062
Y-00561
Y-00502
Y-00443
X00099Y-00453
Y-00394
Y-00335
X0005Y-00325
Y-00384
X00158Y-00394
X00165Y-00359
X00276Y-00394
X00335
Y-00335
X0035426Y-00462
X00348Y-005
X00317
X00286
X00301Y-00522
X00332Y-00521
X00146Y-00648
X00145Y-00711
X00412Y-00981
X00622Y-00996
X00641Y-00968
X0064279Y-0103256
X00667Y-01135
X00846Y-01108
X0084Y-01071
X0086944Y-0099
X00872Y-00885
X00788Y-00851
X00677Y-00822
X00715Y-0075
X0063556Y-00749
X0064503Y-00691
X00726Y-00651
X00826Y-00691
X00924Y-0067944
X01123Y-00692
X01168Y-00704
X01156Y-00737
X01135Y-00583
X01192
X01284Y-00544
X01341
X01341Y-0066377
X0132544Y-00793
X0143756Y-00775
X0148644Y-0069044
X01478Y-0056
X01442Y-00472
X01229Y-00487
X0110923Y-00487
X01002Y-0044603
X009355Y-00448
X00869
X0083479Y-0053356
X00764Y-0038321
X00664Y-00384
X00563Y-0038244
X00589Y-01451
X0067054Y-0145197
X0067444Y-0137256
X00815Y-01367
X00805Y-01423
X00809Y-01467
X00817Y-01534
X00764Y-0156
X0073244Y-0164156
X0073244Y-0175144
X00675Y-01727
X00622
X00776Y-01858
X0083133
X0088667
X00942
X00951Y-0157631
X0090769
Y-01533
X00951
Y-0148969
X0090769
X0099431
Y-01533
Y-0157631
X01103Y-01539
X0115Y-01475
X01203Y-01464
X01064Y-01441
X00875Y-014
X0085Y-0142
X00915Y-01332
X00949Y-01315
X00977Y-01294
X00911Y-0125
X0105Y-01176
X01089Y-01188
X0116144Y-0120356
X01155Y-01159
X0118Y-0113744
X01158Y-01281
X01217Y-0127821
X01344Y-0115
X0138Y-01065
X01575Y-0102
X01675Y-0100669
Y-0094291
Y-0087913
Y-0081536
Y-0075157
Y-0068779
Y-0062402
Y-0056024
Y-0049646
Y-0043268
Y-003689
X0160244Y-00934
X01675Y-0107047
Y-0113425
Y-0119803
Y-0126181
Y-0132559
Y-0138937
Y-0145315
Y-0151693
Y-0158071
X01741Y-0174
X01675Y-0183583
X01531Y-01763
X0147467
X0141833Y-0176497
X0130567Y-01647
X0126956Y-0158356
X0116Y-0177
X01025Y-01149
X01066Y-01019
X01071Y-00979
X01232Y-00892
X01585Y-01192
X0154456Y-0127356
X02083Y-01741
X01675Y-0030512
Y-0024134
Y-0017756
Y-0011378
Y-0005
X01616Y-0005
X01557
X01498
X01439
X0138
X01321
X01262
X01203
X01144
X01085
X01026
X00967
X00908
X00849
X0079
X00731
X00672
X00613
X00712Y-00207
X0080921Y-00311
X00335Y-00276
Y-00217
X00276
X00217
X0019741Y-0019274
X00158Y-00217
X00099
Y-00276
X00158
X00217
X00276
X0005Y-00266
Y-00207
Y-00148
X00141Y-0005
X002
X00259
X00318
X00377
X00436
X00495
X00554
X0037056Y-00129
T02
X0024411Y-0115732
Y-0098213
T03
X00126Y-0123409
Y-0090535
M30
